<?xml version="1.0" standalone="no"?><!DOCTYPE svg PUBLIC "-//W3C//DTD SVG 1.1//EN" 	"http://www.w3.org/Graphics/SVG/1.1/DTD/svg11.dtd"><svg width="1453" height="946" version="1.1"	xmlns="http://www.w3.org/2000/svg"><title>Krona (snapshot) - all</title><defs>	<style type="text/css">	text {font-size: 16px; font-family: sans-serif; dominant-baseline:central}	path {stroke-width:0.39999999999999997;}	path.wedge {stroke:none}	path.line {fill:none;stroke:black;}	line {stroke:black;stroke-width:0.39999999999999997;}	line.tick {stroke-width:0.7999999999999999;}	line.pattern {stroke-width:0.26666666666666666;}	circle {fill:none;stroke:black;stroke-width:0.39999999999999997;}	rect {stroke:black;stroke-width:0.39999999999999997;}	.highlight {stroke:black;stroke-width:2;}	.searchHighlight {fill:rgb(255, 255, 100);stroke:none;}	</style><pattern id="hiddenPattern" patternUnits="userSpaceOnUse" x="0" y="0" width="9.6" height="9.6"><line class="pattern" x1="0" y1="0" x2="4.8" y2="4.8"/><line class="pattern" x1="4.8" y1="9.6" x2="9.6" y2="4.8"/></pattern></defs><path class="wedge" fill="rgb(208,114,114)" d=" M 651.5,560.505 L 651.5,823.02 A 350.02,350.02 0 1,1 739.4862937147027,811.7807735370325 L 673.4965734286757,557.6951933842581 A 87.505,87.505 0 1 0 651.5,560.505 Z "/><path class="wedge" fill="rgb(208,114,114)" d=" M 688.2388771228838,614.4586827685943 L 739.486293714703,811.7807735370324 A 350.02,350.02 0 0,1 739.4862937147027,811.7807735370325 L 688.2388771228837,614.4586827685944 A 146.15164734916996,146.15164734916996 0 0 0 688.2388771228838,614.4586827685943 Z "/><path class="wedge" fill="rgb(212,127,127)" d=" M 651.5,619.1516473491699 L 651.5,823.02 A 350.02,350.02 0 0,1 586.0668660275892,129.1504611337271 L 624.178246039407,329.424842735963 A 146.15164734916996,146.15164734916996 0 0 0 651.5,619.1516473491699 Z "/><path class="wedge" fill="rgb(216,140,140)" d=" M 651.5,667.2319657502987 L 651.5,823.02 A 350.02,350.02 0 0,1 301.59393973104653,481.9302512315987 L 457.3312613165495,477.95554611552893 A 194.23196575029874,194.23196575029874 0 0 0 651.5,667.2319657502987 Z "/><path class="wedge" fill="rgb(221,153,153)" d=" M 651.5,707.3594782018066 L 651.5,823.02 A 350.02,350.02 0 0,1 304.84122575071746,521.3910594633445 L 419.3910649473181,505.4007298024742 A 234.35947820180658,234.35947820180658 0 0 0 651.5,707.3594782018066 Z "/><path class="wedge" fill="rgb(225,165,165)" d=" M 651.5,741.3530294908323 L 651.5,823.02 A 350.02,350.02 0 0,1 304.84122575071746,521.3910594633445 L 385.7239521473815,510.1004154255743 A 268.35302949083234,268.35302949083234 0 0 0 651.5,741.3530294908323 Z "/><path class="wedge" fill="rgb(216,149,140)" d=" M 419.3910649473181,505.4007298024742 L 304.84122575071746,521.3910594633445 A 350.02,350.02 0 0,1 301.59393973104653,481.9302512315987 L 417.216811312834,478.97934123435374 A 234.35947820180658,234.35947820180658 0 0 0 419.3910649473181,505.4007298024742 Z "/><path class="wedge" fill="url(#hiddenPattern)" d=" M 419.3910649473181,505.4007298024742 L 304.84122575071746,521.3910594633445 A 350.02,350.02 0 0,1 301.59393973104653,481.9302512315987 L 417.216811312834,478.97934123435374 A 234.35947820180658,234.35947820180658 0 0 0 419.3910649473181,505.4007298024742 Z "/><path class="wedge" fill="rgb(216,149,140)" d=" M 457.3312613165495,477.95554611552893 L 301.59393973104653,481.9302512315987 A 350.02,350.02 0 0,1 577.4001363935648,130.91344572826648 L 610.3807434714961,283.1704362809409 A 194.23196575029874,194.23196575029874 0 0 0 457.3312613165495,477.95554611552893 Z "/><path class="wedge" fill="rgb(221,161,153)" d=" M 417.216811312834,478.97934123435374 L 301.59393973104653,481.9302512315987 A 350.02,350.02 0 0,1 406.7498642231313,222.77735626605593 L 487.6250382535619,305.46086446556285 A 234.35947820180658,234.35947820180658 0 0 0 417.216811312834,478.97934123435374 Z "/><path class="wedge" fill="rgb(225,173,165)" d=" M 383.2343257231717,479.8466372553389 L 301.59393973104653,481.9302512315987 A 350.02,350.02 0 0,1 406.7498642231313,222.77735626605593 L 463.85517854975353,281.15952090392227 A 268.35302949083234,268.35302949083234 0 0 0 383.2343257231717,479.8466372553389 Z "/><path class="wedge" fill="rgb(221,166,153)" d=" M 487.6250382535619,305.46086446556285 L 406.7498642231313,222.77735626605593 A 350.02,350.02 0 0,1 478.7928709837473,168.55583765333347 L 535.8621717673817,269.15629098579836 A 234.35947820180658,234.35947820180658 0 0 0 487.6250382535619,305.46086446556285 Z "/><path class="wedge" fill="rgb(225,177,165)" d=" M 463.85517854975353,281.15952090392227 L 406.7498642231313,222.77735626605593 A 350.02,350.02 0 0,1 446.16297461148616,189.53799830559865 L 494.07238777885937,255.67559882227283 A 268.35302949083234,268.35302949083234 0 0 0 463.85517854975353,281.15952090392227 Z "/><path class="wedge" fill="rgb(225,177,165)" d=" M 494.07238777885937,255.67559882227283 L 446.16297461148616,189.53799830559865 A 350.02,350.02 0 0,1 465.6180372370967,176.41629121037244 L 508.9881782894487,245.61545982708597 A 268.35302949083234,268.35302949083234 0 0 0 494.07238777885937,255.67559882227283 Z "/><path class="wedge" fill="rgb(225,178,165)" d=" M 508.9881782894487,245.61545982708597 L 465.6180372370967,176.41629121037244 A 350.02,350.02 0 0,1 478.7928709837476,168.5558376533333 L 519.0890483795915,239.5890141234021 A 268.35302949083234,268.35302949083234 0 0 0 508.9881782894487,245.61545982708597 Z "/><path class="wedge" fill="url(#hiddenPattern)" d=" M 508.9881782894487,245.61545982708597 L 465.6180372370967,176.41629121037244 A 350.02,350.02 0 0,1 478.7928709837476,168.5558376533333 L 519.0890483795915,239.5890141234021 A 268.35302949083234,268.35302949083234 0 0 0 508.9881782894487,245.61545982708597 Z "/><path class="wedge" fill="rgb(221,167,153)" d=" M 535.8621717673817,269.15629098579836 L 478.7928709837473,168.55583765333347 A 350.02,350.02 0 0,1 538.7304445985843,141.64365439218307 L 575.9939884551583,251.13696287210598 A 234.35947820180658,234.35947820180658 0 0 0 535.8621717673817,269.15629098579836 Z "/><path class="wedge" fill="rgb(225,178,165)" d=" M 519.0890483795913,239.58901412340222 L 478.7928709837473,168.55583765333347 A 350.02,350.02 0 0,1 524.6767704052994,146.76409021205245 L 554.2672765226293,222.88173612852518 A 268.35302949083234,268.35302949083234 0 0 0 519.0890483795913,239.58901412340222 Z "/><path class="wedge" fill="rgb(225,179,165)" d=" M 554.2672765226293,222.88173612852518 L 524.6767704052994,146.76409021205245 A 350.02,350.02 0 0,1 538.7304445985843,141.64365439218307 L 565.0419352428314,218.95600484295485 A 268.35302949083234,268.35302949083234 0 0 0 554.2672765226293,222.88173612852518 Z "/><path class="wedge" fill="url(#hiddenPattern)" d=" M 554.2672765226293,222.88173612852518 L 524.6767704052994,146.76409021205245 A 350.02,350.02 0 0,1 538.7304445985843,141.64365439218307 L 565.0419352428314,218.95600484295485 A 268.35302949083234,268.35302949083234 0 0 0 554.2672765226293,222.88173612852518 Z "/><path class="wedge" fill="rgb(221,168,153)" d=" M 575.9939884551583,251.13696287210598 L 538.7304445985843,141.64365439218307 A 350.02,350.02 0 0,1 569.0767143912307,132.82298374308823 L 596.3126444004638,245.23099243981108 A 234.35947820180658,234.35947820180658 0 0 0 575.9939884551583,251.13696287210598 Z "/><path class="wedge" fill="rgb(225,179,165)" d=" M 565.0419352428314,218.95600484295485 L 538.7304445985843,141.64365439218307 A 350.02,350.02 0 0,1 569.0767143912307,132.82298374308823 L 588.307787001596,212.19338073340265 A 268.35302949083234,268.35302949083234 0 0 0 565.0419352428314,218.95600484295485 Z "/><path class="wedge" fill="rgb(216,158,140)" d=" M 596.3126444004638,245.23099243981108 L 569.0767143912307,132.82298374308823 A 350.02,350.02 0 0,1 577.4001363935648,130.91344572826648 L 601.8856769052363,243.9524416919677 A 234.35947820180658,234.35947820180658 0 0 0 596.3126444004638,245.23099243981108 Z "/><path class="wedge" fill="url(#hiddenPattern)" d=" M 596.3126444004638,245.23099243981108 L 569.0767143912307,132.82298374308823 A 350.02,350.02 0 0,1 577.4001363935648,130.91344572826648 L 601.8856769052363,243.9524416919677 A 234.35947820180658,234.35947820180658 0 0 0 596.3126444004638,245.23099243981108 Z "/><path class="wedge" fill="rgb(212,148,127)" d=" M 610.3807434714961,283.1704362809409 L 577.4001363935648,130.91344572826648 A 350.02,350.02 0 0,1 586.0668660275892,129.1504611337271 L 615.1900570348437,282.19212657468165 A 194.23196575029874,194.23196575029874 0 0 0 610.3807434714961,283.1704362809409 Z "/><path class="wedge" fill="url(#hiddenPattern)" d=" M 610.3807434714961,283.1704362809409 L 577.4001363935648,130.91344572826648 A 350.02,350.02 0 0,1 586.0668660275892,129.1504611337271 L 615.1900570348437,282.19212657468165 A 194.23196575029874,194.23196575029874 0 0 0 610.3807434714961,283.1704362809409 Z "/><path class="wedge" fill="rgb(212,148,127)" d=" M 624.178246039407,329.424842735963 L 586.0668660275892,129.1504611337271 A 350.02,350.02 0 0,1 947.4345864260401,659.9136724716748 L 775.068159858754,551.0462291978129 A 146.15164734916996,146.15164734916996 0 0 0 624.178246039407,329.424842735963 Z "/><path class="wedge" fill="rgb(216,158,140)" d=" M 615.1900570348437,282.19212657468165 L 586.0668660275892,129.1504611337271 A 350.02,350.02 0 0,1 947.4345864260401,659.9136724716748 L 815.7190630679146,576.7215302833579 A 194.23196575029874,194.23196575029874 0 0 0 615.1900570348437,282.19212657468165 Z "/><path class="wedge" fill="rgb(221,169,153)" d=" M 607.6885745532167,242.77201728863625 L 586.0668660275892,129.1504611337271 A 350.02,350.02 0 0,1 947.5489187829216,659.732530876286 L 849.7225876469188,598.0286797882096 A 234.35947820180658,234.35947820180658 0 0 0 607.6885745532167,242.77201728863625 Z "/><path class="wedge" fill="rgb(225,180,165)" d=" M 601.3337816965433,209.37773429006904 L 586.0668660275892,129.1504611337271 A 350.02,350.02 0 0,1 959.666339676017,638.9744181814949 L 887.7647015575111,600.2491227272226 A 268.35302949083234,268.35302949083234 0 0 0 601.3337816965433,209.37773429006904 Z "/><path class="wedge" fill="rgb(225,191,165)" d=" M 887.7647015575111,600.2491227272226 L 959.666339676017,638.9744181814949 A 350.02,350.02 0 0,1 947.5489187829216,659.732530876286 L 878.4745278352162,616.1639345327173 A 268.35302949083234,268.35302949083234 0 0 0 887.7647015575111,600.2491227272226 Z "/><path class="wedge" fill="rgb(216,173,140)" d=" M 849.7225876469188,598.0286797882096 L 947.5489187829216,659.732530876286 A 350.02,350.02 0 0,1 947.4345864260401,659.9136724716748 L 849.6460352456265,598.1499649998432 A 234.35947820180658,234.35947820180658 0 0 0 849.7225876469188,598.0286797882096 Z "/><path class="wedge" fill="url(#hiddenPattern)" d=" M 849.7225876469188,598.0286797882096 L 947.5489187829216,659.732530876286 A 350.02,350.02 0 0,1 947.4345864260401,659.9136724716748 L 849.6460352456265,598.1499649998432 A 234.35947820180658,234.35947820180658 0 0 0 849.7225876469188,598.0286797882096 Z "/><path class="wedge" fill="rgb(212,164,127)" d=" M 775.068159858754,551.0462291978129 L 947.4345864260401,659.9136724716748 A 350.02,350.02 0 0,1 781.5811320635769,797.9506108334899 L 705.8156726476678,608.6838668659893 A 146.15164734916996,146.15164734916996 0 0 0 775.068159858754,551.0462291978129 Z "/><path class="wedge" fill="rgb(216,173,140)" d=" M 815.7190630679146,576.7215302833579 L 947.4345864260401,659.9136724716748 A 350.02,350.02 0 0,1 781.5811320635769,797.9506108334899 L 723.6842008677582,653.3205414374867 A 194.23196575029874,194.23196575029874 0 0 0 815.7190630679146,576.7215302833579 Z "/><path class="wedge" fill="rgb(221,182,153)" d=" M 849.6460352456265,598.1499649998432 L 947.4345864260401,659.9136724716748 A 350.02,350.02 0 0,1 799.456562601177,790.2110590494033 L 750.5658328316804,685.3919155438564 A 234.35947820180658,234.35947820180658 0 0 0 849.6460352456265,598.1499649998432 Z "/><path class="wedge" fill="rgb(225,191,165)" d=" M 878.3868716031782,616.3028120136883 L 947.4345864260401,659.9136724716748 A 350.02,350.02 0 0,1 799.456562601177,790.2110590494033 L 764.9352088654243,716.199099148342 A 268.35302949083234,268.35302949083234 0 0 0 878.3868716031782,616.3028120136883 Z "/><path class="wedge" fill="rgb(216,177,140)" d=" M 750.5658328316804,685.3919155438564 L 799.456562601177,790.2110590494033 A 350.02,350.02 0 0,1 781.5811320635769,797.9506108334899 L 738.5971551177652,690.574011760171 A 234.35947820180658,234.35947820180658 0 0 0 750.5658328316804,685.3919155438564 Z "/><path class="wedge" fill="url(#hiddenPattern)" d=" M 750.5658328316804,685.3919155438564 L 799.456562601177,790.2110590494033 A 350.02,350.02 0 0,1 781.5811320635769,797.9506108334899 L 738.5971551177652,690.574011760171 A 234.35947820180658,234.35947820180658 0 0 0 750.5658328316804,685.3919155438564 Z "/><path class="wedge" fill="rgb(212,169,127)" d=" M 705.8156726476678,608.6838668659893 L 781.5811320635769,797.9506108334899 A 350.02,350.02 0 0,1 750.8845639416761,808.61392827194 L 692.9982507889688,613.1363593230964 A 146.15164734916996,146.15164734916996 0 0 0 705.8156726476678,608.6838668659893 Z "/><path class="wedge" fill="rgb(216,177,140)" d=" M 723.6842008677582,653.3205414374867 L 781.5811320635769,797.9506108334899 A 350.02,350.02 0 0,1 751.1390582320474,808.5384604998817 L 706.7913837664106,659.1959167125335 A 194.23196575029874,194.23196575029874 0 0 0 723.6842008677582,653.3205414374867 Z "/><path class="wedge" fill="rgb(221,186,153)" d=" M 738.5971551177652,690.574011760171 L 781.5811320635769,797.9506108334899 A 350.02,350.02 0 0,1 751.1390582320474,808.5384604998817 L 718.2143525963718,697.6632150145413 A 234.35947820180658,234.35947820180658 0 0 0 738.5971551177652,690.574011760171 Z "/><path class="wedge" fill="rgb(225,194,165)" d=" M 751.2304893116333,722.1328519857823 L 781.5811320635769,797.9506108334899 A 350.02,350.02 0 0,1 751.1390582320474,808.5384604998817 L 727.8911865955756,730.250335368931 A 268.35302949083234,268.35302949083234 0 0 0 751.2304893116333,722.1328519857823 Z "/><path class="wedge" fill="rgb(212,169,127)" d=" M 706.7913837664106,659.1959167125335 L 751.1390582320474,808.5384604998817 A 350.02,350.02 0 0,1 750.8845639416761,808.61392827194 L 706.6501606183303,659.2377950443937 A 194.23196575029874,194.23196575029874 0 0 0 706.7913837664106,659.1959167125335 Z "/><path class="wedge" fill="url(#hiddenPattern)" d=" M 706.7913837664106,659.1959167125335 L 751.1390582320474,808.5384604998817 A 350.02,350.02 0 0,1 750.8845639416761,808.61392827194 L 706.6501606183303,659.2377950443937 A 194.23196575029874,194.23196575029874 0 0 0 706.7913837664106,659.1959167125335 Z "/><path class="wedge" fill="rgb(208,161,114)" d=" M 692.9982507889688,613.1363593230964 L 750.8845639416761,808.61392827194 A 350.02,350.02 0 0,1 739.486293714703,811.7807735370324 L 688.2388771228838,614.4586827685943 A 146.15164734916996,146.15164734916996 0 0 0 692.9982507889688,613.1363593230964 Z "/><path class="wedge" fill="url(#hiddenPattern)" d=" M 692.9982507889688,613.1363593230964 L 750.8845639416761,808.61392827194 A 350.02,350.02 0 0,1 739.486293714703,811.7807735370324 L 688.2388771228838,614.4586827685943 A 146.15164734916996,146.15164734916996 0 0 0 692.9982507889688,613.1363593230964 Z "/><path class="wedge" fill="rgb(114,208,114)" d=" M 673.4965734286757,557.6951933842581 L 739.4862937147027,811.7807735370325 A 350.02,350.02 0 0,1 686.7723439177345,821.2382261535184 L 660.3180859794336,560.0595565383796 A 87.505,87.505 0 0 0 673.4965734286757,557.6951933842581 Z "/><path class="wedge" fill="rgb(127,212,127)" d=" M 688.2388771228837,614.4586827685944 L 739.4862937147027,811.7807735370325 A 350.02,350.02 0 0,1 697.8431215266062,819.9384894864941 L 670.8506758311419,617.8649556233466 A 146.15164734916996,146.15164734916996 0 0 0 688.2388771228837,614.4586827685944 Z "/><path class="wedge" fill="rgb(140,216,140)" d=" M 700.3250693882917,660.9951305711234 L 739.4862937147027,811.7807735370325 A 350.02,350.02 0 0,1 697.8431215266062,819.9384894864941 L 677.2165750331916,665.5219839077799 A 194.23196575029874,194.23196575029874 0 0 0 700.3250693882917,660.9951305711234 Z "/><path class="wedge" fill="rgb(153,221,153)" d=" M 710.4121246896995,699.834138937613 L 739.4862937147027,811.7807735370325 A 350.02,350.02 0 0,1 697.8431215266062,819.9384894864941 L 682.5295119685113,705.296221256436 A 234.35947820180658,234.35947820180658 0 0 0 710.4121246896995,699.834138937613 Z "/><path class="wedge" fill="rgb(165,225,165)" d=" M 718.9572552197321,732.736149111223 L 739.4862937147027,811.7807735370325 A 350.02,350.02 0 0,1 697.8431215266062,819.9384894864941 L 687.0303041475532,738.9904996876578 A 268.35302949083234,268.35302949083234 0 0 0 718.9572552197321,732.736149111223 Z "/><path class="wedge" fill="rgb(114,208,151)" d=" M 670.8506758311419,617.8649556233466 L 697.8431215266062,819.9384894864941 A 350.02,350.02 0 0,1 686.7723439177342,821.2382261535184 L 666.2280474528408,618.4076636257629 A 146.15164734916996,146.15164734916996 0 0 0 670.8506758311419,617.8649556233466 Z "/><path class="wedge" fill="url(#hiddenPattern)" d=" M 670.8506758311419,617.8649556233466 L 697.8431215266062,819.9384894864941 A 350.02,350.02 0 0,1 686.7723439177342,821.2382261535184 L 666.2280474528408,618.4076636257629 A 146.15164734916996,146.15164734916996 0 0 0 670.8506758311419,617.8649556233466 Z "/><path class="wedge" fill="rgb(114,114,208)" d=" M 660.3180859794336,560.0595565383796 L 686.7723439177345,821.2382261535184 A 350.02,350.02 0 0,1 651.4999999999998,823.02 L 651.5,560.505 A 87.505,87.505 0 0 0 660.3180859794336,560.0595565383796 Z "/><path class="wedge" fill="rgb(127,127,212)" d=" M 666.2280474528409,618.4076636257629 L 686.7723439177345,821.2382261535184 A 350.02,350.02 0 0,1 651.4999999999998,823.02 L 651.4999999999999,619.1516473491699 A 146.15164734916996,146.15164734916996 0 0 0 666.2280474528409,618.4076636257629 Z "/><path class="wedge" fill="rgb(140,140,216)" d=" M 671.0732149470377,666.2432295731529 L 686.7723439177345,821.2382261535184 A 350.02,350.02 0 0,1 651.4999999999998,823.02 L 651.4999999999999,667.2319657502987 A 194.23196575029874,194.23196575029874 0 0 0 671.0732149470377,666.2432295731529 Z "/><path class="wedge" fill="rgb(153,153,221)" d=" M 675.1169593609363,706.1664732622744 L 686.7723439177345,821.2382261535184 A 350.02,350.02 0 0,1 651.4999999999998,823.02 L 651.4999999999999,707.3594782018066 A 234.35947820180658,234.35947820180658 0 0 0 675.1169593609363,706.1664732622744 Z "/><path class="wedge" fill="rgb(153,153,221)" d=" M 651.5000000000001,741.3530294908323 L 651.5000000000001,823.02 A 350.02,350.02 0 0,1 651.4999999999998,823.02 L 651.4999999999999,741.3530294908323 A 268.35302949083234,268.35302949083234 0 0 0 651.5000000000001,741.3530294908323 Z "/><path class="wedge" fill="rgb(165,165,225)" d=" M 678.542569989048,739.9869806662771 L 686.7723439177345,821.2382261535184 A 350.02,350.02 0 0,1 654.331269672344,823.0085489127979 L 653.6706753724902,741.3442501812453 A 268.35302949083234,268.35302949083234 0 0 0 678.542569989048,739.9869806662771 Z "/><path class="wedge" fill="rgb(192,165,225)" d=" M 653.6706753724902,741.3442501812453 L 654.331269672344,823.0085489127979 A 350.02,350.02 0 0,1 651.5000000000001,823.02 L 651.5000000000001,741.3530294908323 A 268.35302949083234,268.35302949083234 0 0 0 653.6706753724902,741.3442501812453 Z "/><path class="wedge" fill="url(#hiddenPattern)" d=" M 653.6706753724902,741.3442501812453 L 654.331269672344,823.0085489127979 A 350.02,350.02 0 0,1 651.5000000000001,823.02 L 651.5000000000001,741.3530294908323 A 268.35302949083234,268.35302949083234 0 0 0 653.6706753724902,741.3442501812453 Z "/><circle cx="651.5" cy="473" r="87.505"/><circle cx="651.5" cy="473" r="350.02"/><text x="651.5" y="473" text-anchor="middle" style="font-color:black;font-weight:bold" transform="rotate(360,651.5,473)">all</text><path class="line" d=" M 673.4965734286757,557.6951933842581 A 87.505,87.505 0 1 0 651.5,560.505"/><line x1="739.4862937147027" y1="811.7807735370325" x2="673.4965734286757" y2="557.6951933842581"/><text x="651.5" y="367.90100579524903" text-anchor="middle" style="font-color:black;font-weight:normal" transform="rotate(352.7205523676686,651.5,473)">Bacteria</text><path class="line" d=" M 624.178246039407,329.424842735963 A 146.15164734916996,146.15164734916996 0 0 0 651.5,619.1516473491699"/><line x1="586.0668660275892" y1="129.1504611337271" x2="624.178246039407" y2="329.424842735963"/><text x="651.5" y="633.5757428695085" text-anchor="middle" style="font-color:black;font-weight:normal" transform="rotate(84.61283723229766,651.5,473)">Proteobacteria</text><path class="line" d=" M 457.3312613165495,477.95554611552893 A 194.23196575029874,194.23196575029874 0 0 0 651.5,667.2319657502987"/><line x1="301.59393973104653" y1="481.9302512315987" x2="457.3312613165495" y2="477.95554611552893"/><text x="651.5" y="679.2702194857511" text-anchor="middle" style="font-color:black;font-weight:normal" transform="rotate(44.26901143859315,651.5,473)">Alphaproteobacteria</text><path class="line" d=" M 419.3910649473181,505.4007298024742 A 234.35947820180658,234.35947820180658 0 0 0 651.5,707.3594782018066"/><line x1="304.84122575071746" y1="521.3910594633445" x2="419.3910649473181" y2="505.4007298024742"/><text x="651.5" y="724.3562538463195" text-anchor="middle" style="font-color:black;font-weight:normal" transform="rotate(41.026637384017576,651.5,473)">Pelagibacterales</text><path class="line" d=" M 385.7239521473815,510.1004154255743 A 268.35302949083234,268.35302949083234 0 0 0 651.5,741.3530294908323"/><text x="342.31348525458384" y="473" text-anchor="end" style="font-color:black;font-weight:normal" transform="rotate(-48.973362615982424,651.5,473)">Pelagibacteraceae&#160;&#160;&#160;23%</text><line x1="989.52" y1="473" x2="1013.52" y2="473" class="tick" transform="rotate(175.29564882261073,651.5,473)"/><text x="285.48" y="473" text-anchor="end" style="font-color:black;font-weight:normal" transform="rotate(-4.704351177389271,651.5,473)">5 more</text><path class="line" d=" M 417.216811312834,478.97934123435374 A 234.35947820180658,234.35947820180658 0 0 0 419.3910649473181,505.4007298024742"/><path class="line" d=" M 610.3807434714961,283.1704362809409 A 194.23196575029874,194.23196575029874 0 0 0 457.3312613165495,477.95554611552893"/><line x1="577.4001363935648" y1="130.91344572826648" x2="610.3807434714961" y2="283.1704362809409"/><text x="651.5" y="250.67877553364576" text-anchor="middle" style="font-color:black;font-weight:normal" transform="rotate(308.15796110522336,651.5,473)">Gammaproteobacteria</text><path class="line" d=" M 487.6250382535619,305.46086446556285 A 234.35947820180658,234.35947820180658 0 0 0 417.216811312834,478.97934123435374"/><line x1="406.7498642231313" y1="222.77735626605593" x2="487.6250382535619" y2="305.46086446556285"/><text x="651.5" y="221.64374615368052" text-anchor="middle" style="font-color:black;font-weight:normal" transform="rotate(292.08573474855916,651.5,473)">Gammapro...ae sedis</text><path class="line" d=" M 463.85517854975353,281.15952090392227 A 268.35302949083234,268.35302949083234 0 0 0 383.2343257231717,479.8466372553389"/><text x="342.31348525458384" y="473" text-anchor="end" style="font-color:black;font-weight:normal" transform="rotate(22.08573474855917,651.5,473)">Gammaproteobacteria fam. incertae sedis&#160;&#160;&#160;13%</text><path class="line" d=" M 535.8621717673817,269.15629098579836 A 234.35947820180658,234.35947820180658 0 0 0 487.6250382535619,305.46086446556285"/><line x1="478.7928709837473" y1="168.55583765333347" x2="535.8621717673817" y2="269.15629098579836"/><text x="651.5" y="221.64374615368052" text-anchor="middle" style="font-color:black;font-weight:normal" transform="rotate(323.0338901796659,651.5,473)">Al...es</text><path class="line" d=" M 494.07238777885937,255.67559882227283 A 268.35302949083234,268.35302949083234 0 0 0 463.85517854975353,281.15952090392227"/><line x1="446.16297461148616" y1="189.53799830559865" x2="494.07238777885937" y2="255.67559882227283"/><text x="342.31348525458384" y="473" text-anchor="end" style="font-color:black;font-weight:normal" transform="rotate(49.85712608572438,651.5,473)">Alteromonadaceae&#160;&#160;&#160;2%</text><path class="line" d=" M 508.9881782894487,245.61545982708597 A 268.35302949083234,268.35302949083234 0 0 0 494.07238777885937,255.67559882227283"/><line x1="465.6180372370967" y1="176.41629121037244" x2="508.9881782894487" y2="245.61545982708597"/><text x="342.31348525458384" y="473" text-anchor="end" style="font-color:black;font-weight:normal" transform="rotate(56.00181839890903,651.5,473)">Pseudoalteromonadaceae&#160;&#160;&#160;1%</text><path class="line" d=" M 519.0890483795915,239.5890141234021 A 268.35302949083234,268.35302949083234 0 0 0 508.9881782894487,245.61545982708597"/><path class="line" d=" M 575.9939884551583,251.13696287210598 A 234.35947820180658,234.35947820180658 0 0 0 535.8621717673817,269.15629098579836"/><line x1="538.7304445985843" y1="141.64365439218307" x2="575.9939884551583" y2="251.13696287210598"/><text x="651.5" y="221.64374615368052" text-anchor="middle" style="font-color:black;font-weight:normal" transform="rotate(335.81975050814964,651.5,473)">O...s</text><path class="line" d=" M 554.2672765226293,222.88173612852518 A 268.35302949083234,268.35302949083234 0 0 0 519.0890483795913,239.58901412340222"/><line x1="524.6767704052994" y1="146.76409021205245" x2="554.2672765226293" y2="222.88173612852518"/><text x="342.31348525458384" y="473" text-anchor="end" style="font-color:black;font-weight:normal" transform="rotate(64.59544524273284,651.5,473)">Halomonadaceae&#160;&#160;&#160;2%</text><path class="line" d=" M 565.0419352428314,218.95600484295485 A 268.35302949083234,268.35302949083234 0 0 0 554.2672765226293,222.88173612852518"/><path class="line" d=" M 596.3126444004638,245.23099243981108 A 234.35947820180658,234.35947820180658 0 0 0 575.9939884551583,251.13696287210598"/><line x1="569.0767143912307" y1="132.82298374308823" x2="596.3126444004638" y2="245.23099243981108"/><text x="651.5" y="221.64374615368052" text-anchor="middle" style="font-color:black;font-weight:normal" transform="rotate(343.7925757244546,651.5,473)">C...s</text><path class="line" d=" M 588.307787001596,212.19338073340265 A 268.35302949083234,268.35302949083234 0 0 0 565.0419352428314,218.95600484295485"/><text x="342.31348525458384" y="473" text-anchor="end" style="font-color:black;font-weight:normal" transform="rotate(73.79257572445461,651.5,473)">Woeseiaceae&#160;&#160;&#160;1%</text><path class="line" d=" M 601.8856769052363,243.9524416919677 A 234.35947820180658,234.35947820180658 0 0 0 596.3126444004638,245.23099243981108"/><path class="line" d=" M 615.1900570348437,282.19212657468165 A 194.23196575029874,194.23196575029874 0 0 0 610.3807434714961,283.1704362809409"/><path class="line" d=" M 775.068159858754,551.0462291978129 A 146.15164734916996,146.15164734916996 0 0 0 624.178246039407,329.424842735963"/><line x1="947.4345864260401" y1="659.9136724716748" x2="775.068159858754" y2="551.0462291978129"/><text x="651.5" y="293.19212977003986" text-anchor="middle" style="font-color:black;font-weight:normal" transform="rotate(415.7511865492881,651.5,473)">Cyanobacteria</text><path class="line" d=" M 815.7190630679146,576.7215302833579 A 194.23196575029874,194.23196575029874 0 0 0 615.1900570348437,282.19212657468165"/><text x="651.5" y="266.7297805142489" text-anchor="middle" style="font-color:black;font-weight:normal" transform="rotate(415.7511865492881,651.5,473)">Cyanobacteria class incertae sedis</text><path class="line" d=" M 849.7225876469188,598.0286797882096 A 234.35947820180658,234.35947820180658 0 0 0 607.6885745532167,242.77201728863625"/><line x1="947.5489187829216" y1="659.732530876286" x2="849.7225876469188" y2="598.0286797882096"/><text x="651.5" y="221.64374615368052" text-anchor="middle" style="font-color:black;font-weight:normal" transform="rotate(415.7336545598073,651.5,473)">Synechococcales</text><path class="line" d=" M 887.7647015575111,600.2491227272226 A 268.35302949083234,268.35302949083234 0 0 0 601.3337816965433,209.37773429006904"/><line x1="959.666339676017" y1="638.9744181814949" x2="887.7647015575111" y2="600.2491227272226"/><text x="960.6865147454162" y="473" text-anchor="start" style="font-color:black;font-weight:normal" transform="rotate(323.76600374039776,651.5,473)">36%&#160;&#160;&#160;Prochloraceae</text><path class="line" d=" M 878.4745278352162,616.1639345327173 A 268.35302949083234,268.35302949083234 0 0 0 887.7647015575111,600.2491227272226"/><text x="960.6865147454162" y="473" text-anchor="start" style="font-color:black;font-weight:normal" transform="rotate(390.2739838356097,651.5,473)">1%&#160;&#160;&#160;Synechococcaceae</text><path class="line" d=" M 849.6460352456265,598.1499649998432 A 234.35947820180658,234.35947820180658 0 0 0 849.7225876469188,598.0286797882096"/><path class="line" d=" M 705.8156726476678,608.6838668659893 A 146.15164734916996,146.15164734916996 0 0 0 775.068159858754,551.0462291978129"/><line x1="781.5811320635769" y1="797.9506108334899" x2="705.8156726476678" y2="608.6838668659893"/><text x="651.5" y="633.5757428695085" text-anchor="middle" style="font-color:black;font-weight:normal" transform="rotate(320.2299778620133,651.5,473)">Acti...eria</text><path class="line" d=" M 723.6842008677582,653.3205414374867 A 194.23196575029874,194.23196575029874 0 0 0 815.7190630679146,576.7215302833579"/><text x="651.5" y="695.3212244663542" text-anchor="middle" style="font-color:black;font-weight:normal" transform="rotate(320.2299778620133,651.5,473)">Actinobacteria</text><path class="line" d=" M 750.5658328316804,685.3919155438564 A 234.35947820180658,234.35947820180658 0 0 0 849.6460352456265,598.1499649998432"/><line x1="799.456562601177" y1="790.2110590494033" x2="750.5658328316804" y2="685.3919155438564"/><text x="651.5" y="724.3562538463195" text-anchor="middle" style="font-color:black;font-weight:normal" transform="rotate(318.6354848187092,651.5,473)">Actin...sedis</text><path class="line" d=" M 764.9352088654243,716.199099148342 A 268.35302949083234,268.35302949083234 0 0 0 878.3868716031782,616.3028120136883"/><text x="960.6865147454162" y="473" text-anchor="start" style="font-color:black;font-weight:normal" transform="rotate(408.63548481870913,651.5,473)">9%&#160;&#160;&#160;Actinobacteria fam. incertae sedis</text><line x1="989.52" y1="473" x2="1013.52" y2="473" class="tick" transform="rotate(426.58876404674163,651.5,473)"/><text x="1017.52" y="473" text-anchor="start" style="font-color:black;font-weight:normal" transform="rotate(426.58876404674163,651.5,473)">2 more</text><path class="line" d=" M 738.5971551177652,690.574011760171 A 234.35947820180658,234.35947820180658 0 0 0 750.5658328316804,685.3919155438564"/><path class="line" d=" M 692.9982507889688,613.1363593230964 A 146.15164734916996,146.15164734916996 0 0 0 705.8156726476678,608.6838668659893"/><line x1="750.8845639416761" y1="808.61392827194" x2="692.9982507889688" y2="613.1363593230964"/><text x="651.5" y="652.8078702299601" text-anchor="middle" style="font-color:black;font-weight:normal" transform="rotate(340.84388949366627,651.5,473)">Ba...es</text><path class="line" d=" M 706.7913837664106,659.1959167125335 A 194.23196575029874,194.23196575029874 0 0 0 723.6842008677582,653.3205414374867"/><line x1="751.1390582320474" y1="808.5384604998817" x2="706.7913837664106" y2="659.1959167125335"/><text x="651.5" y="679.2702194857511" text-anchor="middle" style="font-color:black;font-weight:normal" transform="rotate(340.82216350670194,651.5,473)">Fl...ia</text><path class="line" d=" M 718.2143525963718,697.6632150145413 A 234.35947820180658,234.35947820180658 0 0 0 738.5971551177652,690.574011760171"/><text x="651.5" y="724.3562538463195" text-anchor="middle" style="font-color:black;font-weight:normal" transform="rotate(340.82216350670194,651.5,473)">F...s</text><path class="line" d=" M 727.8911865955756,730.250335368931 A 268.35302949083234,268.35302949083234 0 0 0 751.2304893116333,722.1328519857823"/><text x="960.6865147454162" y="473" text-anchor="start" style="font-color:black;font-weight:normal" transform="rotate(430.822163506702,651.5,473)">1%&#160;&#160;&#160;Flavobacteriaceae</text><path class="line" d=" M 706.6501606183303,659.2377950443937 A 194.23196575029874,194.23196575029874 0 0 0 706.7913837664106,659.1959167125335"/><path class="line" d=" M 688.2388771228838,614.4586827685943 A 146.15164734916996,146.15164734916996 0 0 0 692.9982507889688,613.1363593230964"/><line x1="739.486293714703" y1="811.7807735370324" x2="688.2388771228838" y2="614.4586827685943"/><path class="line" d=" M 660.3180859794336,560.0595565383796 A 87.505,87.505 0 0 0 673.4965734286757,557.6951933842581"/><line x1="686.7723439177345" y1="821.2382261535184" x2="660.3180859794336" y2="560.0595565383796"/><text x="651.5" y="601.557653144419" text-anchor="middle" style="font-color:black;font-weight:normal" transform="rotate(349.8287281027632,651.5,473)">Archaea</text><path class="line" d=" M 670.8506758311419,617.8649556233466 A 146.15164734916996,146.15164734916996 0 0 0 688.2388771228837,614.4586827685944"/><line x1="697.8431215266062" y1="819.9384894864941" x2="670.8506758311419" y2="617.8649556233466"/><text x="651.5" y="633.5757428695085" text-anchor="middle" style="font-color:black;font-weight:normal" transform="rotate(348.91636265018246,651.5,473)">Eury...eota</text><path class="line" d=" M 677.2165750331916,665.5219839077799 A 194.23196575029874,194.23196575029874 0 0 0 700.3250693882917,660.9951305711234"/><text x="651.5" y="695.3212244663542" text-anchor="middle" style="font-color:black;font-weight:normal" transform="rotate(348.91636265018246,651.5,473)">Euryar... sedis</text><path class="line" d=" M 682.5295119685113,705.296221256436 A 234.35947820180658,234.35947820180658 0 0 0 710.4121246896995,699.834138937613"/><text x="651.5" y="724.3562538463195" text-anchor="middle" style="font-color:black;font-weight:normal" transform="rotate(348.91636265018246,651.5,473)">E...s</text><path class="line" d=" M 687.0303041475532,738.9904996876578 A 268.35302949083234,268.35302949083234 0 0 0 718.9572552197321,732.736149111223"/><text x="960.6865147454162" y="473" text-anchor="start" style="font-color:black;font-weight:normal" transform="rotate(438.9163626501824,651.5,473)">2%&#160;&#160;&#160;Euryarchaeota fam. incertae sedis</text><path class="line" d=" M 666.2280474528408,618.4076636257629 A 146.15164734916996,146.15164734916996 0 0 0 670.8506758311419,617.8649556233466"/><path class="line" d=" M 651.5,560.505 A 87.505,87.505 0 0 0 660.3180859794336,560.0595565383796"/><line x1="651.4999999999998" y1="823.02" x2="651.5" y2="560.505"/><text x="651.5" y="578.098994204751" text-anchor="middle" style="font-color:black;font-weight:normal" transform="rotate(357.10817573509456,651.5,473)">Eukaryota</text><path class="line" d=" M 651.4999999999999,619.1516473491699 A 146.15164734916996,146.15164734916996 0 0 0 666.2280474528409,618.4076636257629"/><text x="651.5" y="652.8078702299601" text-anchor="middle" style="font-color:black;font-weight:normal" transform="rotate(357.10817573509456,651.5,473)">Ch...ta</text><path class="line" d=" M 651.4999999999999,667.2319657502987 A 194.23196575029874,194.23196575029874 0 0 0 671.0732149470377,666.2432295731529"/><text x="651.5" y="679.2702194857511" text-anchor="middle" style="font-color:black;font-weight:normal" transform="rotate(357.10817573509456,651.5,473)">Ma...ae</text><path class="line" d=" M 651.4999999999999,707.3594782018066 A 234.35947820180658,234.35947820180658 0 0 0 675.1169593609363,706.1664732622744"/><text x="651.5" y="724.3562538463195" text-anchor="middle" style="font-color:black;font-weight:normal" transform="rotate(357.10817573509456,651.5,473)">M...s</text><path class="line" d=" M 653.6706753724902,741.3442501812453 A 268.35302949083234,268.35302949083234 0 0 0 678.542569989048,739.9869806662771"/><line x1="654.331269672344" y1="823.0085489127979" x2="653.6706753724902" y2="741.3442501812453"/><text x="960.6865147454162" y="473" text-anchor="start" style="font-color:black;font-weight:normal" transform="rotate(446.87644387413366,651.5,473)">1%&#160;&#160;&#160;Bathycoccaceae</text><path class="line" d=" M 651.5000000000001,741.3530294908323 A 268.35302949083234,268.35302949083234 0 0 0 653.6706753724902,741.3442501812453"/><line x1="651.5000000000001" y1="823.02" x2="651.5000000000001" y2="741.3530294908323"/></svg>