<?xml version="1.0" standalone="no"?><!DOCTYPE svg PUBLIC "-//W3C//DTD SVG 1.1//EN" 	"http://www.w3.org/Graphics/SVG/1.1/DTD/svg11.dtd"><svg width="1573" height="876" version="1.1"	xmlns="http://www.w3.org/2000/svg"><title>Krona (snapshot) - all</title><defs>	<style type="text/css">	text {font-size: 14px; font-family: sans-serif; dominant-baseline:central}	path {stroke-width:0.35000000000000003;}	path.wedge {stroke:none}	path.line {fill:none;stroke:black;}	line {stroke:black;stroke-width:0.35000000000000003;}	line.tick {stroke-width:0.7000000000000001;}	line.pattern {stroke-width:0.23333333333333334;}	circle {fill:none;stroke:black;stroke-width:0.35000000000000003;}	rect {stroke:black;stroke-width:0.35000000000000003;}	.highlight {stroke:black;stroke-width:1.75;}	.searchHighlight {fill:rgb(255, 255, 100);stroke:none;}	</style><pattern id="hiddenPattern" patternUnits="userSpaceOnUse" x="0" y="0" width="8.4" height="8.4"><line class="pattern" x1="0" y1="0" x2="4.2" y2="4.2"/><line class="pattern" x1="4.2" y1="8.4" x2="8.4" y2="4.2"/></pattern></defs><path class="wedge" fill="rgb(208,114,114)" d=" M 711.5,519.03 L 711.5,762.12 A 324.12,324.12 0 1,1 1035.6199858286673,437.90415416240387 L 792.5299964571668,437.976038540601 A 81.03,81.03 0 1 0 711.5,519.03 Z "/><path class="wedge" fill="rgb(208,114,114)" d=" M 846.8370375054263,437.95997935244765 L 1035.6199858286673,437.9041541624036 A 324.12,324.12 0 0,1 1035.6199858286673,437.90415416240387 L 846.8370375054263,437.95997935244776 A 135.33704342269863,135.33704342269863 0 0 0 846.8370375054263,437.95997935244765 Z "/><path class="wedge" fill="rgb(212,127,127)" d=" M 711.5,573.3370434226986 L 711.5,762.12 A 324.12,324.12 0 0,1 598.528367737952,134.20535767718252 L 664.328437921196,311.14985591871425 A 135.33704342269863,135.33704342269863 0 0 0 711.5,573.3370434226986 Z "/><path class="wedge" fill="rgb(216,140,140)" d=" M 711.5,617.8596215615875 L 711.5,762.12 A 324.12,324.12 0 0,1 396.87203853541683,360.1346016215111 L 536.9076697466567,394.791185100897 A 179.85962156158743,179.85962156158743 0 0 0 711.5,617.8596215615875 Z "/><path class="wedge" fill="rgb(221,153,153)" d=" M 711.5,655.0178677640408 L 711.5,762.12 A 324.12,324.12 0 0,1 395.1325230434642,367.5344486706039 L 499.6729134919267,390.81906793680395 A 217.01786776404077,217.01786776404077 0 0 0 711.5,655.0178677640408 Z "/><path class="wedge" fill="rgb(225,165,165)" d=" M 711.5,686.4960399936249 L 711.5,762.12 A 324.12,324.12 0 0,1 395.1325230434642,367.5344486706039 L 468.947657637685,383.9755323296235 A 248.4960399936249,248.4960399936249 0 0 0 711.5,686.4960399936249 Z "/><path class="wedge" fill="rgb(216,154,140)" d=" M 499.6729134919267,390.81906793680395 L 395.1325230434642,367.5344486706039 A 324.12,324.12 0 0,1 396.87203853541683,360.1346016215111 L 500.8376239170967,385.8644245072897 A 217.01786776404077,217.01786776404077 0 0 0 499.6729134919267,390.81906793680395 Z "/><path class="wedge" fill="url(#hiddenPattern)" d=" M 499.6729134919267,390.81906793680395 L 395.1325230434642,367.5344486706039 A 324.12,324.12 0 0,1 396.87203853541683,360.1346016215111 L 500.8376239170967,385.8644245072897 A 217.01786776404077,217.01786776404077 0 0 0 499.6729134919267,390.81906793680395 Z "/><path class="wedge" fill="rgb(216,154,140)" d=" M 536.9076697466567,394.791185100897 L 396.87203853541683,360.1346016215111 A 324.12,324.12 0 0,1 591.4871412580784,136.917472880621 L 644.9028527833942,270.924258341053 A 179.85962156158743,179.85962156158743 0 0 0 536.9076697466567,394.791185100897 Z "/><path class="wedge" fill="rgb(221,165,153)" d=" M 500.8376239170967,385.8644245072897 L 396.87203853541683,360.1346016215111 A 324.12,324.12 0 0,1 541.7369940015952,161.89441114967337 L 597.8334395070102,253.13067329991117 A 217.01786776404077,217.01786776404077 0 0 0 500.8376239170967,385.8644245072897 Z "/><path class="wedge" fill="rgb(225,177,165)" d=" M 470.28130786370565,378.3022240232614 L 396.87203853541683,360.1346016215111 A 324.12,324.12 0 0,1 490.8464390802293,200.5852143327525 L 542.3295196252774,255.97903839859865 A 248.4960399936249,248.4960399936249 0 0 0 470.28130786370565,378.3022240232614 Z "/><path class="wedge" fill="rgb(225,180,165)" d=" M 542.3295196252774,255.97903839859865 L 490.8464390802293,200.5852143327525 A 324.12,324.12 0 0,1 519.6767692787937,176.73840206475262 L 564.4331321331507,237.69618508788233 A 248.4960399936249,248.4960399936249 0 0 0 542.3295196252774,255.97903839859865 Z "/><path class="wedge" fill="rgb(225,181,165)" d=" M 564.4331321331507,237.69618508788233 L 519.6767692787937,176.73840206475262 A 324.12,324.12 0 0,1 541.726526765837,161.90084718346395 L 581.3382210457448,226.32054140286348 A 248.4960399936249,248.4960399936249 0 0 0 564.4331321331507,237.69618508788233 Z "/><path class="wedge" fill="rgb(225,181,165)" d=" M 581.3382210457448,226.32054140286348 L 541.726526765837,161.90084718346395 A 324.12,324.12 0 0,1 541.7369940015952,161.89441114967337 L 581.3462460569617,226.31560703006878 A 248.4960399936249,248.4960399936249 0 0 0 581.3382210457448,226.32054140286348 Z "/><path class="wedge" fill="url(#hiddenPattern)" d=" M 581.3382210457448,226.32054140286348 L 541.726526765837,161.90084718346395 A 324.12,324.12 0 0,1 541.7369940015952,161.89441114967337 L 581.3462460569617,226.31560703006878 A 248.4960399936249,248.4960399936249 0 0 0 581.3382210457448,226.32054140286348 Z "/><path class="wedge" fill="rgb(221,171,153)" d=" M 597.8334395070102,253.13067329991117 L 541.7369940015952,161.89441114967337 A 324.12,324.12 0 0,1 575.908531786969,143.60446989155116 L 620.713342840344,240.88445568493142 A 217.01786776404077,217.01786776404077 0 0 0 597.8334395070102,253.13067329991117 Z "/><path class="wedge" fill="rgb(225,181,165)" d=" M 581.3462460569617,226.31560703006878 L 541.7369940015952,161.89441114967337 A 324.12,324.12 0 0,1 575.908531786969,143.60446989155116 L 607.5448509568688,212.29309075720874 A 248.4960399936249,248.4960399936249 0 0 0 581.3462460569617,226.31560703006878 Z "/><path class="wedge" fill="rgb(216,162,140)" d=" M 620.713342840344,240.88445568493142 L 575.908531786969,143.60446989155116 A 324.12,324.12 0 0,1 591.4871412580784,136.917472880621 L 631.1441604700764,236.40710830415708 A 217.01786776404077,217.01786776404077 0 0 0 620.713342840344,240.88445568493142 Z "/><path class="wedge" fill="url(#hiddenPattern)" d=" M 620.713342840344,240.88445568493142 L 575.908531786969,143.60446989155116 A 324.12,324.12 0 0,1 591.4871412580784,136.917472880621 L 631.1441604700764,236.40710830415708 A 217.01786776404077,217.01786776404077 0 0 0 620.713342840344,240.88445568493142 Z "/><path class="wedge" fill="rgb(212,152,127)" d=" M 644.9028527833942,270.924258341053 L 591.4871412580784,136.917472880621 A 324.12,324.12 0 0,1 598.528367737952,134.20535767718252 L 648.8101473964989,269.4192601486494 A 179.85962156158743,179.85962156158743 0 0 0 644.9028527833942,270.924258341053 Z "/><path class="wedge" fill="url(#hiddenPattern)" d=" M 644.9028527833942,270.924258341053 L 591.4871412580784,136.917472880621 A 324.12,324.12 0 0,1 598.528367737952,134.20535767718252 L 648.8101473964989,269.4192601486494 A 179.85962156158743,179.85962156158743 0 0 0 644.9028527833942,270.924258341053 Z "/><path class="wedge" fill="rgb(212,152,127)" d=" M 664.328437921196,311.14985591871425 L 598.528367737952,134.20535767718252 A 324.12,324.12 0 0,1 995.3094535519481,281.4561771434445 L 830.0052830406404,372.63477060504476 A 135.33704342269863,135.33704342269863 0 0 0 664.328437921196,311.14985591871425 Z "/><path class="wedge" fill="rgb(216,162,140)" d=" M 648.8101473964989,269.4192601486494 L 598.528367737952,134.20535767718252 A 324.12,324.12 0 0,1 995.3094535519481,281.4561771434445 L 868.9906235698331,351.131208389534 A 179.85962156158743,179.85962156158743 0 0 0 648.8101473964989,269.4192601486494 Z "/><path class="wedge" fill="rgb(221,173,153)" d=" M 635.8586858221246,234.591183774413 L 598.528367737952,134.20535767718252 A 324.12,324.12 0 0,1 974.4117713716153,248.44479729050036 L 887.5352709895561,311.08137135753384 A 217.01786776404077,217.01786776404077 0 0 0 635.8586858221246,234.591183774413 Z "/><path class="wedge" fill="rgb(225,183,165)" d=" M 624.8870071308929,205.08698757096195 L 598.528367737952,134.20535767718252 A 324.12,324.12 0 0,1 974.4117713716153,248.44479729050036 L 913.0689684485859,292.67198187862675 A 248.4960399936249,248.4960399936249 0 0 0 624.8870071308929,205.08698757096195 Z "/><path class="wedge" fill="rgb(221,182,153)" d=" M 887.5352709895561,311.08137135753384 L 974.4117713716153,248.44479729050036 A 324.12,324.12 0 0,1 995.3094535519481,281.4561771434445 L 901.5275282645975,333.1844790572585 A 217.01786776404077,217.01786776404077 0 0 0 887.5352709895561,311.08137135753384 Z "/><path class="wedge" fill="rgb(225,191,165)" d=" M 913.0689684485859,292.67198187862675 L 974.4117713716153,248.44479729050036 A 324.12,324.12 0 0,1 995.3094535519481,281.4561771434445 L 929.0907852659932,317.98111790288306 A 248.4960399936249,248.4960399936249 0 0 0 913.0689684485859,292.67198187862675 Z "/><path class="wedge" fill="rgb(212,165,127)" d=" M 830.0052830406404,372.63477060504476 L 995.3094535519481,281.4561771434445 A 324.12,324.12 0 0,1 1030.7166531975115,381.8350400927796 L 844.7896398094538,414.54819320684436 A 135.33704342269863,135.33704342269863 0 0 0 830.0052830406404,372.63477060504476 Z "/><path class="wedge" fill="rgb(216,174,140)" d=" M 868.9906235698331,351.131208389534 L 995.3094535519481,281.4561771434445 A 324.12,324.12 0 0,1 1030.7166531975115,381.8350400927796 L 888.6386722209704,406.8331221956856 A 179.85962156158743,179.85962156158743 0 0 0 868.9906235698331,351.131208389534 Z "/><path class="wedge" fill="rgb(221,183,153)" d=" M 901.5275282645975,333.1844790572585 L 995.3094535519481,281.4561771434445 A 324.12,324.12 0 0,1 1030.7166531975115,381.8350400927796 L 925.234781660179,400.394175484025 A 217.01786776404077,217.01786776404077 0 0 0 901.5275282645975,333.1844790572585 Z "/><path class="wedge" fill="rgb(225,192,165)" d=" M 929.0907852659932,317.98111790288306 L 995.3094535519481,281.4561771434445 A 324.12,324.12 0 0,1 1030.7166531975115,381.8350400927796 L 956.2367463272859,394.93949733634156 A 248.4960399936249,248.4960399936249 0 0 0 929.0907852659932,317.98111790288306 Z "/><path class="wedge" fill="rgb(212,168,127)" d=" M 844.7896398094538,414.54819320684436 L 1030.7166531975115,381.8350400927796 A 324.12,324.12 0 0,1 1035.599693743564,434.3719267747235 L 846.828564499124,436.4850897703629 A 135.33704342269863,135.33704342269863 0 0 0 844.7896398094538,414.54819320684436 Z "/><path class="wedge" fill="rgb(216,177,140)" d=" M 888.6386722209704,406.8331221956856 L 1030.7166531975115,381.8350400927796 A 324.12,324.12 0 0,1 1035.599693743564,434.3719267747235 L 891.3483532794762,435.9867213461188 A 179.85962156158743,179.85962156158743 0 0 0 888.6386722209704,406.8331221956856 Z "/><path class="wedge" fill="rgb(221,185,153)" d=" M 925.234781660179,400.394175484025 L 1030.7166531975115,381.8350400927796 A 324.12,324.12 0 0,1 1035.599693743564,434.3719267747235 L 928.5042715019342,435.5707863894813 A 217.01786776404077,217.01786776404077 0 0 0 925.234781660179,400.394175484025 Z "/><path class="wedge" fill="rgb(225,194,165)" d=" M 956.2367463272859,394.93949733634156 L 1030.7166531975115,381.8350400927796 A 324.12,324.12 0 0,1 1035.599693743564,434.3719267747235 L 959.9804716105833,435.2184319718372 A 248.4960399936249,248.4960399936249 0 0 0 956.2367463272859,394.93949733634156 Z "/><path class="wedge" fill="rgb(208,161,114)" d=" M 846.828564499124,436.4850897703629 L 1035.599693743564,434.3719267747235 A 324.12,324.12 0 0,1 1035.6199858286673,437.9041541624036 L 846.8370375054263,437.95997935244765 A 135.33704342269863,135.33704342269863 0 0 0 846.828564499124,436.4850897703629 Z "/><path class="wedge" fill="url(#hiddenPattern)" d=" M 846.828564499124,436.4850897703629 L 1035.599693743564,434.3719267747235 A 324.12,324.12 0 0,1 1035.6199858286673,437.9041541624036 L 846.8370375054263,437.95997935244765 A 135.33704342269863,135.33704342269863 0 0 0 846.828564499124,436.4850897703629 Z "/><path class="wedge" fill="rgb(161,208,114)" d=" M 792.5299964571668,437.976038540601 L 1035.6199858286673,437.90415416240387 A 324.12,324.12 0 0,1 712.3248659364313,762.1189503811631 L 711.7062164841078,519.0297375952908 A 81.03,81.03 0 0 0 792.5299964571668,437.976038540601 Z "/><path class="wedge" fill="rgb(170,212,127)" d=" M 846.8370375054263,437.95997935244776 L 1035.6199858286673,437.90415416240387 A 324.12,324.12 0 0,1 712.3248659364313,762.1189503811631 L 711.8444246484534,573.3366051519653 A 135.33704342269863,135.33704342269863 0 0 0 846.8370375054263,437.95997935244776 Z "/><path class="wedge" fill="rgb(178,216,140)" d=" M 891.3596136976773,437.9468135379542 L 1035.6199858286673,437.90415416240387 A 324.12,324.12 0 0,1 712.3248659364313,762.1189503811631 L 711.9577319362136,617.859039110499 A 179.85962156158743,179.85962156158743 0 0 0 891.3596136976773,437.9468135379542 Z "/><path class="wedge" fill="rgb(187,221,153)" d=" M 928.5178582754796,437.9358254371555 L 1035.6199858286673,437.90415416240387 A 324.12,324.12 0 0,1 774.343612200049,755.9692670772599 L 753.5775846052231,650.89958149945 A 217.01786776404077,217.01786776404077 0 0 0 928.5178582754796,437.9358254371555 Z "/><path class="wedge" fill="rgb(195,225,165)" d=" M 959.9960291287598,437.9265169965059 L 1035.6199858286673,437.90415416240387 A 324.12,324.12 0 0,1 819.7016352210037,743.5260717770267 L 794.4559356820132,672.240463258667 A 248.4960399936249,248.4960399936249 0 0 0 959.9960291287598,437.9265169965059 Z "/><path class="wedge" fill="rgb(172,225,165)" d=" M 794.4559356820132,672.240463258667 L 819.7016352210037,743.5260717770267 A 324.12,324.12 0 0,1 774.343612200049,755.9692670772599 L 759.6808860008862,681.7804014203825 A 248.4960399936249,248.4960399936249 0 0 0 794.4559356820132,672.240463258667 Z "/><path class="wedge" fill="rgb(157,221,153)" d=" M 753.5775846052231,650.89958149945 L 774.343612200049,755.9692670772599 A 324.12,324.12 0 0,1 712.3248659364313,762.1189503811631 L 712.0522974414275,655.0171649809915 A 217.01786776404077,217.01786776404077 0 0 0 753.5775846052231,650.89958149945 Z "/><path class="wedge" fill="rgb(169,225,165)" d=" M 759.6808860008862,681.7804014203825 L 774.343612200049,755.9692670772599 A 324.12,324.12 0 0,1 727.2633404671358,761.7364537665123 L 723.5854241736224,686.2019831005724 A 248.4960399936249,248.4960399936249 0 0 0 759.6808860008862,681.7804014203825 Z "/><path class="wedge" fill="rgb(167,225,165)" d=" M 723.5854241736224,686.2019831005724 L 727.2633404671358,761.7364537665123 A 324.12,324.12 0 0,1 712.3248659364313,762.1189503811631 L 712.1324074994718,686.495235272767 A 248.4960399936249,248.4960399936249 0 0 0 723.5854241736224,686.2019831005724 Z "/><path class="wedge" fill="url(#hiddenPattern)" d=" M 723.5854241736224,686.2019831005724 L 727.2633404671358,761.7364537665123 A 324.12,324.12 0 0,1 712.3248659364313,762.1189503811631 L 712.1324074994718,686.495235272767 A 248.4960399936249,248.4960399936249 0 0 0 723.5854241736224,686.2019831005724 Z "/><path class="wedge" fill="rgb(101,204,204)" d=" M 711.7062164841078,519.0297375952908 L 712.3248659364313,762.1189503811631 A 324.12,324.12 0 0,1 711.6100564186847,762.119981314921 L 711.5275141046712,519.0299953287303 A 81.03,81.03 0 0 0 711.7062164841078,519.0297375952908 Z "/><path class="wedge" fill="url(#hiddenPattern)" d=" M 711.7062164841078,519.0297375952908 L 712.3248659364313,762.1189503811631 A 324.12,324.12 0 0,1 711.6100564186847,762.119981314921 L 711.5275141046712,519.0299953287303 A 81.03,81.03 0 0 0 711.7062164841078,519.0297375952908 Z "/><path class="wedge" fill="rgb(152,101,204)" d=" M 711.5275141046712,519.0299953287303 L 711.6100564186847,762.119981314921 A 324.12,324.12 0 0,1 711.5000000000001,762.12 L 711.5,519.03 A 81.03,81.03 0 0 0 711.5275141046712,519.0299953287303 Z "/><path class="wedge" fill="url(#hiddenPattern)" d=" M 711.5275141046712,519.0299953287303 L 711.6100564186847,762.119981314921 A 324.12,324.12 0 0,1 711.5000000000001,762.12 L 711.5,519.03 A 81.03,81.03 0 0 0 711.5275141046712,519.0299953287303 Z "/><circle cx="711.5" cy="438" r="81.03"/><circle cx="711.5" cy="438" r="324.12"/><text x="711.5" y="438" text-anchor="middle" style="font-color:black;font-weight:bold" transform="rotate(360,711.5,438)">all</text><path class="line" d=" M 792.5299964571668,437.976038540601 A 81.03,81.03 0 1 0 711.5,519.03"/><line x1="1035.6199858286673" y1="437.90415416240387" x2="792.5299964571668" y2="437.976038540601"/><text x="711.5" y="340.6778869731904" text-anchor="middle" style="font-color:black;font-weight:normal" transform="rotate(314.99152850478504,711.5,438)">Bacteria</text><path class="line" d=" M 664.328437921196,311.14985591871425 A 135.33704342269863,135.33704342269863 0 0 0 711.5,573.3370434226986"/><line x1="598.528367737952" y1="134.20535767718252" x2="664.328437921196" y2="311.14985591871425"/><text x="711.5" y="586.6938168643653" text-anchor="middle" style="font-color:black;font-weight:normal" transform="rotate(79.80071099985499,711.5,438)">Proteobacteria</text><path class="line" d=" M 536.9076697466567,394.791185100897 A 179.85962156158743,179.85962156158743 0 0 0 711.5,617.8596215615875"/><line x1="396.87203853541683" y1="360.1346016215111" x2="536.9076697466567" y2="394.791185100897"/><text x="711.5" y="629.0070954223235" text-anchor="middle" style="font-color:black;font-weight:normal" transform="rotate(51.95024450047634,711.5,438)">Alphaproteobacteria</text><path class="line" d=" M 499.6729134919267,390.81906793680395 A 217.01786776404077,217.01786776404077 0 0 0 711.5,655.0178677640408"/><line x1="395.1325230434642" y1="367.5344486706039" x2="499.6729134919267" y2="390.81906793680395"/><text x="711.5" y="670.7569538788329" text-anchor="middle" style="font-color:black;font-weight:normal" transform="rotate(51.27835284439731,711.5,438)">Alphaproteobacteria_noname</text><path class="line" d=" M 468.947657637685,383.9755323296235 A 248.4960399936249,248.4960399936249 0 0 0 711.5,686.4960399936249"/><text x="425.19198000318755" y="438" text-anchor="end" style="font-color:black;font-weight:normal" transform="rotate(-38.72164715560269,711.5,438)">Alphaproteobacteria_noname&#160;&#160;&#160;28%</text><path class="line" d=" M 500.8376239170967,385.8644245072897 A 217.01786776404077,217.01786776404077 0 0 0 499.6729134919267,390.81906793680395"/><path class="line" d=" M 644.9028527833942,270.924258341053 A 179.85962156158743,179.85962156158743 0 0 0 536.9076697466567,394.791185100897"/><line x1="591.4871412580784" y1="136.917472880621" x2="644.9028527833942" y2="270.924258341053"/><text x="711.5" y="232.12960609669523" text-anchor="middle" style="font-color:black;font-weight:normal" transform="rotate(311.08401953533325,711.5,438)">Gammaproteobacteria</text><path class="line" d=" M 597.8334395070102,253.13067329991117 A 217.01786776404077,217.01786776404077 0 0 0 500.8376239170967,385.8644245072897"/><line x1="541.7369940015952" y1="161.89441114967337" x2="597.8334395070102" y2="253.13067329991117"/><text x="711.5" y="205.24304612116714" text-anchor="middle" style="font-color:black;font-weight:normal" transform="rotate(306.15764356912854,711.5,438)">Alteromonadales</text><path class="line" d=" M 542.3295196252774,255.97903839859865 A 248.4960399936249,248.4960399936249 0 0 0 470.28130786370565,378.3022240232614"/><line x1="490.8464390802293" y1="200.5852143327525" x2="542.3295196252774" y2="255.97903839859865"/><text x="425.19198000318755" y="438" text-anchor="end" style="font-color:black;font-weight:normal" transform="rotate(30.498034838779112,711.5,438)">Alteromonadaceae&#160;&#160;&#160;9%</text><path class="line" d=" M 564.4331321331507,237.69618508788233 A 248.4960399936249,248.4960399936249 0 0 0 542.3295196252774,255.97903839859865"/><line x1="519.6767692787937" y1="176.73840206475262" x2="564.4331321331507" y2="237.69618508788233"/><text x="425.19198000318755" y="438" text-anchor="end" style="font-color:black;font-weight:normal" transform="rotate(50.4043788811355,711.5,438)">Pseudoalteromonadaceae&#160;&#160;&#160;2%</text><path class="line" d=" M 581.3382210457448,226.32054140286348 A 248.4960399936249,248.4960399936249 0 0 0 564.4331321331507,237.69618508788233"/><line x1="541.726526765837" y1="161.90084718346395" x2="581.3382210457448" y2="226.32054140286348"/><text x="425.19198000318755" y="438" text-anchor="end" style="font-color:black;font-weight:normal" transform="rotate(56.062901549763986,711.5,438)">Idiomarinaceae&#160;&#160;&#160;1%</text><path class="line" d=" M 581.3462460569617,226.31560703006878 A 248.4960399936249,248.4960399936249 0 0 0 581.3382210457448,226.32054140286348"/><path class="line" d=" M 620.713342840344,240.88445568493142 A 217.01786776404077,217.01786776404077 0 0 0 597.8334395070102,253.13067329991117"/><line x1="575.908531786969" y1="143.60446989155116" x2="620.713342840344" y2="240.88445568493142"/><text x="711.5" y="205.24304612116714" text-anchor="middle" style="font-color:black;font-weight:normal" transform="rotate(331.8425714102804,711.5,438)">Vibrionales</text><path class="line" d=" M 607.5448509568688,212.29309075720874 A 248.4960399936249,248.4960399936249 0 0 0 581.3462460569617,226.31560703006878"/><text x="425.19198000318755" y="438" text-anchor="end" style="font-color:black;font-weight:normal" transform="rotate(61.84257141028039,711.5,438)">Vibrionaceae&#160;&#160;&#160;2%</text><line x1="1025.12" y1="438" x2="1046.12" y2="438" class="tick" transform="rotate(246.76894737648516,711.5,438)"/><text x="373.38" y="438" text-anchor="end" style="font-color:black;font-weight:normal" transform="rotate(66.76894737648516,711.5,438)">4 more</text><path class="line" d=" M 631.1441604700764,236.40710830415708 A 217.01786776404077,217.01786776404077 0 0 0 620.713342840344,240.88445568493142"/><path class="line" d=" M 648.8101473964989,269.4192601486494 A 179.85962156158743,179.85962156158743 0 0 0 644.9028527833942,270.924258341053"/><path class="line" d=" M 830.0052830406404,372.63477060504476 A 135.33704342269863,135.33704342269863 0 0 0 664.328437921196,311.14985591871425"/><line x1="995.3094535519481" y1="281.4561771434445" x2="830.0052830406404" y2="372.63477060504476"/><text x="711.5" y="271.49715188007923" text-anchor="middle" style="font-color:black;font-weight:normal" transform="rotate(380.36057011589054,711.5,438)">Cyanobacteria</text><path class="line" d=" M 868.9906235698331,351.131208389534 A 179.85962156158743,179.85962156158743 0 0 0 648.8101473964989,269.4192601486494"/><text x="711.5" y="246.99290457767657" text-anchor="middle" style="font-color:black;font-weight:normal" transform="rotate(380.36057011589054,711.5,438)">Cyanobacteria_noname</text><path class="line" d=" M 887.5352709895561,311.08137135753384 A 217.01786776404077,217.01786776404077 0 0 0 635.8586858221246,234.591183774413"/><line x1="974.4117713716153" y1="248.44479729050036" x2="887.5352709895561" y2="311.08137135753384"/><text x="711.5" y="205.24304612116714" text-anchor="middle" style="font-color:black;font-weight:normal" transform="rotate(376.9052091648691,711.5,438)">Prochlorales</text><path class="line" d=" M 913.0689684485859,292.67198187862675 A 248.4960399936249,248.4960399936249 0 0 0 624.8870071308929,205.08698757096195"/><text x="997.8080199968124" y="438" text-anchor="start" style="font-color:black;font-weight:normal" transform="rotate(286.9052091648691,711.5,438)">21%&#160;&#160;&#160;Prochlorococcaceae</text><path class="line" d=" M 901.5275282645975,333.1844790572585 A 217.01786776404077,217.01786776404077 0 0 0 887.5352709895561,311.08137135753384"/><text x="711.5" y="205.24304612116714" text-anchor="middle" style="font-color:black;font-weight:normal" transform="rotate(417.6643572810498,711.5,438)">Ch...es</text><path class="line" d=" M 929.0907852659932,317.98111790288306 A 248.4960399936249,248.4960399936249 0 0 0 913.0689684485859,292.67198187862675"/><text x="997.8080199968124" y="438" text-anchor="start" style="font-color:black;font-weight:normal" transform="rotate(327.6643572810498,711.5,438)">2%&#160;&#160;&#160;Chroococcales_noname</text><path class="line" d=" M 844.7896398094538,414.54819320684436 A 135.33704342269863,135.33704342269863 0 0 0 830.0052830406404,372.63477060504476"/><line x1="1030.7166531975115" y1="381.8350400927796" x2="844.7896398094538" y2="414.54819320684436"/><text x="711.5" y="289.30618313563474" text-anchor="middle" style="font-color:black;font-weight:normal" transform="rotate(430.5704391910551,711.5,438)">Marinimicrobia</text><path class="line" d=" M 888.6386722209704,406.8331221956856 A 179.85962156158743,179.85962156158743 0 0 0 868.9906235698331,351.131208389534"/><text x="711.5" y="232.12960609669523" text-anchor="middle" style="font-color:black;font-weight:normal" transform="rotate(430.5704391910551,711.5,438)">Marinimicrobia_noname</text><path class="line" d=" M 925.234781660179,400.394175484025 A 217.01786776404077,217.01786776404077 0 0 0 901.5275282645975,333.1844790572585"/><text x="711.5" y="205.24304612116714" text-anchor="middle" style="font-color:black;font-weight:normal" transform="rotate(430.5704391910551,711.5,438)">Ma...me</text><path class="line" d=" M 956.2367463272859,394.93949733634156 A 248.4960399936249,248.4960399936249 0 0 0 929.0907852659932,317.98111790288306"/><text x="997.8080199968124" y="438" text-anchor="start" style="font-color:black;font-weight:normal" transform="rotate(340.5704391910551,711.5,438)">5%&#160;&#160;&#160;Marinimicrobia_noname</text><path class="line" d=" M 846.828564499124,436.4850897703629 A 135.33704342269863,135.33704342269863 0 0 0 844.7896398094538,414.54819320684436"/><line x1="1035.599693743564" y1="434.3719267747235" x2="846.828564499124" y2="436.4850897703629"/><text x="711.5" y="271.49715188007923" text-anchor="middle" style="font-color:black;font-weight:normal" transform="rotate(444.68990004170126,711.5,438)">Bacteroidetes</text><path class="line" d=" M 891.3483532794762,435.9867213461188 A 179.85962156158743,179.85962156158743 0 0 0 888.6386722209704,406.8331221956856"/><text x="711.5" y="246.99290457767657" text-anchor="middle" style="font-color:black;font-weight:normal" transform="rotate(444.68990004170126,711.5,438)">Flavo...eriia</text><path class="line" d=" M 928.5042715019342,435.5707863894813 A 217.01786776404077,217.01786776404077 0 0 0 925.234781660179,400.394175484025"/><text x="711.5" y="205.24304612116714" text-anchor="middle" style="font-color:black;font-weight:normal" transform="rotate(444.68990004170126,711.5,438)">Fla...les</text><path class="line" d=" M 959.9804716105833,435.2184319718372 A 248.4960399936249,248.4960399936249 0 0 0 956.2367463272859,394.93949733634156"/><text x="997.8080199968124" y="438" text-anchor="start" style="font-color:black;font-weight:normal" transform="rotate(354.68990004170126,711.5,438)">3%&#160;&#160;&#160;Flavobacteriaceae</text><path class="line" d=" M 846.8370375054263,437.95997935244765 A 135.33704342269863,135.33704342269863 0 0 0 846.828564499124,436.4850897703629"/><line x1="1035.6199858286673" y1="437.9041541624036" x2="846.8370375054263" y2="437.95997935244765"/><path class="line" d=" M 711.7062164841078,519.0297375952908 A 81.03,81.03 0 0 0 792.5299964571668,437.976038540601"/><line x1="712.3248659364313" y1="762.1189503811631" x2="711.7062164841078" y2="519.0297375952908"/><text x="711.5" y="557.0449303958891" text-anchor="middle" style="font-color:black;font-weight:normal" transform="rotate(314.9186212669747,711.5,438)">Viruses</text><path class="line" d=" M 711.8444246484534,573.3366051519653 A 135.33704342269863,135.33704342269863 0 0 0 846.8370375054263,437.95997935244776"/><text x="711.5" y="586.6938168643653" text-anchor="middle" style="font-color:black;font-weight:normal" transform="rotate(314.9186212669747,711.5,438)">Viruses_noname</text><path class="line" d=" M 711.9577319362136,617.859039110499 A 179.85962156158743,179.85962156158743 0 0 0 891.3596136976773,437.9468135379542"/><text x="711.5" y="643.8703939033048" text-anchor="middle" style="font-color:black;font-weight:normal" transform="rotate(314.9186212669747,711.5,438)">Viruses_noname</text><path class="line" d=" M 753.5775846052231,650.89958149945 A 217.01786776404077,217.01786776404077 0 0 0 928.5178582754796,437.9358254371555"/><line x1="774.343612200049" y1="755.9692670772599" x2="753.5775846052231" y2="650.89958149945"/><text x="711.5" y="670.7569538788329" text-anchor="middle" style="font-color:black;font-weight:normal" transform="rotate(309.4015859304173,711.5,438)">Caudovirales</text><path class="line" d=" M 794.4559356820132,672.240463258667 A 248.4960399936249,248.4960399936249 0 0 0 959.9960291287598,437.9265169965059"/><line x1="819.7016352210037" y1="743.5260717770267" x2="794.4559356820132" y2="672.240463258667"/><text x="997.8080199968124" y="438" text-anchor="start" style="font-color:black;font-weight:normal" transform="rotate(395.2407637541392,711.5,438)">20%&#160;&#160;&#160;Myoviridae</text><path class="line" d=" M 759.6808860008862,681.7804014203825 A 248.4960399936249,248.4960399936249 0 0 0 794.4559356820132,672.240463258667"/><text x="997.8080199968124" y="438" text-anchor="start" style="font-color:black;font-weight:normal" transform="rotate(434.6592926749865,711.5,438)">2%&#160;&#160;&#160;Podoviridae</text><path class="line" d=" M 712.0522974414275,655.0171649809915 A 217.01786776404077,217.01786776404077 0 0 0 753.5775846052231,650.89958149945"/><text x="711.5" y="670.7569538788329" text-anchor="middle" style="font-color:black;font-weight:normal" transform="rotate(354.337150187822,711.5,438)">Viruses_noname</text><path class="line" d=" M 723.5854241736224,686.2019831005724 A 248.4960399936249,248.4960399936249 0 0 0 759.6808860008862,681.7804014203825"/><line x1="727.2633404671358" y1="761.7364537665123" x2="723.5854241736224" y2="686.2019831005724"/><text x="997.8080199968124" y="438" text-anchor="start" style="font-color:black;font-weight:normal" transform="rotate(443.016238309307,711.5,438)">2%&#160;&#160;&#160;Viruses_noname</text><path class="line" d=" M 712.1324074994718,686.495235272767 A 248.4960399936249,248.4960399936249 0 0 0 723.5854241736224,686.2019831005724"/><path class="line" d=" M 711.5275141046712,519.0299953287303 A 81.03,81.03 0 0 0 711.7062164841078,519.0297375952908"/><line x1="711.6100564186847" y1="762.119981314921" x2="711.5275141046712" y2="519.0299953287303"/><path class="line" d=" M 711.5,519.03 A 81.03,81.03 0 0 0 711.5275141046712,519.0299953287303"/><line x1="711.5000000000001" y1="762.12" x2="711.5" y2="519.03"/></svg>