<?xml version="1.0" standalone="no"?><!DOCTYPE svg PUBLIC "-//W3C//DTD SVG 1.1//EN" 	"http://www.w3.org/Graphics/SVG/1.1/DTD/svg11.dtd"><svg width="1473" height="933" version="1.1"	xmlns="http://www.w3.org/2000/svg"><title>Krona (snapshot) - all</title><defs>	<style type="text/css">	text {font-size: 20px; font-family: sans-serif; dominant-baseline:central}	path {stroke-width:0.5;}	path.wedge {stroke:none}	path.line {fill:none;stroke:black;}	line {stroke:black;stroke-width:0.5;}	line.tick {stroke-width:1;}	line.pattern {stroke-width:0.3333333333333333;}	circle {fill:none;stroke:black;stroke-width:0.5;}	rect {stroke:black;stroke-width:0.5;}	.highlight {stroke:black;stroke-width:2.5;}	.searchHighlight {fill:rgb(255, 255, 100);stroke:none;}	</style><pattern id="hiddenPattern" patternUnits="userSpaceOnUse" x="0" y="0" width="12" height="12"><line class="pattern" x1="0" y1="0" x2="6" y2="6"/><line class="pattern" x1="6" y1="12" x2="12" y2="6"/></pattern></defs><path class="wedge" fill="rgb(208,114,114)" d=" M 661.5,552.8025 L 661.5,811.71 A 345.21,345.21 0 1,1 823.2863855235835,771.4509953405865 L 701.9465963808959,542.7377488351466 A 86.3025,86.3025 0 1 0 661.5,552.8025 Z "/><path class="wedge" fill="rgb(212,127,127)" d=" M 661.5,610.6432209056825 L 661.5,811.71 A 345.21,345.21 0 0,1 584.041702075062,130.09227686842337 L 629.1571114719374,326.0321898272573 A 144.14322090568243,144.14322090568243 0 0 0 661.5,610.6432209056825 Z "/><path class="wedge" fill="rgb(216,140,140)" d=" M 661.5,658.0628161152523 L 661.5,811.71 A 345.21,345.21 0 0,1 349.81753245629204,318.0952038313268 L 488.54217370173683,384.14769074163246 A 191.56281611525233,191.56281611525233 0 0 0 661.5,658.0628161152523 Z "/><path class="wedge" fill="rgb(221,153,153)" d=" M 661.5,697.6388934062215 L 661.5,811.71 A 345.21,345.21 0 0,1 318.7957732779942,508.0181537025917 L 432.0388727726332,494.2989053129587 A 231.1388934062215,231.1388934062215 0 0 0 661.5,697.6388934062215 Z "/><path class="wedge" fill="rgb(225,165,165)" d=" M 661.5,731.1653028699224 L 661.5,811.71 A 345.21,345.21 0 0,1 319.2639035254367,511.7150237183769 L 399.11472690113186,501.16541510006937 A 264.66530286992236,264.66530286992236 0 0 0 661.5,731.1653028699224 Z "/><path class="wedge" fill="rgb(225,172,165)" d=" M 399.11472690113186,501.16541510006937 L 319.2639035254367,511.7150237183769 A 345.21,345.21 0 0,1 318.7957732779942,508.0181537025917 L 398.75582120974997,498.3311020083324 A 264.66530286992236,264.66530286992236 0 0 0 399.11472690113186,501.16541510006937 Z "/><path class="wedge" fill="url(#hiddenPattern)" d=" M 399.11472690113186,501.16541510006937 L 319.2639035254367,511.7150237183769 A 345.21,345.21 0 0,1 318.7957732779942,508.0181537025917 L 398.75582120974997,498.3311020083324 A 264.66530286992236,264.66530286992236 0 0 0 399.11472690113186,501.16541510006937 Z "/><path class="wedge" fill="rgb(221,161,153)" d=" M 432.0388727726332,494.2989053129587 L 318.7957732779942,508.0181537025917 A 345.21,345.21 0 0,1 320.2948279485096,414.06933468557935 L 433.04258019043215,431.3945106997852 A 231.1388934062215,231.1388934062215 0 0 0 432.0388727726332,494.2989053129587 Z "/><path class="wedge" fill="rgb(225,173,165)" d=" M 398.75582120974997,498.3311020083324 L 318.7957732779942,508.0181537025917 A 345.21,345.21 0 0,1 320.2948279485096,414.06933468557935 L 399.9051151421115,426.3025030702683 A 264.66530286992236,264.66530286992236 0 0 0 398.75582120974997,498.3311020083324 Z "/><path class="wedge" fill="rgb(221,162,153)" d=" M 433.04258019043215,431.3945106997852 L 320.2948279485096,414.06933468557935 A 345.21,345.21 0 0,1 334.81664122915913,354.9297207935641 L 442.7658091002004,391.7969761223639 A 231.1388934062215,231.1388934062215 0 0 0 433.04258019043215,431.3945106997852 Z "/><path class="wedge" fill="rgb(225,174,165)" d=" M 399.9051151421115,426.3025030702683 L 320.2948279485096,414.06933468557935 A 345.21,345.21 0 0,1 331.373314616686,365.5727207449522 L 408.39875967550654,389.1211612297603 A 264.66530286992236,264.66530286992236 0 0 0 399.9051151421115,426.3025030702683 Z "/><path class="wedge" fill="rgb(225,175,165)" d=" M 408.39875967550654,389.1211612297603 L 331.373314616686,365.5727207449522 A 345.21,345.21 0 0,1 334.81664122915913,354.9297207935641 L 411.0386863310793,380.9613952740269 A 264.66530286992236,264.66530286992236 0 0 0 408.39875967550654,389.1211612297603 Z "/><path class="wedge" fill="url(#hiddenPattern)" d=" M 408.39875967550654,389.1211612297603 L 331.373314616686,365.5727207449522 A 345.21,345.21 0 0,1 334.81664122915913,354.9297207935641 L 411.0386863310793,380.9613952740269 A 264.66530286992236,264.66530286992236 0 0 0 408.39875967550654,389.1211612297603 Z "/><path class="wedge" fill="rgb(216,153,140)" d=" M 442.7658091002004,391.7969761223639 L 334.81664122915913,354.9297207935641 A 345.21,345.21 0 0,1 349.81753245629204,318.0952038313268 L 452.80980955889686,367.13404778945284 A 231.1388934062215,231.1388934062215 0 0 0 442.7658091002004,391.7969761223639 Z "/><path class="wedge" fill="url(#hiddenPattern)" d=" M 442.7658091002004,391.7969761223639 L 334.81664122915913,354.9297207935641 A 345.21,345.21 0 0,1 349.81753245629204,318.0952038313268 L 452.80980955889686,367.13404778945284 A 231.1388934062215,231.1388934062215 0 0 0 442.7658091002004,391.7969761223639 Z "/><path class="wedge" fill="rgb(216,153,140)" d=" M 488.54217370173683,384.14769074163246 L 349.81753245629204,318.0952038313268 A 345.21,345.21 0 0,1 552.4425773682049,138.96920348017653 L 600.9822079383044,284.74767027082333 A 191.56281611525233,191.56281611525233 0 0 0 488.54217370173683,384.14769074163246 Z "/><path class="wedge" fill="rgb(221,164,153)" d=" M 452.80980955889686,367.13404778945284 L 349.81753245629204,318.0952038313268 A 345.21,345.21 0 0,1 417.57369462091776,222.22576549273413 L 498.17664233947704,302.9436828259283 A 231.1388934062215,231.1388934062215 0 0 0 452.80980955889686,367.13404778945284 Z "/><path class="wedge" fill="rgb(221,164,153)" d=" M 474.48679212335674,279.22004212165376 L 417.5736946209176,222.22576549273435 A 345.21,345.21 0 0,1 417.57369462091776,222.22576549273413 L 474.48679212335685,279.2200421216536 A 264.66530286992236,264.66530286992236 0 0 0 474.48679212335674,279.22004212165376 Z "/><path class="wedge" fill="rgb(225,175,165)" d=" M 422.5395565838179,352.7211398124881 L 349.81753245629204,318.0952038313268 A 345.21,345.21 0 0,1 396.09759883727185,245.74785492082233 L 458.02151766710676,297.25393720759655 A 264.66530286992236,264.66530286992236 0 0 0 422.5395565838179,352.7211398124881 Z "/><path class="wedge" fill="rgb(225,177,165)" d=" M 458.02151766710676,297.25393720759655 L 396.09759883727185,245.74785492082233 A 345.21,345.21 0 0,1 417.5736946209176,222.22576549273435 L 474.48679212335674,279.22004212165376 A 264.66530286992236,264.66530286992236 0 0 0 458.02151766710676,297.25393720759655 Z "/><path class="wedge" fill="url(#hiddenPattern)" d=" M 458.02151766710676,297.25393720759655 L 396.09759883727185,245.74785492082233 A 345.21,345.21 0 0,1 417.5736946209176,222.22576549273435 L 474.48679212335674,279.22004212165376 A 264.66530286992236,264.66530286992236 0 0 0 458.02151766710676,297.25393720759655 Z "/><path class="wedge" fill="rgb(221,166,153)" d=" M 498.17664233947704,302.9436828259283 L 417.57369462091776,222.22576549273413 A 345.21,345.21 0 0,1 504.5632154349021,159.0251396449329 L 556.4213675180113,260.62705607397606 A 231.1388934062215,231.1388934062215 0 0 0 498.17664233947704,302.9436828259283 Z "/><path class="wedge" fill="rgb(225,177,165)" d=" M 474.48679212335685,279.2200421216536 L 417.57369462091776,222.22576549273413 A 345.21,345.21 0 0,1 504.5632154349021,159.0251396449329 L 541.1798423615961,230.7654412074942 A 264.66530286992236,264.66530286992236 0 0 0 474.48679212335685,279.2200421216536 Z "/><path class="wedge" fill="rgb(216,158,140)" d=" M 556.4213675180113,260.62705607397606 L 504.5632154349021,159.0251396449329 A 345.21,345.21 0 0,1 552.4425773682055,138.96920348017636 L 588.4794849950824,247.19839847035036 A 231.1388934062215,231.1388934062215 0 0 0 556.4213675180113,260.62705607397606 Z "/><path class="wedge" fill="url(#hiddenPattern)" d=" M 556.4213675180113,260.62705607397606 L 504.5632154349021,159.0251396449329 A 345.21,345.21 0 0,1 552.4425773682055,138.96920348017636 L 588.4794849950824,247.19839847035036 A 231.1388934062215,231.1388934062215 0 0 0 556.4213675180113,260.62705607397606 Z "/><path class="wedge" fill="rgb(212,148,127)" d=" M 600.9822079383044,284.74767027082333 L 552.4425773682049,138.96920348017653 A 345.21,345.21 0 0,1 584.041702075062,130.09227686842337 L 618.5170919672219,279.8217148807829 A 191.56281611525233,191.56281611525233 0 0 0 600.9822079383044,284.74767027082333 Z "/><path class="wedge" fill="url(#hiddenPattern)" d=" M 600.9822079383044,284.74767027082333 L 552.4425773682049,138.96920348017653 A 345.21,345.21 0 0,1 584.041702075062,130.09227686842337 L 618.5170919672219,279.8217148807829 A 191.56281611525233,191.56281611525233 0 0 0 600.9822079383044,284.74767027082333 Z "/><path class="wedge" fill="rgb(212,148,127)" d=" M 629.1571114719374,326.0321898272573 L 584.041702075062,130.09227686842337 A 345.21,345.21 0 0,1 1006.5865467267365,457.2685662968387 L 805.5916727105562,462.64539385431783 A 144.14322090568243,144.14322090568243 0 0 0 629.1571114719374,326.0321898272573 Z "/><path class="wedge" fill="rgb(216,159,140)" d=" M 618.5170919672219,279.8217148807829 L 584.041702075062,130.09227686842337 A 345.21,345.21 0 0,1 1006.5865467267365,457.2685662968387 L 852.9943098243425,461.3773226819651 A 191.56281611525233,191.56281611525233 0 0 0 618.5170919672219,279.8217148807829 Z "/><path class="wedge" fill="rgb(221,170,153)" d=" M 609.6370027881591,241.25476128171496 L 584.041702075062,130.09227686842337 A 345.21,345.21 0 0,1 1006.5844439224063,457.19029201512734 L 892.5548260476994,460.26658960760545 A 231.1388934062215,231.1388934062215 0 0 0 609.6370027881591,241.25476128171496 Z "/><path class="wedge" fill="rgb(225,180,165)" d=" M 602.1143394452872,208.58321911184578 L 584.041702075062,130.09227686842337 A 345.21,345.21 0 0,1 989.1878515530814,357.91539683488395 L 912.7314373224716,383.2504507873301 A 264.66530286992236,264.66530286992236 0 0 0 602.1143394452872,208.58321911184578 Z "/><path class="wedge" fill="rgb(225,188,165)" d=" M 912.7314373224716,383.2504507873301 L 989.1878515530814,357.91539683488395 A 345.21,345.21 0 0,1 1006.5844439224063,457.19029201512734 L 926.0690416454402,459.36244117074574 A 264.66530286992236,264.66530286992236 0 0 0 912.7314373224716,383.2504507873301 Z "/><path class="wedge" fill="rgb(216,170,140)" d=" M 892.5548260476994,460.26658960760545 L 1006.5844439224063,457.19029201512734 A 345.21,345.21 0 0,1 1006.5865467267365,457.2685662968387 L 892.5562340018894,460.31899895512413 A 231.1388934062215,231.1388934062215 0 0 0 892.5548260476994,460.26658960760545 Z "/><path class="wedge" fill="url(#hiddenPattern)" d=" M 892.5548260476994,460.26658960760545 L 1006.5844439224063,457.19029201512734 A 345.21,345.21 0 0,1 1006.5865467267365,457.2685662968387 L 892.5562340018894,460.31899895512413 A 231.1388934062215,231.1388934062215 0 0 0 892.5548260476994,460.26658960760545 Z "/><path class="wedge" fill="rgb(212,161,127)" d=" M 805.5916727105562,462.64539385431783 L 1006.5865467267365,457.2685662968387 A 345.21,345.21 0 0,1 979.5744304888717,600.6588639232605 L 794.3127021187294,522.518338863144 A 144.14322090568243,144.14322090568243 0 0 0 805.5916727105562,462.64539385431783 Z "/><path class="wedge" fill="rgb(216,171,140)" d=" M 852.9943098243425,461.3773226819651 L 1006.5865467267365,457.2685662968387 A 345.21,345.21 0 0,1 997.8107453265297,544.3782811694898 L 848.1244705094564,509.71596377579704 A 191.56281611525233,191.56281611525233 0 0 0 852.9943098243425,461.3773226819651 Z "/><path class="wedge" fill="rgb(216,171,140)" d=" M 886.6803062350327,518.6442012974549 L 997.8107453265297,544.3782811694895 A 345.21,345.21 0 0,1 997.8107453265297,544.3782811694898 L 886.6803062350327,518.644201297455 A 231.1388934062215,231.1388934062215 0 0 0 886.6803062350327,518.6442012974549 Z "/><path class="wedge" fill="rgb(221,180,153)" d=" M 892.5562340018894,460.31899895512413 L 1006.5865467267365,457.2685662968387 A 345.21,345.21 0 0,1 999.0288474275163,538.9169956174129 L 887.4958989805438,514.9875415857363 A 231.1388934062215,231.1388934062215 0 0 0 892.5562340018894,460.31899895512413 Z "/><path class="wedge" fill="rgb(225,189,165)" d=" M 926.070653821637,459.4224524290409 L 1006.5865467267365,457.2685662968387 A 345.21,345.21 0 0,1 999.0288474275163,538.9169956174129 L 920.2763234892948,522.0205992816327 A 264.66530286992236,264.66530286992236 0 0 0 926.070653821637,459.4224524290409 Z "/><path class="wedge" fill="rgb(216,172,140)" d=" M 887.4958989805438,514.9875415857363 L 999.0288474275163,538.9169956174129 A 345.21,345.21 0 0,1 997.8107453265297,544.3782811694895 L 886.6803062350327,518.6442012974549 A 231.1388934062215,231.1388934062215 0 0 0 887.4958989805438,514.9875415857363 Z "/><path class="wedge" fill="url(#hiddenPattern)" d=" M 887.4958989805438,514.9875415857363 L 999.0288474275163,538.9169956174129 A 345.21,345.21 0 0,1 997.8107453265297,544.3782811694895 L 886.6803062350327,518.6442012974549 A 231.1388934062215,231.1388934062215 0 0 0 887.4958989805438,514.9875415857363 Z "/><path class="wedge" fill="rgb(216,172,140)" d=" M 848.1244705094564,509.71596377579704 L 997.8107453265297,544.3782811694898 A 345.21,345.21 0 0,1 979.7310702799241,600.2868827968348 L 838.0917557376467,540.7405840730073 A 191.56281611525233,191.56281611525233 0 0 0 848.1244705094564,509.71596377579704 Z "/><path class="wedge" fill="rgb(216,172,140)" d=" M 874.5748745169004,556.0783784998354 L 979.7310702799242,600.2868827968344 A 345.21,345.21 0 0,1 979.7310702799241,600.2868827968348 L 874.5748745169003,556.0783784998356 A 231.1388934062215,231.1388934062215 0 0 0 874.5748745169004,556.0783784998354 Z "/><path class="wedge" fill="rgb(221,181,153)" d=" M 886.6803062350327,518.644201297455 L 997.8107453265297,544.3782811694898 A 345.21,345.21 0 0,1 980.7329756275797,597.8782758752795 L 875.2457105105126,554.46567105075 A 231.1388934062215,231.1388934062215 0 0 0 886.6803062350327,518.644201297455 Z "/><path class="wedge" fill="rgb(225,191,165)" d=" M 919.3424300288384,526.2076529437501 L 997.8107453265297,544.3782811694898 A 345.21,345.21 0 0,1 989.8254235156328,573.141269559586 L 913.2202504407767,548.2596358924159 A 264.66530286992236,264.66530286992236 0 0 0 919.3424300288384,526.2076529437501 Z "/><path class="wedge" fill="rgb(225,191,165)" d=" M 913.2202504407767,548.2596358924159 L 989.8254235156328,573.141269559586 A 345.21,345.21 0 0,1 980.7329756275797,597.8782758752795 L 906.2492603937891,567.2249824021874 A 264.66530286992236,264.66530286992236 0 0 0 913.2202504407767,548.2596358924159 Z "/><path class="wedge" fill="url(#hiddenPattern)" d=" M 913.2202504407767,548.2596358924159 L 989.8254235156328,573.141269559586 A 345.21,345.21 0 0,1 980.7329756275797,597.8782758752795 L 906.2492603937891,567.2249824021874 A 264.66530286992236,264.66530286992236 0 0 0 913.2202504407767,548.2596358924159 Z "/><path class="wedge" fill="rgb(216,173,140)" d=" M 875.2457105105126,554.46567105075 L 980.7329756275797,597.8782758752795 A 345.21,345.21 0 0,1 979.7310702799242,600.2868827968344 L 874.5748745169004,556.0783784998354 A 231.1388934062215,231.1388934062215 0 0 0 875.2457105105126,554.46567105075 Z "/><path class="wedge" fill="url(#hiddenPattern)" d=" M 875.2457105105126,554.46567105075 L 980.7329756275797,597.8782758752795 A 345.21,345.21 0 0,1 979.7310702799242,600.2868827968344 L 874.5748745169004,556.0783784998354 A 231.1388934062215,231.1388934062215 0 0 0 875.2457105105126,554.46567105075 Z "/><path class="wedge" fill="rgb(212,164,127)" d=" M 838.0917557376467,540.7405840730073 L 979.7310702799241,600.2868827968348 A 345.21,345.21 0 0,1 979.5744304888716,600.6588639232607 L 838.0048336916756,540.9470026359687 A 191.56281611525233,191.56281611525233 0 0 0 838.0917557376467,540.7405840730073 Z "/><path class="wedge" fill="url(#hiddenPattern)" d=" M 838.0917557376467,540.7405840730073 L 979.7310702799241,600.2868827968348 A 345.21,345.21 0 0,1 979.5744304888716,600.6588639232607 L 838.0048336916756,540.9470026359687 A 191.56281611525233,191.56281611525233 0 0 0 838.0917557376467,540.7405840730073 Z "/><path class="wedge" fill="rgb(212,164,127)" d=" M 794.3127021187294,522.518338863144 L 979.5744304888717,600.6588639232605 A 345.21,345.21 0 0,1 939.0230085738251,671.8069015209487 L 777.3803636373989,552.2263638347537 A 144.14322090568243,144.14322090568243 0 0 0 794.3127021187294,522.518338863144 Z "/><path class="wedge" fill="rgb(216,173,140)" d=" M 838.0048336916757,540.9470026359686 L 979.5744304888717,600.6588639232605 A 345.21,345.21 0 0,1 947.5780497584509,659.707902391184 L 820.2495056356656,573.7143039824339 A 191.56281611525233,191.56281611525233 0 0 0 838.0048336916757,540.9470026359686 Z "/><path class="wedge" fill="rgb(221,182,153)" d=" M 874.4699947394686,556.3274422753057 L 979.5744304888717,600.6588639232605 A 345.21,345.21 0 0,1 947.5780497584509,659.707902391184 L 853.0464901045112,595.8643311492585 A 231.1388934062215,231.1388934062215 0 0 0 874.4699947394686,556.3274422753057 Z "/><path class="wedge" fill="rgb(225,191,165)" d=" M 905.3610280134275,569.3568012309447 L 979.5744304888717,600.6588639232605 A 345.21,345.21 0 0,1 960.5763693848783,638.9043774837515 L 890.7956110323732,598.6788383385115 A 264.66530286992236,264.66530286992236 0 0 0 905.3610280134275,569.3568012309447 Z "/><path class="wedge" fill="rgb(225,192,165)" d=" M 890.7956110323732,598.6788383385115 L 960.5763693848783,638.9043774837515 A 345.21,345.21 0 0,1 947.5780497584509,659.707902391184 L 880.8300706345619,614.6284667397384 A 264.66530286992236,264.66530286992236 0 0 0 890.7956110323732,598.6788383385115 Z "/><path class="wedge" fill="url(#hiddenPattern)" d=" M 890.7956110323732,598.6788383385115 L 960.5763693848783,638.9043774837515 A 345.21,345.21 0 0,1 947.5780497584509,659.707902391184 L 880.8300706345619,614.6284667397384 A 264.66530286992236,264.66530286992236 0 0 0 890.7956110323732,598.6788383385115 Z "/><path class="wedge" fill="rgb(212,166,127)" d=" M 820.2495056356656,573.7143039824339 L 947.5780497584509,659.707902391184 A 345.21,345.21 0 0,1 939.023008573825,671.8069015209489 L 815.5021698652392,580.4282414276811 A 191.56281611525233,191.56281611525233 0 0 0 820.2495056356656,573.7143039824339 Z "/><path class="wedge" fill="url(#hiddenPattern)" d=" M 820.2495056356656,573.7143039824339 L 947.5780497584509,659.707902391184 A 345.21,345.21 0 0,1 939.023008573825,671.8069015209489 L 815.5021698652392,580.4282414276811 A 191.56281611525233,191.56281611525233 0 0 0 820.2495056356656,573.7143039824339 Z "/><path class="wedge" fill="rgb(212,166,127)" d=" M 777.3803636373989,552.2263638347537 L 939.0230085738251,671.8069015209487 A 345.21,345.21 0 0,1 908.1522571338177,708.0214444946723 L 764.4902111379307,567.3478286470701 A 144.14322090568243,144.14322090568243 0 0 0 777.3803636373989,552.2263638347537 Z "/><path class="wedge" fill="rgb(216,175,140)" d=" M 815.5021698652394,580.4282414276809 L 939.0230085738251,671.8069015209487 A 345.21,345.21 0 0,1 920.3384003558955,694.9132802645265 L 805.1337675355362,593.2503583488169 A 191.56281611525233,191.56281611525233 0 0 0 815.5021698652394,580.4282414276809 Z "/><path class="wedge" fill="rgb(216,175,140)" d=" M 847.3183746024717,603.9653400139399 L 939.0230085738251,671.8069015209487 A 345.21,345.21 0 0,1 920.3384003558955,694.9132802645265 L 834.807903679784,619.4364527088665 A 231.1388934062215,231.1388934062215 0 0 0 847.3183746024717,603.9653400139399 Z "/><path class="wedge" fill="url(#hiddenPattern)" d=" M 847.3183746024717,603.9653400139399 L 939.0230085738251,671.8069015209487 A 345.21,345.21 0 0,1 920.3384003558955,694.9132802645265 L 834.807903679784,619.4364527088665 A 231.1388934062215,231.1388934062215 0 0 0 847.3183746024717,603.9653400139399 Z "/><path class="wedge" fill="rgb(212,167,127)" d=" M 805.1337675355362,593.2503583488169 L 920.3384003558955,694.9132802645265 A 345.21,345.21 0 0,1 908.1522571338177,708.0214444946723 L 798.3714723725774,600.5242984259525 A 191.56281611525233,191.56281611525233 0 0 0 805.1337675355362,593.2503583488169 Z "/><path class="wedge" fill="url(#hiddenPattern)" d=" M 805.1337675355362,593.2503583488169 L 920.3384003558955,694.9132802645265 A 345.21,345.21 0 0,1 908.1522571338177,708.0214444946723 L 798.3714723725774,600.5242984259525 A 191.56281611525233,191.56281611525233 0 0 0 805.1337675355362,593.2503583488169 Z "/><path class="wedge" fill="rgb(208,159,114)" d=" M 764.4902111379307,567.3478286470701 L 908.1522571338177,708.0214444946723 A 345.21,345.21 0 0,1 882.6645431236552,731.5588405711169 L 753.84775816453,577.1759219299747 A 144.14322090568243,144.14322090568243 0 0 0 764.4902111379307,567.3478286470701 Z "/><path class="wedge" fill="url(#hiddenPattern)" d=" M 764.4902111379307,567.3478286470701 L 908.1522571338177,708.0214444946723 A 345.21,345.21 0 0,1 882.6645431236552,731.5588405711169 L 753.84775816453,577.1759219299747 A 144.14322090568243,144.14322090568243 0 0 0 764.4902111379307,567.3478286470701 Z "/><path class="wedge" fill="rgb(208,161,114)" d=" M 753.84775816453,577.1759219299747 L 882.6645431236552,731.5588405711169 A 345.21,345.21 0 0,1 823.2863855235815,771.4509953405875 L 729.0542733642059,593.832981914736 A 144.14322090568243,144.14322090568243 0 0 0 753.84775816453,577.1759219299747 Z "/><path class="wedge" fill="url(#hiddenPattern)" d=" M 753.84775816453,577.1759219299747 L 882.6645431236552,731.5588405711169 A 345.21,345.21 0 0,1 823.2863855235815,771.4509953405875 L 729.0542733642059,593.832981914736 A 144.14322090568243,144.14322090568243 0 0 0 753.84775816453,577.1759219299747 Z "/><path class="wedge" fill="rgb(161,208,114)" d=" M 701.9465963808959,542.7377488351466 L 823.2863855235835,771.4509953405865 A 345.21,345.21 0 0,1 720.1901441864193,806.6843780589834 L 676.1725360466048,551.5460945147458 A 86.3025,86.3025 0 0 0 701.9465963808959,542.7377488351466 Z "/><path class="wedge" fill="rgb(170,212,127)" d=" M 729.0542733642067,593.8329819147357 L 823.2863855235835,771.4509953405865 A 345.21,345.21 0 0,1 732.4568483381067,804.3388221828908 L 691.1281934612865,607.5653688375887 A 144.14322090568243,144.14322090568243 0 0 0 729.0542733642067,593.8329819147357 Z "/><path class="wedge" fill="rgb(178,216,140)" d=" M 751.2779775209453,635.7224195260623 L 823.2863855235835,771.4509953405865 A 345.21,345.21 0 0,1 732.4568483381067,804.3388221828908 L 700.8751446664656,653.9724259737973 A 191.56281611525233,191.56281611525233 0 0 0 751.2779775209453,635.7224195260623 Z "/><path class="wedge" fill="rgb(187,221,153)" d=" M 769.8257325051807,670.6830642395903 L 823.2863855235835,771.4509953405865 A 345.21,345.21 0 0,1 732.4568483381067,804.3388221828908 L 709.0098850104663,692.7034457548003 A 231.1388934062215,231.1388934062215 0 0 0 769.8257325051807,670.6830642395903 Z "/><path class="wedge" fill="rgb(195,225,165)" d=" M 785.5382454877589,700.2995641560227 L 823.2863855235835,771.4509953405865 A 345.21,345.21 0 0,1 732.4568483381067,804.3388221828908 L 715.9011348341594,725.5139746654287 A 264.66530286992236,264.66530286992236 0 0 0 785.5382454877589,700.2995641560227 Z "/><path class="wedge" fill="rgb(116,208,114)" d=" M 691.1281934612865,607.5653688375887 L 732.4568483381067,804.3388221828908 A 345.21,345.21 0 0,1 720.1901441864187,806.6843780589834 L 686.0062032341164,608.5447610301504 A 144.14322090568243,144.14322090568243 0 0 0 691.1281934612865,607.5653688375887 Z "/><path class="wedge" fill="url(#hiddenPattern)" d=" M 691.1281934612865,607.5653688375887 L 732.4568483381067,804.3388221828908 A 345.21,345.21 0 0,1 720.1901441864187,806.6843780589834 L 686.0062032341164,608.5447610301504 A 144.14322090568243,144.14322090568243 0 0 0 691.1281934612865,607.5653688375887 Z "/><path class="wedge" fill="rgb(101,204,204)" d=" M 676.1725360466048,551.5460945147458 L 720.1901441864193,806.6843780589834 A 345.21,345.21 0 0,1 688.7650662147647,810.631603117622 L 668.3162665536912,552.5329007794055 A 86.3025,86.3025 0 0 0 676.1725360466048,551.5460945147458 Z "/><path class="wedge" fill="url(#hiddenPattern)" d=" M 676.1725360466048,551.5460945147458 L 720.1901441864193,806.6843780589834 A 345.21,345.21 0 0,1 688.7650662147647,810.631603117622 L 668.3162665536912,552.5329007794055 A 86.3025,86.3025 0 0 0 676.1725360466048,551.5460945147458 Z "/><path class="wedge" fill="rgb(152,101,204)" d=" M 668.3162665536912,552.5329007794055 L 688.7650662147647,810.631603117622 A 345.21,345.21 0 0,1 661.4999999999974,811.71 L 661.4999999999993,552.8025 A 86.3025,86.3025 0 0 0 668.3162665536912,552.5329007794055 Z "/><path class="wedge" fill="url(#hiddenPattern)" d=" M 668.3162665536912,552.5329007794055 L 688.7650662147647,810.631603117622 A 345.21,345.21 0 0,1 661.4999999999974,811.71 L 661.4999999999993,552.8025 A 86.3025,86.3025 0 0 0 668.3162665536912,552.5329007794055 Z "/><circle cx="661.5" cy="466.5" r="86.3025"/><circle cx="661.5" cy="466.5" r="345.21"/><text x="661.5" y="466.5" text-anchor="middle" style="font-color:black;font-weight:bold" transform="rotate(360,661.5,466.5)">all</text><path class="line" d=" M 701.9465963808959,542.7377488351466 A 86.3025,86.3025 0 1 0 661.5,552.8025"/><line x1="823.2863855235835" y1="771.4509953405865" x2="701.9465963808959" y2="542.7377488351466"/><text x="661.5" y="362.84528372829527" text-anchor="middle" style="font-color:black;font-weight:normal" transform="rotate(346.0263002536371,661.5,466.5)">Bacteria</text><path class="line" d=" M 629.1571114719374,326.0321898272573 A 144.14322090568243,144.14322090568243 0 0 0 661.5,610.6432209056825"/><line x1="584.041702075062" y1="130.09227686842337" x2="629.1571114719374" y2="326.0321898272573"/><text x="661.5" y="634.3530185104673" text-anchor="middle" style="font-color:black;font-weight:normal" transform="rotate(83.51678203623823,661.5,466.5)">Proteobacteria</text><path class="line" d=" M 488.54217370173683,384.14769074163246 A 191.56281611525233,191.56281611525233 0 0 0 661.5,658.0628161152523"/><line x1="349.81753245629204" y1="318.0952038313268" x2="488.54217370173683" y2="384.14769074163246"/><text x="661.5" y="677.8508547607369" text-anchor="middle" style="font-color:black;font-weight:normal" transform="rotate(57.73051669411985,661.5,466.5)">Alphaproteobacteria</text><path class="line" d=" M 432.0388727726332,494.2989053129587 A 231.1388934062215,231.1388934062215 0 0 0 661.5,697.6388934062215"/><line x1="318.7957732779942" y1="508.0181537025917" x2="432.0388727726332" y2="494.2989053129587"/><text x="661.5" y="714.402098138072" text-anchor="middle" style="font-color:black;font-weight:normal" transform="rotate(41.5461785006269,661.5,466.5)">Pelagibacterales</text><path class="line" d=" M 399.11472690113186,501.16541510006937 A 264.66530286992236,264.66530286992236 0 0 0 661.5,731.1653028699224"/><line x1="319.2639035254367" y1="511.7150237183769" x2="399.11472690113186" y2="501.16541510006937"/><text x="356.5623485650388" y="466.5" text-anchor="end" style="font-color:black;font-weight:normal" transform="rotate(-48.76306448791571,661.5,466.5)">Pelagibacteraceae&#160;&#160;&#160;23%</text><path class="line" d=" M 398.75582120974997,498.3311020083324 A 264.66530286992236,264.66530286992236 0 0 0 399.11472690113186,501.16541510006937"/><path class="line" d=" M 433.04258019043215,431.3945106997852 A 231.1388934062215,231.1388934062215 0 0 0 432.0388727726332,494.2989053129587"/><line x1="320.2948279485096" y1="414.06933468557935" x2="433.04258019043215" y2="431.3945106997852"/><text x="661.5" y="218.59790186192805" text-anchor="middle" style="font-color:black;font-weight:normal" transform="rotate(270.91413834509217,661.5,466.5)">u...n</text><path class="line" d=" M 399.9051151421115,426.3025030702683 A 264.66530286992236,264.66530286992236 0 0 0 398.75582120974997,498.3311020083324"/><text x="356.5623485650388" y="466.5" text-anchor="end" style="font-color:black;font-weight:normal" transform="rotate(0.9141383450921883,661.5,466.5)">unlabeled taxon&#160;&#160;&#160;4%</text><path class="line" d=" M 442.7658091002004,391.7969761223639 A 231.1388934062215,231.1388934062215 0 0 0 433.04258019043215,431.3945106997852"/><line x1="334.81664122915913" y1="354.9297207935641" x2="442.7658091002004" y2="391.7969761223639"/><text x="661.5" y="218.59790186192805" text-anchor="middle" style="font-color:black;font-weight:normal" transform="rotate(283.7960992390895,661.5,466.5)">R...s</text><path class="line" d=" M 408.39875967550654,389.1211612297603 A 264.66530286992236,264.66530286992236 0 0 0 399.9051151421115,426.3025030702683"/><line x1="331.373314616686" y1="365.5727207449522" x2="408.39875967550654" y2="389.1211612297603"/><text x="356.5623485650388" y="466.5" text-anchor="end" style="font-color:black;font-weight:normal" transform="rotate(12.86775531325641,661.5,466.5)">Rhodobacteraceae&#160;&#160;&#160;2%</text><path class="line" d=" M 411.0386863310793,380.9613952740269 A 264.66530286992236,264.66530286992236 0 0 0 408.39875967550654,389.1211612297603"/><line x1="991.71" y1="466.5" x2="1021.71" y2="466.5" class="tick" transform="rotate(202.15865608874404,661.5,466.5)"/><text x="296.29" y="466.5" text-anchor="end" style="font-color:black;font-weight:normal" transform="rotate(22.15865608874404,661.5,466.5)">6 more</text><path class="line" d=" M 452.80980955889686,367.13404778945284 A 231.1388934062215,231.1388934062215 0 0 0 442.7658091002004,391.7969761223639"/><path class="line" d=" M 600.9822079383044,284.74767027082333 A 191.56281611525233,191.56281611525233 0 0 0 488.54217370173683,384.14769074163246"/><line x1="552.4425773682049" y1="138.96920348017653" x2="600.9822079383044" y2="284.74767027082333"/><text x="661.5" y="255.1491452392631" text-anchor="middle" style="font-color:black;font-weight:normal" transform="rotate(318.52245105827853,661.5,466.5)">Gammaproteobacteria</text><path class="line" d=" M 498.17664233947704,302.9436828259283 A 231.1388934062215,231.1388934062215 0 0 0 452.80980955889686,367.13404778945284"/><line x1="417.57369462091776" y1="222.22576549273413" x2="498.17664233947704" y2="302.9436828259283"/><text x="661.5" y="218.59790186192805" text-anchor="middle" style="font-color:black;font-weight:normal" transform="rotate(305.250933372934,661.5,466.5)">Alt...les</text><path class="line" d=" M 458.02151766710676,297.25393720759655 A 264.66530286992236,264.66530286992236 0 0 0 422.5395565838179,352.7211398124881"/><line x1="396.09759883727185" y1="245.74785492082233" x2="458.02151766710676" y2="297.25393720759655"/><text x="356.5623485650388" y="466.5" text-anchor="end" style="font-color:black;font-weight:normal" transform="rotate(32.606747981108704,661.5,466.5)">Alteromonadaceae&#160;&#160;&#160;4%</text><line x1="991.71" y1="466.5" x2="1021.71" y2="466.5" class="tick" transform="rotate(222.39664796580306,661.5,466.5)"/><text x="296.29" y="466.5" text-anchor="end" style="font-color:black;font-weight:normal" transform="rotate(42.39664796580306,661.5,466.5)">3 more</text><path class="line" d=" M 474.48679212335674,279.22004212165376 A 264.66530286992236,264.66530286992236 0 0 0 458.02151766710676,297.25393720759655"/><line x1="417.5736946209176" y1="222.22576549273435" x2="474.48679212335674" y2="279.22004212165376"/><path class="line" d=" M 556.4213675180113,260.62705607397606 A 231.1388934062215,231.1388934062215 0 0 0 498.17664233947704,302.9436828259283"/><line x1="504.5632154349021" y1="159.0251396449329" x2="556.4213675180113" y2="260.62705607397606"/><text x="661.5" y="218.59790186192805" text-anchor="middle" style="font-color:black;font-weight:normal" transform="rotate(324.0004140732052,661.5,466.5)">unl...xon</text><path class="line" d=" M 541.1798423615961,230.7654412074942 A 264.66530286992236,264.66530286992236 0 0 0 474.48679212335685,279.2200421216536"/><text x="356.5623485650388" y="466.5" text-anchor="end" style="font-color:black;font-weight:normal" transform="rotate(54.00041407320523,661.5,466.5)">unlabeled taxon&#160;&#160;&#160;5%</text><line x1="991.71" y1="466.5" x2="1021.71" y2="466.5" class="tick" transform="rotate(247.27193175854973,661.5,466.5)"/><text x="296.29" y="466.5" text-anchor="end" style="font-color:black;font-weight:normal" transform="rotate(67.27193175854974,661.5,466.5)">10 more</text><path class="line" d=" M 588.4794849950824,247.19839847035036 A 231.1388934062215,231.1388934062215 0 0 0 556.4213675180113,260.62705607397606"/><line x1="991.71" y1="466.5" x2="1021.71" y2="466.5" class="tick" transform="rotate(254.3087164003969,661.5,466.5)"/><text x="296.29" y="466.5" text-anchor="end" style="font-color:black;font-weight:normal" transform="rotate(74.30871640039689,661.5,466.5)">4 more</text><path class="line" d=" M 618.5170919672219,279.8217148807829 A 191.56281611525233,191.56281611525233 0 0 0 600.9822079383044,284.74767027082333"/><path class="line" d=" M 805.5916727105562,462.64539385431783 A 144.14322090568243,144.14322090568243 0 0 0 629.1571114719374,326.0321898272573"/><line x1="1006.5865467267365" y1="457.2685662968387" x2="805.5916727105562" y2="462.64539385431783"/><text x="661.5" y="298.6469814895326" text-anchor="middle" style="font-color:black;font-weight:normal" transform="rotate(397.7506031165277,661.5,466.5)">Cyanobacteria</text><path class="line" d=" M 852.9943098243425,461.3773226819651 A 191.56281611525233,191.56281611525233 0 0 0 618.5170919672219,279.8217148807829"/><text x="661.5" y="255.1491452392631" text-anchor="middle" style="font-color:black;font-weight:normal" transform="rotate(397.7506031165277,661.5,466.5)">unlabeled taxon</text><path class="line" d=" M 892.5548260476994,460.26658960760545 A 231.1388934062215,231.1388934062215 0 0 0 609.6370027881591,241.25476128171496"/><line x1="1006.5844439224063" y1="457.19029201512734" x2="892.5548260476994" y2="460.26658960760545"/><text x="661.5" y="218.59790186192805" text-anchor="middle" style="font-color:black;font-weight:normal" transform="rotate(397.74410503702575,661.5,466.5)">Synechococcales</text><path class="line" d=" M 912.7314373224716,383.2504507873301 A 264.66530286992236,264.66530286992236 0 0 0 602.1143394452872,208.58321911184578"/><line x1="989.1878515530814" y1="357.91539683488395" x2="912.7314373224716" y2="383.2504507873301"/><text x="966.4376514349613" y="466.5" text-anchor="start" style="font-color:black;font-weight:normal" transform="rotate(299.35006222486277,661.5,466.5)">24%&#160;&#160;&#160;Prochloraceae</text><path class="line" d=" M 926.0690416454402,459.36244117074574 A 264.66530286992236,264.66530286992236 0 0 0 912.7314373224716,383.2504507873301"/><text x="966.4376514349613" y="466.5" text-anchor="start" style="font-color:black;font-weight:normal" transform="rotate(350.060603189412,661.5,466.5)">5%&#160;&#160;&#160;Synechococcaceae</text><path class="line" d=" M 892.5562340018894,460.31899895512413 A 231.1388934062215,231.1388934062215 0 0 0 892.5548260476994,460.26658960760545"/><path class="line" d=" M 794.3127021187294,522.518338863144 A 144.14322090568243,144.14322090568243 0 0 0 805.5916727105562,462.64539385431783"/><line x1="979.5744304888717" y1="600.6588639232605" x2="794.3127021187294" y2="522.518338863144"/><text x="661.5" y="634.3530185104673" text-anchor="middle" style="font-color:black;font-weight:normal" transform="rotate(280.668452632577,661.5,466.5)">Ac...ia</text><path class="line" d=" M 848.1244705094564,509.71596377579704 A 191.56281611525233,191.56281611525233 0 0 0 852.9943098243425,461.3773226819651"/><line x1="997.8107453265297" y1="544.3782811694898" x2="848.1244705094564" y2="509.71596377579704"/><text x="661.5" y="677.8508547607369" text-anchor="middle" style="font-color:black;font-weight:normal" transform="rotate(275.7528092293235,661.5,466.5)">A...a</text><path class="line" d=" M 887.4958989805438,514.9875415857363 A 231.1388934062215,231.1388934062215 0 0 0 892.5562340018894,460.31899895512413"/><line x1="999.0288474275163" y1="538.9169956174129" x2="887.4958989805438" y2="514.9875415857363"/><text x="661.5" y="714.402098138072" text-anchor="middle" style="font-color:black;font-weight:normal" transform="rotate(275.2884527783453,661.5,466.5)">u...n</text><path class="line" d=" M 920.2763234892948,522.0205992816327 A 264.66530286992236,264.66530286992236 0 0 0 926.070653821637,459.4224524290409"/><text x="966.4376514349613" y="466.5" text-anchor="start" style="font-color:black;font-weight:normal" transform="rotate(365.2884527783453,661.5,466.5)">4%&#160;&#160;&#160;unlabeled taxon</text><path class="line" d=" M 886.6803062350327,518.6442012974549 A 231.1388934062215,231.1388934062215 0 0 0 887.4958989805438,514.9875415857363"/><line x1="997.8107453265297" y1="544.3782811694895" x2="886.6803062350327" y2="518.6442012974549"/><path class="line" d=" M 838.0917557376467,540.7405840730073 A 191.56281611525233,191.56281611525233 0 0 0 848.1244705094564,509.71596377579704"/><line x1="979.7310702799241" y1="600.2868827968348" x2="838.0917557376467" y2="540.7405840730073"/><text x="661.5" y="677.8508547607369" text-anchor="middle" style="font-color:black;font-weight:normal" transform="rotate(287.9201248688093,661.5,466.5)">...</text><path class="line" d=" M 875.2457105105126,554.46567105075 A 231.1388934062215,231.1388934062215 0 0 0 886.6803062350327,518.644201297455"/><line x1="980.7329756275797" y1="597.8782758752795" x2="875.2457105105126" y2="554.46567105075"/><text x="661.5" y="714.402098138072" text-anchor="middle" style="font-color:black;font-weight:normal" transform="rotate(287.70363837789057,661.5,466.5)">A...s</text><path class="line" d=" M 913.2202504407767,548.2596358924159 A 264.66530286992236,264.66530286992236 0 0 0 919.3424300288384,526.2076529437501"/><line x1="989.8254235156328" y1="573.141269559586" x2="913.2202504407767" y2="548.2596358924159"/><text x="966.4376514349613" y="466.5" text-anchor="start" style="font-color:black;font-weight:normal" transform="rotate(375.5159789437633,661.5,466.5)">1%&#160;&#160;&#160;Microthrixaceae</text><line x1="991.71" y1="466.5" x2="1021.71" y2="466.5" class="tick" transform="rotate(380.181641023586,661.5,466.5)"/><text x="1026.71" y="466.5" text-anchor="start" style="font-color:black;font-weight:normal" transform="rotate(380.181641023586,661.5,466.5)">2 more</text><path class="line" d=" M 906.2492603937891,567.2249824021874 A 264.66530286992236,264.66530286992236 0 0 0 913.2202504407767,548.2596358924159"/><path class="line" d=" M 874.5748745169004,556.0783784998354 A 231.1388934062215,231.1388934062215 0 0 0 875.2457105105126,554.46567105075"/><line x1="979.7310702799242" y1="600.2868827968344" x2="874.5748745169004" y2="556.0783784998354"/><path class="line" d=" M 838.0048336916756,540.9470026359687 A 191.56281611525233,191.56281611525233 0 0 0 838.0917557376467,540.7405840730073"/><path class="line" d=" M 777.3803636373989,552.2263638347537 A 144.14322090568243,144.14322090568243 0 0 0 794.3127021187294,522.518338863144"/><line x1="939.0230085738251" y1="671.8069015209487" x2="777.3803636373989" y2="552.2263638347537"/><text x="661.5" y="634.3530185104673" text-anchor="middle" style="font-color:black;font-weight:normal" transform="rotate(299.68134128742673,661.5,466.5)">...</text><path class="line" d=" M 820.2495056356656,573.7143039824339 A 191.56281611525233,191.56281611525233 0 0 0 838.0048336916757,540.9470026359686"/><line x1="947.5780497584509" y1="659.707902391184" x2="820.2495056356656" y2="573.7143039824339"/><text x="661.5" y="677.8508547607369" text-anchor="middle" style="font-color:black;font-weight:normal" transform="rotate(298.4515438689842,661.5,466.5)">...</text><path class="line" d=" M 853.0464901045112,595.8643311492585 A 231.1388934062215,231.1388934062215 0 0 0 874.4699947394686,556.3274422753057"/><text x="661.5" y="714.402098138072" text-anchor="middle" style="font-color:black;font-weight:normal" transform="rotate(298.4515438689842,661.5,466.5)">F...s</text><path class="line" d=" M 890.7956110323732,598.6788383385115 A 264.66530286992236,264.66530286992236 0 0 0 905.3610280134275,569.3568012309447"/><line x1="960.5763693848783" y1="638.9043774837515" x2="890.7956110323732" y2="598.6788383385115"/><text x="966.4376514349613" y="466.5" text-anchor="start" style="font-color:black;font-weight:normal" transform="rotate(386.41541062942844,661.5,466.5)">2%&#160;&#160;&#160;Flavobacteriaceae</text><line x1="991.71" y1="466.5" x2="1021.71" y2="466.5" class="tick" transform="rotate(391.99769139383767,661.5,466.5)"/><text x="1026.71" y="466.5" text-anchor="start" style="font-color:black;font-weight:normal" transform="rotate(391.99769139383767,661.5,466.5)">3 more</text><path class="line" d=" M 880.8300706345619,614.6284667397384 A 264.66530286992236,264.66530286992236 0 0 0 890.7956110323732,598.6788383385115"/><path class="line" d=" M 815.5021698652392,580.4282414276811 A 191.56281611525233,191.56281611525233 0 0 0 820.2495056356656,573.7143039824339"/><path class="line" d=" M 764.4902111379307,567.3478286470701 A 144.14322090568243,144.14322090568243 0 0 0 777.3803636373989,552.2263638347537"/><line x1="908.1522571338177" y1="708.0214444946723" x2="764.4902111379307" y2="567.3478286470701"/><text x="661.5" y="634.3530185104673" text-anchor="middle" style="font-color:black;font-weight:normal" transform="rotate(310.4456252186533,661.5,466.5)">...</text><path class="line" d=" M 805.1337675355362,593.2503583488169 A 191.56281611525233,191.56281611525233 0 0 0 815.5021698652394,580.4282414276809"/><line x1="920.3384003558955" y1="694.9132802645265" x2="805.1337675355362" y2="593.2503583488169"/><text x="661.5" y="677.8508547607369" text-anchor="middle" style="font-color:black;font-weight:normal" transform="rotate(308.96018884289157,661.5,466.5)">...</text><path class="line" d=" M 834.807903679784,619.4364527088665 A 231.1388934062215,231.1388934062215 0 0 0 847.3183746024717,603.9653400139399"/><text x="949.6744467031108" y="466.5" text-anchor="start" style="font-color:black;font-weight:normal" transform="rotate(398.96018884289157,661.5,466.5)">1%&#160;&#160;&#160;Verrucomicrobiales</text><path class="line" d=" M 798.3714723725774,600.5242984259525 A 191.56281611525233,191.56281611525233 0 0 0 805.1337675355362,593.2503583488169"/><path class="line" d=" M 753.84775816453,577.1759219299747 A 144.14322090568243,144.14322090568243 0 0 0 764.4902111379307,567.3478286470701"/><line x1="882.6645431236552" y1="731.5588405711169" x2="753.84775816453" y2="577.1759219299747"/><text x="906.1766104528413" y="466.5" text-anchor="start" style="font-color:black;font-weight:normal" transform="rotate(407.27814057899263,661.5,466.5)">2%&#160;&#160;&#160;Chloroflexi</text><line x1="991.71" y1="466.5" x2="1021.71" y2="466.5" class="tick" transform="rotate(416.1055253491159,661.5,466.5)"/><text x="1026.71" y="466.5" text-anchor="start" style="font-color:black;font-weight:normal" transform="rotate(416.1055253491159,661.5,466.5)">15 more</text><path class="line" d=" M 729.0542733642059,593.832981914736 A 144.14322090568243,144.14322090568243 0 0 0 753.84775816453,577.1759219299747"/><path class="line" d=" M 676.1725360466048,551.5460945147458 A 86.3025,86.3025 0 0 0 701.9465963808959,542.7377488351466"/><line x1="720.1901441864193" y1="806.6843780589834" x2="676.1725360466048" y2="551.5460945147458"/><text x="661.5" y="593.2910046339776" text-anchor="middle" style="font-color:black;font-weight:normal" transform="rotate(341.1320164681792,661.5,466.5)">Archaea</text><path class="line" d=" M 691.1281934612865,607.5653688375887 A 144.14322090568243,144.14322090568243 0 0 0 729.0542733642067,593.8329819147357"/><line x1="732.4568483381067" y1="804.3388221828908" x2="691.1281934612865" y2="607.5653688375887"/><text x="661.5" y="634.3530185104673" text-anchor="middle" style="font-color:black;font-weight:normal" transform="rotate(340.09554203959107,661.5,466.5)">Euryarchaeota</text><path class="line" d=" M 700.8751446664656,653.9724259737973 A 191.56281611525233,191.56281611525233 0 0 0 751.2779775209453,635.7224195260623"/><text x="661.5" y="677.8508547607369" text-anchor="middle" style="font-color:black;font-weight:normal" transform="rotate(340.09554203959107,661.5,466.5)">unlabeled taxon</text><path class="line" d=" M 709.0098850104663,692.7034457548003 A 231.1388934062215,231.1388934062215 0 0 0 769.8257325051807,670.6830642395903"/><text x="661.5" y="714.402098138072" text-anchor="middle" style="font-color:black;font-weight:normal" transform="rotate(340.09554203959107,661.5,466.5)">unlabeled taxon</text><path class="line" d=" M 715.9011348341594,725.5139746654287 A 264.66530286992236,264.66530286992236 0 0 0 785.5382454877589,700.2995641560227"/><text x="966.4376514349613" y="466.5" text-anchor="start" style="font-color:black;font-weight:normal" transform="rotate(430.09554203959107,661.5,466.5)">4%&#160;&#160;&#160;unlabeled taxon</text><path class="line" d=" M 686.0062032341164,608.5447610301504 A 144.14322090568243,144.14322090568243 0 0 0 691.1281934612865,607.5653688375887"/><path class="line" d=" M 668.3162665536912,552.5329007794055 A 86.3025,86.3025 0 0 0 676.1725360466048,551.5460945147458"/><line x1="688.7650662147647" y1="810.631603117622" x2="668.3162665536912" y2="552.5329007794055"/><path class="line" d=" M 661.4999999999993,552.8025 A 86.3025,86.3025 0 0 0 668.3162665536912,552.5329007794055"/><line x1="661.4999999999974" y1="811.71" x2="661.4999999999993" y2="552.8025"/></svg>