<?xml version="1.0" standalone="no"?><!DOCTYPE svg PUBLIC "-//W3C//DTD SVG 1.1//EN" 	"http://www.w3.org/Graphics/SVG/1.1/DTD/svg11.dtd"><svg width="1573" height="842" version="1.1"	xmlns="http://www.w3.org/2000/svg"><title>Krona (snapshot) - Bacteria</title><defs>	<style type="text/css">	text {font-size: 14px; font-family: sans-serif; dominant-baseline:central}	path {stroke-width:0.35000000000000003;}	path.wedge {stroke:none}	path.line {fill:none;stroke:black;}	line {stroke:black;stroke-width:0.35000000000000003;}	line.tick {stroke-width:0.7000000000000001;}	line.pattern {stroke-width:0.23333333333333334;}	circle {fill:none;stroke:black;stroke-width:0.35000000000000003;}	rect {stroke:black;stroke-width:0.35000000000000003;}	.highlight {stroke:black;stroke-width:1.75;}	.searchHighlight {fill:rgb(255, 255, 100);stroke:none;}	</style><pattern id="hiddenPattern" patternUnits="userSpaceOnUse" x="0" y="0" width="8.4" height="8.4"><line class="pattern" x1="0" y1="0" x2="4.2" y2="4.2"/><line class="pattern" x1="4.2" y1="8.4" x2="8.4" y2="4.2"/></pattern></defs><path class="wedge" fill="rgb(209,117,117)" d=" M 711.5,498.885 L 711.5,732.54 A 311.53999999999996,311.53999999999996 0 1,1 717.4375015707592,109.516585232701 L 712.9843753926898,343.1291463081752 A 77.88499999999999,77.88499999999999 0 1 0 711.5,498.885 Z "/><path class="wedge" fill="rgb(209,117,117)" d=" M 714.1396477893063,282.52315121139463 L 717.437501570759,109.516585232701 A 311.53999999999996,311.53999999999996 0 0,1 717.4375015707592,109.516585232701 L 714.1396477893064,282.52315121139463 A 138.50200500669246,138.50200500669246 0 0 0 714.1396477893063,282.52315121139463 Z "/><path class="wedge" fill="rgb(214,132,132)" d=" M 711.5,559.5020050066925 L 711.5,732.54 A 311.53999999999996,311.53999999999996 0 0,1 456.8604936333119,241.5121357937273 L 598.2943693082726,341.2046958113317 A 138.50200500669246,138.50200500669246 0 0 0 711.5,559.5020050066925 Z "/><path class="wedge" fill="rgb(219,147,147)" d=" M 711.5,609.1976829862425 L 711.5,732.54 A 311.53999999999996,311.53999999999996 0 0,1 399.96034990927615,420.53307243677546 L 523.3025283898729,420.7179345011194 A 188.19768298624254,188.19768298624254 0 0 0 711.5,609.1976829862425 Z "/><path class="wedge" fill="rgb(224,163,163)" d=" M 711.5,650.6733637476184 L 711.5,732.54 A 311.53999999999996,311.53999999999996 0 0,1 399.97622008774897,424.1790170152663 L 481.83859401739915,423.34363334180887 A 229.67336374761845,229.67336374761845 0 0 0 711.5,650.6733637476184 Z "/><path class="wedge" fill="rgb(224,169,163)" d=" M 481.83859401739915,423.34363334180887 L 399.97622008774897,424.1790170152663 A 311.53999999999996,311.53999999999996 0 0,1 399.96034990927615,420.53307243677546 L 481.8268942123239,420.6557718942278 A 229.67336374761845,229.67336374761845 0 0 0 481.83859401739915,423.34363334180887 Z "/><path class="wedge" fill="url(#hiddenPattern)" d=" M 481.83859401739915,423.34363334180887 L 399.97622008774897,424.1790170152663 A 311.53999999999996,311.53999999999996 0 0,1 399.96034990927615,420.53307243677546 L 481.8268942123239,420.6557718942278 A 229.67336374761845,229.67336374761845 0 0 0 481.83859401739915,423.34363334180887 Z "/><path class="wedge" fill="rgb(219,155,147)" d=" M 523.3025283898729,420.7179345011194 L 399.96034990927615,420.53307243677546 A 311.53999999999996,311.53999999999996 0 0,1 413.6461768413768,329.67491237457466 L 531.5699769305807,365.8315789637908 A 188.19768298624254,188.19768298624254 0 0 0 523.3025283898729,420.7179345011194 Z "/><path class="wedge" fill="rgb(224,169,163)" d=" M 481.8268942123239,420.6557718942278 L 399.96034990927615,420.53307243677546 A 311.53999999999996,311.53999999999996 0 0,1 413.6461768413768,329.67491237457466 L 491.9163527318184,353.6733643529645 A 229.67336374761845,229.67336374761845 0 0 0 481.8268942123239,420.6557718942278 Z "/><path class="wedge" fill="rgb(219,156,147)" d=" M 531.5699769305807,365.8315789637908 L 413.6461768413768,329.67491237457466 A 311.53999999999996,311.53999999999996 0 0,1 436.47305806480847,274.65331295250724 L 545.3594298292518,332.59367203232046 A 188.19768298624254,188.19768298624254 0 0 0 531.5699769305807,365.8315789637908 Z "/><path class="wedge" fill="rgb(224,170,163)" d=" M 491.9163527318184,353.6733643529645 L 413.6461768413768,329.67491237457466 A 311.53999999999996,311.53999999999996 0 0,1 431.50227390480853,284.4040813877585 L 505.0802157220037,320.29882486400004 A 229.67336374761845,229.67336374761845 0 0 0 491.9163527318184,353.6733643529645 Z "/><path class="wedge" fill="rgb(224,171,163)" d=" M 505.0802157220037,320.29882486400004 L 431.50227390480853,284.4040813877585 A 311.53999999999996,311.53999999999996 0 0,1 436.47305806480847,274.65331295250724 L 508.7447747464968,313.11036821108786 A 229.67336374761845,229.67336374761845 0 0 0 505.0802157220037,320.29882486400004 Z "/><path class="wedge" fill="url(#hiddenPattern)" d=" M 505.0802157220037,320.29882486400004 L 431.50227390480853,284.4040813877585 A 311.53999999999996,311.53999999999996 0 0,1 436.47305806480847,274.65331295250724 L 508.7447747464968,313.11036821108786 A 229.67336374761845,229.67336374761845 0 0 0 505.0802157220037,320.29882486400004 Z "/><path class="wedge" fill="rgb(214,143,132)" d=" M 545.3594298292518,332.59367203232046 L 436.47305806480847,274.65331295250724 A 311.53999999999996,311.53999999999996 0 0,1 456.8604936333119,241.5121357937273 L 557.6752420396377,312.5734731727231 A 188.19768298624254,188.19768298624254 0 0 0 545.3594298292518,332.59367203232046 Z "/><path class="wedge" fill="url(#hiddenPattern)" d=" M 545.3594298292518,332.59367203232046 L 436.47305806480847,274.65331295250724 A 311.53999999999996,311.53999999999996 0 0,1 456.8604936333119,241.5121357937273 L 557.6752420396377,312.5734731727231 A 188.19768298624254,188.19768298624254 0 0 0 545.3594298292518,332.59367203232046 Z "/><path class="wedge" fill="rgb(214,144,132)" d=" M 598.2943693082726,341.2046958113317 L 456.8604936333119,241.5121357937273 A 311.53999999999996,311.53999999999996 0 0,1 685.3425171297454,110.56005783744206 L 699.8711118204453,282.9870500620276 A 138.50200500669246,138.50200500669246 0 0 0 598.2943693082726,341.2046958113317 Z "/><path class="wedge" fill="rgb(219,158,147)" d=" M 557.6752420396377,312.5734731727231 L 456.8604936333119,241.5121357937273 A 311.53999999999996,311.53999999999996 0 0,1 539.1263944720794,161.49178872855526 L 607.3711139232868,264.23411415166527 A 188.19768298624254,188.19768298624254 0 0 0 557.6752420396377,312.5734731727231 Z "/><path class="wedge" fill="rgb(219,158,147)" d=" M 584.4228163224541,229.6854856428057 L 539.1263944720791,161.49178872855543 A 311.53999999999996,311.53999999999996 0 0,1 539.1263944720794,161.49178872855526 L 584.4228163224542,229.6854856428056 A 229.67336374761845,229.67336374761845 0 0 0 584.4228163224541,229.6854856428057 Z "/><path class="wedge" fill="rgb(224,171,163)" d=" M 523.7747898495527,288.67804608034146 L 456.8604936333119,241.5121357937273 A 311.53999999999996,311.53999999999996 0 0,1 514.0635842666893,180.01030448921 L 565.9460238565106,243.33769661527415 A 229.67336374761845,229.67336374761845 0 0 0 523.7747898495527,288.67804608034146 Z "/><path class="wedge" fill="rgb(224,173,163)" d=" M 565.9460238565106,243.33769661527415 L 514.0635842666893,180.01030448921 A 311.53999999999996,311.53999999999996 0 0,1 534.3478092235298,164.73007803665865 L 580.8999500838038,232.07281567484014 A 229.67336374761845,229.67336374761845 0 0 0 565.9460238565106,243.33769661527415 Z "/><path class="wedge" fill="rgb(224,173,163)" d=" M 580.8999500838038,232.07281567484014 L 534.3478092235298,164.73007803665865 A 311.53999999999996,311.53999999999996 0 0,1 539.1263944720791,161.49178872855543 L 584.4228163224541,229.6854856428057 A 229.67336374761845,229.67336374761845 0 0 0 580.8999500838038,232.07281567484014 Z "/><path class="wedge" fill="url(#hiddenPattern)" d=" M 580.8999500838038,232.07281567484014 L 534.3478092235298,164.73007803665865 A 311.53999999999996,311.53999999999996 0 0,1 539.1263944720791,161.49178872855543 L 584.4228163224541,229.6854856428057 A 229.67336374761845,229.67336374761845 0 0 0 580.8999500838038,232.07281567484014 Z "/><path class="wedge" fill="rgb(219,159,147)" d=" M 607.3711139232868,264.23411415166527 L 539.1263944720794,161.49178872855526 A 311.53999999999996,311.53999999999996 0 0,1 635.2559696392406,118.93374992504118 L 665.4418698869241,238.52529892646155 A 188.19768298624254,188.19768298624254 0 0 0 607.3711139232868,264.23411415166527 Z "/><path class="wedge" fill="rgb(224,173,163)" d=" M 584.4228163224542,229.6854856428056 L 539.1263944720794,161.49178872855526 A 311.53999999999996,311.53999999999996 0 0,1 635.2559696392406,118.93374992504118 L 655.2914138838314,198.31086945706778 A 229.67336374761845,229.67336374761845 0 0 0 584.4228163224542,229.6854856428056 Z "/><path class="wedge" fill="rgb(214,148,132)" d=" M 665.4418698869241,238.52529892646155 L 635.2559696392406,118.93374992504118 A 311.53999999999996,311.53999999999996 0 0,1 658.536234134961,113.99509595872365 L 679.5052063361809,235.54191562565978 A 188.19768298624254,188.19768298624254 0 0 0 665.4418698869241,238.52529892646155 Z "/><path class="wedge" fill="url(#hiddenPattern)" d=" M 665.4418698869241,238.52529892646155 L 635.2559696392406,118.93374992504118 A 311.53999999999996,311.53999999999996 0 0,1 658.536234134961,113.99509595872365 L 679.5052063361809,235.54191562565978 A 188.19768298624254,188.19768298624254 0 0 0 665.4418698869241,238.52529892646155 Z "/><path class="wedge" fill="rgb(214,148,132)" d=" M 679.5052063361809,235.54191562565978 L 658.536234134961,113.99509595872365 A 311.53999999999996,311.53999999999996 0 0,1 685.3425171297459,110.560057837442 L 695.6985694648066,233.46684913212889 A 188.19768298624254,188.19768298624254 0 0 0 679.5052063361809,235.54191562565978 Z "/><path class="wedge" fill="url(#hiddenPattern)" d=" M 679.5052063361809,235.54191562565978 L 658.536234134961,113.99509595872365 A 311.53999999999996,311.53999999999996 0 0,1 685.3425171297459,110.560057837442 L 695.6985694648066,233.46684913212889 A 188.19768298624254,188.19768298624254 0 0 0 679.5052063361809,235.54191562565978 Z "/><path class="wedge" fill="rgb(209,136,117)" d=" M 699.8711118204453,282.9870500620276 L 685.3425171297454,110.56005783744206 A 311.53999999999996,311.53999999999996 0 0,1 717.437501570759,109.516585232701 L 714.1396477893063,282.52315121139463 A 138.50200500669246,138.50200500669246 0 0 0 699.8711118204453,282.9870500620276 Z "/><path class="wedge" fill="url(#hiddenPattern)" d=" M 699.8711118204453,282.9870500620276 L 685.3425171297454,110.56005783744206 A 311.53999999999996,311.53999999999996 0 0,1 717.437501570759,109.516585232701 L 714.1396477893063,282.52315121139463 A 138.50200500669246,138.50200500669246 0 0 0 699.8711118204453,282.9870500620276 Z "/><path class="wedge" fill="rgb(209,151,117)" d=" M 712.9843753926898,343.1291463081752 L 717.4375015707592,109.516585232701 A 311.53999999999996,311.53999999999996 0 0,1 1002.2239728083554,532.9675990388588 L 784.1809932020889,448.99189975971467 A 77.88499999999999,77.88499999999999 0 0 0 712.9843753926898,343.1291463081752 Z "/><path class="wedge" fill="rgb(214,163,132)" d=" M 714.1396477893064,282.52315121139463 L 717.4375015707592,109.516585232701 A 311.53999999999996,311.53999999999996 0 0,1 1002.2239728083554,532.9675990388588 L 840.7477792176554,470.77767529905424 A 138.50200500669246,138.50200500669246 0 0 0 714.1396477893064,282.52315121139463 Z "/><path class="wedge" fill="rgb(219,174,147)" d=" M 715.0867754970278,232.83649949332852 L 717.4375015707592,109.516585232701 A 311.53999999999996,311.53999999999996 0 0,1 1002.2514987182751,532.8961017778404 L 887.1395916529398,488.595130929519 A 188.19768298624254,188.19768298624254 0 0 0 715.0867754970278,232.83649949332852 Z "/><path class="wedge" fill="rgb(224,186,163)" d=" M 715.877241952921,191.3683519894711 L 717.4375015707592,109.516585232701 A 311.53999999999996,311.53999999999996 0 0,1 1022.6551452398289,436.48054232838626 L 940.889641312866,432.4125577107205 A 229.67336374761845,229.67336374761845 0 0 0 715.877241952921,191.3683519894711 Z "/><path class="wedge" fill="rgb(224,196,163)" d=" M 940.889641312866,432.4125577107205 L 1022.6551452398289,436.48054232838626 A 311.53999999999996,311.53999999999996 0 0,1 1002.2514987182751,532.8961017778404 L 925.8476751790706,503.4919884623563 A 229.67336374761845,229.67336374761845 0 0 0 940.889641312866,432.4125577107205 Z "/><path class="wedge" fill="rgb(214,179,132)" d=" M 887.1395916529398,488.595130929519 L 1002.2514987182751,532.8961017778404 A 311.53999999999996,311.53999999999996 0 0,1 1002.2239728083554,532.9675990388588 L 887.122963571573,488.63832159159614 A 188.19768298624254,188.19768298624254 0 0 0 887.1395916529398,488.595130929519 Z "/><path class="wedge" fill="url(#hiddenPattern)" d=" M 887.1395916529398,488.595130929519 L 1002.2514987182751,532.8961017778404 A 311.53999999999996,311.53999999999996 0 0,1 1002.2239728083554,532.9675990388588 L 887.122963571573,488.63832159159614 A 188.19768298624254,188.19768298624254 0 0 0 887.1395916529398,488.595130929519 Z "/><path class="wedge" fill="rgb(209,185,117)" d=" M 784.1809932020889,448.99189975971467 L 1002.2239728083554,532.9675990388588 A 311.53999999999996,311.53999999999996 0 0,1 921.898098220788,650.7603357089199 L 764.099524555197,478.44008392723 A 77.88499999999999,77.88499999999999 0 0 0 784.1809932020889,448.99189975971467 Z "/><path class="wedge" fill="rgb(214,193,132)" d=" M 840.7477792176554,470.77767529905424 L 1002.2239728083554,532.9675990388588 A 311.53999999999996,311.53999999999996 0 0,1 960.7641838491998,607.881080503063 L 822.3159120481189,504.08212219134407 A 138.50200500669246,138.50200500669246 0 0 0 840.7477792176554,470.77767529905424 Z "/><path class="wedge" fill="rgb(214,193,132)" d=" M 862.0775882771914,533.8926826238746 L 960.7641838491999,607.8810805030628 A 311.53999999999996,311.53999999999996 0 0,1 960.7641838491998,607.881080503063 L 862.0775882771914,533.8926826238747 A 188.19768298624254,188.19768298624254 0 0 0 862.0775882771914,533.8926826238746 Z "/><path class="wedge" fill="rgb(219,201,147)" d=" M 887.122963571573,488.63832159159614 L 1002.2239728083554,532.9675990388588 A 311.53999999999996,311.53999999999996 0 0,1 964.0096525142973,603.4720443988854 L 864.0381380716826,531.22923530087 A 188.19768298624254,188.19768298624254 0 0 0 887.122963571573,488.63832159159614 Z "/><path class="wedge" fill="rgb(224,208,163)" d=" M 925.827382541459,503.5446976375403 L 1002.2239728083554,532.9675990388588 A 311.53999999999996,311.53999999999996 0 0,1 964.0096525142973,603.4720443988854 L 897.6550403534087,555.5219497560404 A 229.67336374761845,229.67336374761845 0 0 0 925.827382541459,503.5446976375403 Z "/><path class="wedge" fill="rgb(214,202,132)" d=" M 864.0381380716826,531.22923530087 L 964.0096525142973,603.4720443988854 A 311.53999999999996,311.53999999999996 0 0,1 960.7641838491999,607.8810805030628 L 862.0775882771914,533.8926826238746 A 188.19768298624254,188.19768298624254 0 0 0 864.0381380716826,531.22923530087 Z "/><path class="wedge" fill="url(#hiddenPattern)" d=" M 864.0381380716826,531.22923530087 L 964.0096525142973,603.4720443988854 A 311.53999999999996,311.53999999999996 0 0,1 960.7641838491999,607.8810805030628 L 862.0775882771914,533.8926826238746 A 188.19768298624254,188.19768298624254 0 0 0 864.0381380716826,531.22923530087 Z "/><path class="wedge" fill="rgb(214,203,132)" d=" M 822.3159120481189,504.08212219134407 L 960.7641838491998,607.881080503063 A 311.53999999999996,311.53999999999996 0 0,1 922.189172343715,650.493451447139 L 805.1665365693173,523.0263952023329 A 138.50200500669246,138.50200500669246 0 0 0 822.3159120481189,504.08212219134407 Z "/><path class="wedge" fill="rgb(214,203,132)" d=" M 838.7748734203516,559.634319261948 L 922.1891723437151,650.4934514471389 A 311.53999999999996,311.53999999999996 0 0,1 922.189172343715,650.493451447139 L 838.7748734203515,559.6343192619481 A 188.19768298624254,188.19768298624254 0 0 0 838.7748734203516,559.634319261948 Z "/><path class="wedge" fill="rgb(219,209,147)" d=" M 862.0775882771914,533.8926826238747 L 960.7641838491998,607.881080503063 A 311.53999999999996,311.53999999999996 0 0,1 924.0622804891805,648.7596288046652 L 839.9063962198612,558.5869372114164 A 188.19768298624254,188.19768298624254 0 0 0 862.0775882771914,533.8926826238747 Z "/><path class="wedge" fill="rgb(224,216,163)" d=" M 895.262417559384,558.7723771584001 L 960.7641838491998,607.881080503063 A 311.53999999999996,311.53999999999996 0 0,1 942.1691043473519,630.4013751138957 L 881.5537623037386,575.3747775431253 A 229.67336374761845,229.67336374761845 0 0 0 895.262417559384,558.7723771584001 Z "/><path class="wedge" fill="rgb(224,218,163)" d=" M 881.5537623037386,575.3747775431253 L 942.1691043473519,630.4013751138957 A 311.53999999999996,311.53999999999996 0 0,1 928.1467542604687,644.877992371747 L 871.2162123515618,586.0472221129962 A 229.67336374761845,229.67336374761845 0 0 0 881.5537623037386,575.3747775431253 Z "/><path class="wedge" fill="rgb(224,220,163)" d=" M 871.2162123515618,586.0472221129962 L 928.1467542604687,644.877992371747 A 311.53999999999996,311.53999999999996 0 0,1 924.0622804891805,648.7596288046652 L 868.2050586307212,588.908840192195 A 229.67336374761845,229.67336374761845 0 0 0 871.2162123515618,586.0472221129962 Z "/><path class="wedge" fill="url(#hiddenPattern)" d=" M 871.2162123515618,586.0472221129962 L 928.1467542604687,644.877992371747 A 311.53999999999996,311.53999999999996 0 0,1 924.0622804891805,648.7596288046652 L 868.2050586307212,588.908840192195 A 229.67336374761845,229.67336374761845 0 0 0 871.2162123515618,586.0472221129962 Z "/><path class="wedge" fill="rgb(214,209,132)" d=" M 839.9063962198612,558.5869372114164 L 924.0622804891805,648.7596288046652 A 311.53999999999996,311.53999999999996 0 0,1 922.1891723437151,650.4934514471389 L 838.7748734203516,559.634319261948 A 188.19768298624254,188.19768298624254 0 0 0 839.9063962198612,558.5869372114164 Z "/><path class="wedge" fill="url(#hiddenPattern)" d=" M 839.9063962198612,558.5869372114164 L 924.0622804891805,648.7596288046652 A 311.53999999999996,311.53999999999996 0 0,1 922.1891723437151,650.4934514471389 L 838.7748734203516,559.634319261948 A 188.19768298624254,188.19768298624254 0 0 0 839.9063962198612,558.5869372114164 Z "/><path class="wedge" fill="rgb(209,203,117)" d=" M 805.1665365693173,523.0263952023329 L 922.189172343715,650.493451447139 A 311.53999999999996,311.53999999999996 0 0,1 921.8980982207878,650.7603357089201 L 805.0371331231114,523.1450445101631 A 138.50200500669246,138.50200500669246 0 0 0 805.1665365693173,523.0263952023329 Z "/><path class="wedge" fill="url(#hiddenPattern)" d=" M 805.1665365693173,523.0263952023329 L 922.189172343715,650.493451447139 A 311.53999999999996,311.53999999999996 0 0,1 921.8980982207878,650.7603357089201 L 805.0371331231114,523.1450445101631 A 138.50200500669246,138.50200500669246 0 0 0 805.1665365693173,523.0263952023329 Z "/><path class="wedge" fill="rgb(199,209,117)" d=" M 764.099524555197,478.44008392723 L 921.898098220788,650.7603357089199 A 311.53999999999996,311.53999999999996 0 0,1 856.3668811189657,696.8092789498994 L 747.7167202797414,489.95231973747485 A 77.88499999999999,77.88499999999999 0 0 0 764.099524555197,478.44008392723 Z "/><path class="wedge" fill="rgb(205,214,132)" d=" M 805.0371331231115,523.145044510163 L 921.898098220788,650.7603357089199 A 311.53999999999996,311.53999999999996 0 0,1 869.041844312123,689.7707924807582 L 781.5387151238403,540.4880068235947 A 138.50200500669246,138.50200500669246 0 0 0 805.0371331231115,523.145044510163 Z "/><path class="wedge" fill="rgb(211,219,147)" d=" M 838.5990389351742,559.7955409339411 L 921.898098220788,650.7603357089199 A 311.53999999999996,311.53999999999996 0 0,1 869.041844312123,689.7707924807582 L 806.6691919911437,583.3613032010494 A 188.19768298624254,188.19768298624254 0 0 0 838.5990389351742,559.7955409339411 Z "/><path class="wedge" fill="rgb(217,224,163)" d=" M 866.6095812559229,590.3838003404048 L 921.898098220788,650.7603357089199 A 311.53999999999996,311.53999999999996 0 0,1 889.2643995547892,676.8456367635088 L 842.5513821670543,609.6143930013045 A 229.67336374761845,229.67336374761845 0 0 0 866.6095812559229,590.3838003404048 Z "/><path class="wedge" fill="rgb(210,224,163)" d=" M 842.5513821670543,609.6143930013045 L 889.2643995547892,676.8456367635088 A 311.53999999999996,311.53999999999996 0 0,1 869.041844312123,689.7707924807582 L 827.6429200557518,619.1430698663698 A 229.67336374761845,229.67336374761845 0 0 0 842.5513821670543,609.6143930013045 Z "/><path class="wedge" fill="url(#hiddenPattern)" d=" M 842.5513821670543,609.6143930013045 L 889.2643995547892,676.8456367635088 A 311.53999999999996,311.53999999999996 0 0,1 869.041844312123,689.7707924807582 L 827.6429200557518,619.1430698663698 A 229.67336374761845,229.67336374761845 0 0 0 842.5513821670543,609.6143930013045 Z "/><path class="wedge" fill="rgb(182,209,117)" d=" M 781.5387151238403,540.4880068235947 L 869.041844312123,689.7707924807582 A 311.53999999999996,311.53999999999996 0 0,1 856.3668811189654,696.8092789498996 L 775.9037795918433,543.6171218270888 A 138.50200500669246,138.50200500669246 0 0 0 781.5387151238403,540.4880068235947 Z "/><path class="wedge" fill="url(#hiddenPattern)" d=" M 781.5387151238403,540.4880068235947 L 869.041844312123,689.7707924807582 A 311.53999999999996,311.53999999999996 0 0,1 856.3668811189654,696.8092789498996 L 775.9037795918433,543.6171218270888 A 138.50200500669246,138.50200500669246 0 0 0 781.5387151238403,540.4880068235947 Z "/><path class="wedge" fill="rgb(166,209,117)" d=" M 747.7167202797414,489.95231973747485 L 856.3668811189657,696.8092789498994 A 311.53999999999996,311.53999999999996 0 0,1 813.6505240539963,715.3169074917272 L 737.0376310134991,494.5792268729318 A 77.88499999999999,77.88499999999999 0 0 0 747.7167202797414,489.95231973747485 Z "/><path class="wedge" fill="rgb(176,214,132)" d=" M 775.9037795918434,543.6171218270887 L 856.3668811189657,696.8092789498994 A 311.53999999999996,311.53999999999996 0 0,1 830.0256542307721,709.1125489963383 L 764.19320394072,549.0868129408159 A 138.50200500669246,138.50200500669246 0 0 0 775.9037795918434,543.6171218270887 Z "/><path class="wedge" fill="rgb(176,214,132)" d=" M 799.012394453466,587.6131708431576 L 856.3668811189657,696.8092789498994 A 311.53999999999996,311.53999999999996 0 0,1 830.0256542307721,709.1125489963383 L 783.0999662985809,595.0454328830042 A 188.19768298624254,188.19768298624254 0 0 0 799.012394453466,587.6131708431576 Z "/><path class="wedge" fill="url(#hiddenPattern)" d=" M 799.012394453466,587.6131708431576 L 856.3668811189657,696.8092789498994 A 311.53999999999996,311.53999999999996 0 0,1 830.0256542307721,709.1125489963383 L 783.0999662985809,595.0454328830042 A 188.19768298624254,188.19768298624254 0 0 0 799.012394453466,587.6131708431576 Z "/><path class="wedge" fill="rgb(154,209,117)" d=" M 764.19320394072,549.0868129408159 L 830.0256542307721,709.1125489963383 A 311.53999999999996,311.53999999999996 0 0,1 813.6505240539963,715.3169074917272 L 756.9132772483881,551.8450978846165 A 138.50200500669246,138.50200500669246 0 0 0 764.19320394072,549.0868129408159 Z "/><path class="wedge" fill="url(#hiddenPattern)" d=" M 764.19320394072,549.0868129408159 L 830.0256542307721,709.1125489963383 A 311.53999999999996,311.53999999999996 0 0,1 813.6505240539963,715.3169074917272 L 756.9132772483881,551.8450978846165 A 138.50200500669246,138.50200500669246 0 0 0 764.19320394072,549.0868129408159 Z "/><path class="wedge" fill="rgb(121,204,101)" d=" M 737.0376310134991,494.5792268729318 L 813.6505240539963,715.3169074917272 A 311.53999999999996,311.53999999999996 0 0,1 781.0260504648425,724.6828936683135 L 728.8815126162107,496.92072341707836 A 77.88499999999999,77.88499999999999 0 0 0 737.0376310134991,494.5792268729318 Z "/><path class="wedge" fill="url(#hiddenPattern)" d=" M 737.0376310134991,494.5792268729318 L 813.6505240539963,715.3169074917272 A 311.53999999999996,311.53999999999996 0 0,1 781.0260504648425,724.6828936683135 L 728.8815126162107,496.92072341707836 A 77.88499999999999,77.88499999999999 0 0 0 737.0376310134991,494.5792268729318 Z "/><path class="wedge" fill="rgb(117,209,130)" d=" M 728.8815126162107,496.92072341707836 L 781.0260504648425,724.6828936683135 A 311.53999999999996,311.53999999999996 0 0,1 754.7366553566832,729.5251419796568 L 722.3091638391708,498.1312854949142 A 77.88499999999999,77.88499999999999 0 0 0 728.8815126162107,496.92072341707836 Z "/><path class="wedge" fill="rgb(132,214,144)" d=" M 742.409345154963,556.0089544177172 L 781.0260504648425,724.6828936683135 A 311.53999999999996,311.53999999999996 0 0,1 754.7366553566832,729.5251419796568 L 730.7218124692944,558.1616831198463 A 138.50200500669246,138.50200500669246 0 0 0 742.409345154963,556.0089544177172 Z "/><path class="wedge" fill="rgb(147,219,157)" d=" M 753.4998767563328,604.4512966262248 L 781.0260504648425,724.6828936683135 A 311.53999999999996,311.53999999999996 0 0,1 754.7366553566832,729.5251419796568 L 737.6187595756644,607.3764423944692 A 188.19768298624254,188.19768298624254 0 0 0 753.4998767563328,604.4512966262248 Z "/><path class="wedge" fill="rgb(163,224,171)" d=" M 762.7559603208161,644.8809517282272 L 781.0260504648425,724.6828936683135 A 311.53999999999996,311.53999999999996 0 0,1 754.7366553566832,729.5251419796568 L 743.37490554332,648.4507516183455 A 229.67336374761845,229.67336374761845 0 0 0 762.7559603208161,644.8809517282272 Z "/><path class="wedge" fill="rgb(101,204,149)" d=" M 722.3091638391708,498.1312854949142 L 754.7366553566832,729.5251419796568 A 311.53999999999996,311.53999999999996 0 0,1 735.8134968945383,731.5898025833419 L 717.5783742236346,498.6474506458355 A 77.88499999999999,77.88499999999999 0 0 0 722.3091638391708,498.1312854949142 Z "/><path class="wedge" fill="url(#hiddenPattern)" d=" M 722.3091638391708,498.1312854949142 L 754.7366553566832,729.5251419796568 A 311.53999999999996,311.53999999999996 0 0,1 735.8134968945383,731.5898025833419 L 717.5783742236346,498.6474506458355 A 77.88499999999999,77.88499999999999 0 0 0 722.3091638391708,498.1312854949142 Z "/><path class="wedge" fill="rgb(101,204,182)" d=" M 717.5783742236346,498.6474506458355 L 735.8134968945383,731.5898025833419 A 311.53999999999996,311.53999999999996 0 0,1 722.893685584062,732.3315845345787 L 714.3484213960155,498.8328961336447 A 77.88499999999999,77.88499999999999 0 0 0 717.5783742236346,498.6474506458355 Z "/><path class="wedge" fill="url(#hiddenPattern)" d=" M 717.5783742236346,498.6474506458355 L 735.8134968945383,731.5898025833419 A 311.53999999999996,311.53999999999996 0 0,1 722.893685584062,732.3315845345787 L 714.3484213960155,498.8328961336447 A 77.88499999999999,77.88499999999999 0 0 0 717.5783742236346,498.6474506458355 Z "/><path class="wedge" fill="rgb(101,194,204)" d=" M 714.3484213960155,498.8328961336447 L 722.893685584062,732.3315845345787 A 311.53999999999996,311.53999999999996 0 0,1 718.885563488803,732.4524442863675 L 713.3463908722007,498.8631110715919 A 77.88499999999999,77.88499999999999 0 0 0 714.3484213960155,498.8328961336447 Z "/><path class="wedge" fill="url(#hiddenPattern)" d=" M 714.3484213960155,498.8328961336447 L 722.893685584062,732.3315845345787 A 311.53999999999996,311.53999999999996 0 0,1 718.885563488803,732.4524442863675 L 713.3463908722007,498.8631110715919 A 77.88499999999999,77.88499999999999 0 0 0 714.3484213960155,498.8328961336447 Z "/><path class="wedge" fill="rgb(101,163,204)" d=" M 713.3463908722007,498.8631110715919 L 718.885563488803,732.4524442863675 A 311.53999999999996,311.53999999999996 0 0,1 716.228790992961,732.5041093400613 L 712.6821977482402,498.87602733501535 A 77.88499999999999,77.88499999999999 0 0 0 713.3463908722007,498.8631110715919 Z "/><path class="wedge" fill="url(#hiddenPattern)" d=" M 713.3463908722007,498.8631110715919 L 718.885563488803,732.4524442863675 A 311.53999999999996,311.53999999999996 0 0,1 716.228790992961,732.5041093400613 L 712.6821977482402,498.87602733501535 A 77.88499999999999,77.88499999999999 0 0 0 713.3463908722007,498.8631110715919 Z "/><path class="wedge" fill="rgb(101,134,204)" d=" M 712.6821977482402,498.87602733501535 L 716.228790992961,732.5041093400613 A 311.53999999999996,311.53999999999996 0 0,1 714.4791565741248,732.5257553174486 L 712.2447891435312,498.88143882936214 A 77.88499999999999,77.88499999999999 0 0 0 712.6821977482402,498.87602733501535 Z "/><path class="wedge" fill="url(#hiddenPattern)" d=" M 712.6821977482402,498.87602733501535 L 716.228790992961,732.5041093400613 A 311.53999999999996,311.53999999999996 0 0,1 714.4791565741248,732.5257553174486 L 712.2447891435312,498.88143882936214 A 77.88499999999999,77.88499999999999 0 0 0 712.6821977482402,498.87602733501535 Z "/><path class="wedge" fill="rgb(101,106,204)" d=" M 712.2447891435312,498.88143882936214 L 714.4791565741248,732.5257553174486 A 311.53999999999996,311.53999999999996 0 0,1 713.2959217411151,732.5348235191369 L 711.9489804352788,498.8837058797842 A 77.88499999999999,77.88499999999999 0 0 0 712.2447891435312,498.88143882936214 Z "/><path class="wedge" fill="url(#hiddenPattern)" d=" M 712.2447891435312,498.88143882936214 L 714.4791565741248,732.5257553174486 A 311.53999999999996,311.53999999999996 0 0,1 713.2959217411151,732.5348235191369 L 711.9489804352788,498.8837058797842 A 77.88499999999999,77.88499999999999 0 0 0 712.2447891435312,498.88143882936214 Z "/><path class="wedge" fill="rgb(124,101,204)" d=" M 711.9489804352788,498.8837058797842 L 713.2959217411151,732.5348235191369 A 311.53999999999996,311.53999999999996 0 0,1 712.3350069375701,732.5388809818354 L 711.7087517343925,498.8847202454589 A 77.88499999999999,77.88499999999999 0 0 0 711.9489804352788,498.8837058797842 Z "/><path class="wedge" fill="url(#hiddenPattern)" d=" M 711.9489804352788,498.8837058797842 L 713.2959217411151,732.5348235191369 A 311.53999999999996,311.53999999999996 0 0,1 712.3350069375701,732.5388809818354 L 711.7087517343925,498.8847202454589 A 77.88499999999999,77.88499999999999 0 0 0 711.9489804352788,498.8837058797842 Z "/><path class="wedge" fill="rgb(150,101,204)" d=" M 711.7087517343925,498.8847202454589 L 712.3350069375701,732.5388809818354 A 311.53999999999996,311.53999999999996 0 0,1 711.9268085545658,732.5397076368561 L 711.6067021386415,498.884926909214 A 77.88499999999999,77.88499999999999 0 0 0 711.7087517343925,498.8847202454589 Z "/><path class="wedge" fill="url(#hiddenPattern)" d=" M 711.7087517343925,498.8847202454589 L 712.3350069375701,732.5388809818354 A 311.53999999999996,311.53999999999996 0 0,1 711.9268085545658,732.5397076368561 L 711.6067021386415,498.884926909214 A 77.88499999999999,77.88499999999999 0 0 0 711.7087517343925,498.8847202454589 Z "/><path class="wedge" fill="rgb(174,101,204)" d=" M 711.6067021386415,498.884926909214 L 711.9268085545658,732.5397076368561 A 311.53999999999996,311.53999999999996 0 0,1 711.7066372602193,732.5399314711401 L 711.5516593150548,498.884982867785 A 77.88499999999999,77.88499999999999 0 0 0 711.6067021386415,498.884926909214 Z "/><path class="wedge" fill="url(#hiddenPattern)" d=" M 711.6067021386415,498.884926909214 L 711.9268085545658,732.5397076368561 A 311.53999999999996,311.53999999999996 0 0,1 711.7066372602193,732.5399314711401 L 711.5516593150548,498.884982867785 A 77.88499999999999,77.88499999999999 0 0 0 711.6067021386415,498.884926909214 Z "/><path class="wedge" fill="rgb(197,101,204)" d=" M 711.5516593150548,498.884982867785 L 711.7066372602193,732.5399314711401 A 311.53999999999996,311.53999999999996 0 0,1 711.5783046508934,732.5399901591795 L 711.5195761627234,498.8849975397949 A 77.88499999999999,77.88499999999999 0 0 0 711.5516593150548,498.884982867785 Z "/><path class="wedge" fill="url(#hiddenPattern)" d=" M 711.5516593150548,498.884982867785 L 711.7066372602193,732.5399314711401 A 311.53999999999996,311.53999999999996 0 0,1 711.5783046508934,732.5399901591795 L 711.5195761627234,498.8849975397949 A 77.88499999999999,77.88499999999999 0 0 0 711.5516593150548,498.884982867785 Z "/><path class="wedge" fill="rgb(204,101,189)" d=" M 711.5195761627234,498.8849975397949 L 711.5783046508934,732.5399901591795 A 311.53999999999996,311.53999999999996 0 0,1 711.549302928653,732.5399960987693 L 711.5123257321633,498.8849990246923 A 77.88499999999999,77.88499999999999 0 0 0 711.5195761627234,498.8849975397949 Z "/><path class="wedge" fill="url(#hiddenPattern)" d=" M 711.5195761627234,498.8849975397949 L 711.5783046508934,732.5399901591795 A 311.53999999999996,311.53999999999996 0 0,1 711.549302928653,732.5399960987693 L 711.5123257321633,498.8849990246923 A 77.88499999999999,77.88499999999999 0 0 0 711.5195761627234,498.8849975397949 Z "/><path class="wedge" fill="rgb(204,101,170)" d=" M 711.5123257321633,498.8849990246923 L 711.549302928653,732.5399960987693 A 311.53999999999996,311.53999999999996 0 0,1 711.5205428870084,732.5399993227029 L 711.5051357217521,498.8849998306757 A 77.88499999999999,77.88499999999999 0 0 0 711.5123257321633,498.8849990246923 Z "/><path class="wedge" fill="url(#hiddenPattern)" d=" M 711.5123257321633,498.8849990246923 L 711.549302928653,732.5399960987693 A 311.53999999999996,311.53999999999996 0 0,1 711.5205428870084,732.5399993227029 L 711.5051357217521,498.8849998306757 A 77.88499999999999,77.88499999999999 0 0 0 711.5123257321633,498.8849990246923 Z "/><path class="wedge" fill="rgb(204,101,154)" d=" M 711.5051357217521,498.8849998306757 L 711.5205428870084,732.5399993227029 A 311.53999999999996,311.53999999999996 0 0,1 711.502900172284,732.5399999865009 L 711.500725043071,498.8849999966252 A 77.88499999999999,77.88499999999999 0 0 0 711.5051357217521,498.8849998306757 Z "/><path class="wedge" fill="url(#hiddenPattern)" d=" M 711.5051357217521,498.8849998306757 L 711.5205428870084,732.5399993227029 A 311.53999999999996,311.53999999999996 0 0,1 711.502900172284,732.5399999865009 L 711.500725043071,498.8849999966252 A 77.88499999999999,77.88499999999999 0 0 0 711.5051357217521,498.8849998306757 Z "/><path class="wedge" fill="rgb(204,101,140)" d=" M 711.500725043071,498.8849999966252 L 711.502900172284,732.5399999865009 A 311.53999999999996,311.53999999999996 0 0,1 711.4999999999982,732.54 L 711.4999999999995,498.885 A 77.88499999999999,77.88499999999999 0 0 0 711.500725043071,498.8849999966252 Z "/><path class="wedge" fill="url(#hiddenPattern)" d=" M 711.500725043071,498.8849999966252 L 711.502900172284,732.5399999865009 A 311.53999999999996,311.53999999999996 0 0,1 711.4999999999982,732.54 L 711.4999999999995,498.885 A 77.88499999999999,77.88499999999999 0 0 0 711.500725043071,498.8849999966252 Z "/><circle cx="711.5" cy="421" r="77.88499999999999"/><circle cx="711.5" cy="421" r="311.53999999999996"/><text x="711.5" y="421" text-anchor="middle" style="font-color:black;font-weight:bold" transform="rotate(360,711.5,421)">Bacteria</text><path class="line" d=" M 712.9843753926898,343.1291463081752 A 77.88499999999999,77.88499999999999 0 1 0 711.5,498.885"/><line x1="717.4375015707592" y1="109.516585232701" x2="712.9843753926898" y2="343.1291463081752"/><text x="711.5" y="324.92989849799227" text-anchor="middle" style="font-color:black;font-weight:normal" transform="rotate(270.5460203808496,711.5,421)">Proteobacteria</text><path class="line" d=" M 598.2943693082726,341.2046958113317 A 138.50200500669246,138.50200500669246 0 0 0 711.5,559.5020050066925"/><line x1="456.8604936333119" y1="241.5121357937273" x2="598.2943693082726" y2="341.2046958113317"/><text x="711.5" y="574.4107084005575" text-anchor="middle" style="font-color:black;font-weight:normal" transform="rotate(62.589439077221904,711.5,421)">Alphaproteobacteria</text><path class="line" d=" M 523.3025283898729,420.7179345011194 A 188.19768298624254,188.19768298624254 0 0 0 711.5,609.1976829862425"/><line x1="399.96034990927615" y1="420.53307243677546" x2="523.3025283898729" y2="420.7179345011194"/><text x="711.5" y="621.6403872146553" text-anchor="middle" style="font-color:black;font-weight:normal" transform="rotate(45.04293668345487,711.5,421)">Pelagibacterales</text><path class="line" d=" M 481.83859401739915,423.34363334180887 A 229.67336374761845,229.67336374761845 0 0 0 711.5,650.6733637476184"/><line x1="399.97622008774897" y1="424.1790170152663" x2="481.83859401739915" y2="423.34363334180887"/><text x="440.8933181261908" y="421" text-anchor="end" style="font-color:black;font-weight:normal" transform="rotate(-45.29233392037497,711.5,421)">Pelagibacteraceae&#160;&#160;&#160;25%</text><path class="line" d=" M 481.8268942123239,420.6557718942278 A 229.67336374761845,229.67336374761845 0 0 0 481.83859401739915,423.34363334180887"/><path class="line" d=" M 531.5699769305807,365.8315789637908 A 188.19768298624254,188.19768298624254 0 0 0 523.3025283898729,420.7179345011194"/><line x1="413.6461768413768" y1="329.67491237457466" x2="531.5699769305807" y2="365.8315789637908"/><text x="711.5" y="203.7693404807943" text-anchor="middle" style="font-color:black;font-weight:normal" transform="rotate(278.56597946901553,711.5,421)">unlabeled taxon</text><path class="line" d=" M 491.9163527318184,353.6733643529645 A 229.67336374761845,229.67336374761845 0 0 0 481.8268942123239,420.6557718942278"/><text x="440.8933181261908" y="421" text-anchor="end" style="font-color:black;font-weight:normal" transform="rotate(8.56597946901549,711.5,421)">unlabeled taxon&#160;&#160;&#160;5%</text><path class="line" d=" M 545.3594298292518,332.59367203232046 A 188.19768298624254,188.19768298624254 0 0 0 531.5699769305807,365.8315789637908"/><line x1="436.47305806480847" y1="274.65331295250724" x2="545.3594298292518" y2="332.59367203232046"/><text x="711.5" y="220.3596127853447" text-anchor="middle" style="font-color:black;font-weight:normal" transform="rotate(292.53215806467875,711.5,421)">Rhodob...erales</text><path class="line" d=" M 505.0802157220037,320.29882486400004 A 229.67336374761845,229.67336374761845 0 0 0 491.9163527318184,353.6733643529645"/><line x1="431.50227390480853" y1="284.4040813877585" x2="505.0802157220037" y2="320.29882486400004"/><text x="440.8933181261908" y="421" text-anchor="end" style="font-color:black;font-weight:normal" transform="rotate(21.52567953450211,711.5,421)">Rhodobacteraceae&#160;&#160;&#160;2%</text><path class="line" d=" M 508.7447747464968,313.11036821108786 A 229.67336374761845,229.67336374761845 0 0 0 505.0802157220037,320.29882486400004"/><line x1="1012.54" y1="421" x2="1033.54" y2="421" class="tick" transform="rotate(211.59855435634006,711.5,421)"/><text x="385.96000000000004" y="421" text-anchor="end" style="font-color:black;font-weight:normal" transform="rotate(31.59855435634006,711.5,421)">6 more</text><path class="line" d=" M 557.6752420396377,312.5734731727231 A 188.19768298624254,188.19768298624254 0 0 0 545.3594298292518,332.59367203232046"/><path class="line" d=" M 699.8711118204453,282.9870500620276 A 138.50200500669246,138.50200500669246 0 0 0 598.2943693082726,341.2046958113317"/><line x1="685.3425171297454" y1="110.56005783744206" x2="699.8711118204453" y2="282.9870500620276"/><text x="711.5" y="247.7110204076225" text-anchor="middle" style="font-color:black;font-weight:normal" transform="rotate(330.18127340306074,711.5,421)">Gammaproteobacteria</text><path class="line" d=" M 607.3711139232868,264.23411415166527 A 188.19768298624254,188.19768298624254 0 0 0 557.6752420396377,312.5734731727231"/><line x1="539.1263944720794" y1="161.49178872855526" x2="607.3711139232868" y2="264.23411415166527"/><text x="711.5" y="203.7693404807943" text-anchor="middle" style="font-color:black;font-weight:normal" transform="rotate(315.79275074302114,711.5,421)">Alteromonadales</text><path class="line" d=" M 565.9460238565106,243.33769661527415 A 229.67336374761845,229.67336374761845 0 0 0 523.7747898495527,288.67804608034146"/><line x1="514.0635842666893" y1="180.01030448921" x2="565.9460238565106" y2="243.33769661527415"/><text x="440.8933181261908" y="421" text-anchor="end" style="font-color:black;font-weight:normal" transform="rotate(42.926015955813014,711.5,421)">Alteromonadaceae&#160;&#160;&#160;4%</text><path class="line" d=" M 580.8999500838038,232.07281567484014 A 229.67336374761845,229.67336374761845 0 0 0 565.9460238565106,243.33769661527415"/><line x1="534.3478092235298" y1="164.73007803665865" x2="580.8999500838038" y2="232.07281567484014"/><text x="440.8933181261908" y="421" text-anchor="end" style="font-color:black;font-weight:normal" transform="rotate(53.00906934960867,711.5,421)">Pseudoalteromonadaceae&#160;&#160;&#160;1%</text><path class="line" d=" M 584.4228163224541,229.6854856428057 A 229.67336374761845,229.67336374761845 0 0 0 580.8999500838038,232.07281567484014"/><line x1="539.1263944720791" y1="161.49178872855543" x2="584.4228163224541" y2="229.6854856428057"/><path class="line" d=" M 665.4418698869241,238.52529892646155 A 188.19768298624254,188.19768298624254 0 0 0 607.3711139232868,264.23411415166527"/><line x1="635.2559696392406" y1="118.93374992504118" x2="665.4418698869241" y2="238.52529892646155"/><text x="711.5" y="220.3596127853447" text-anchor="middle" style="font-color:black;font-weight:normal" transform="rotate(336.12029234873654,711.5,421)">unlabeled taxon</text><path class="line" d=" M 655.2914138838314,198.31086945706778 A 229.67336374761845,229.67336374761845 0 0 0 584.4228163224542,229.6854856428056"/><text x="440.8933181261908" y="421" text-anchor="end" style="font-color:black;font-weight:normal" transform="rotate(66.12029234873657,711.5,421)">unlabeled taxon&#160;&#160;&#160;5%</text><path class="line" d=" M 679.5052063361809,235.54191562565978 A 188.19768298624254,188.19768298624254 0 0 0 665.4418698869241,238.52529892646155"/><line x1="658.536234134961" y1="113.99509595872365" x2="679.5052063361809" y2="235.54191562565978"/><text x="461.63115850687876" y="421" text-anchor="end" style="font-color:black;font-weight:normal" transform="rotate(78.02288771173279,711.5,421)">Oceanospirillales&#160;&#160;&#160;1%</text><line x1="1012.54" y1="421" x2="1033.54" y2="421" class="tick" transform="rotate(262.69774135463433,711.5,421)"/><text x="385.96000000000004" y="421" text-anchor="end" style="font-color:black;font-weight:normal" transform="rotate(82.69774135463433,711.5,421)">9 more</text><path class="line" d=" M 695.6985694648066,233.46684913212889 A 188.19768298624254,188.19768298624254 0 0 0 679.5052063361809,235.54191562565978"/><line x1="1012.54" y1="421" x2="1033.54" y2="421" class="tick" transform="rotate(268.1378547066884,711.5,421)"/><text x="385.96000000000004" y="421" text-anchor="end" style="font-color:black;font-weight:normal" transform="rotate(88.13785470668843,711.5,421)">4 more</text><path class="line" d=" M 714.1396477893063,282.52315121139463 A 138.50200500669246,138.50200500669246 0 0 0 699.8711118204453,282.9870500620276"/><line x1="717.437501570759" y1="109.516585232701" x2="714.1396477893063" y2="282.52315121139463"/><path class="line" d=" M 784.1809932020889,448.99189975971467 A 77.88499999999999,77.88499999999999 0 0 0 712.9843753926898,343.1291463081752"/><line x1="1002.2239728083554" y1="532.9675990388588" x2="784.1809932020889" y2="448.99189975971467"/><text x="711.5" y="300.6830964953153" text-anchor="middle" style="font-color:black;font-weight:normal" transform="rotate(416.0777087792532,711.5,421)">Cyanobacteria</text><path class="line" d=" M 840.7477792176554,470.77767529905424 A 138.50200500669246,138.50200500669246 0 0 0 714.1396477893064,282.52315121139463"/><text x="711.5" y="267.5892915994425" text-anchor="middle" style="font-color:black;font-weight:normal" transform="rotate(416.0777087792532,711.5,421)">unlabeled taxon</text><path class="line" d=" M 887.1395916529398,488.595130929519 A 188.19768298624254,188.19768298624254 0 0 0 715.0867754970278,232.83649949332852"/><line x1="1002.2514987182751" y1="532.8961017778404" x2="887.1395916529398" y2="488.595130929519"/><text x="711.5" y="203.7693404807943" text-anchor="middle" style="font-color:black;font-weight:normal" transform="rotate(416.07066378512525,711.5,421)">Synechococcales</text><path class="line" d=" M 940.889641312866,432.4125577107205 A 229.67336374761845,229.67336374761845 0 0 0 715.877241952921,191.3683519894711"/><line x1="1022.6551452398289" y1="436.48054232838626" x2="940.889641312866" y2="432.4125577107205"/><text x="982.1066818738092" y="421" text-anchor="start" style="font-color:black;font-weight:normal" transform="rotate(316.97013149668004,711.5,421)">25%&#160;&#160;&#160;Prochloraceae</text><path class="line" d=" M 925.8476751790706,503.4919884623563 A 229.67336374761845,229.67336374761845 0 0 0 940.889641312866,432.4125577107205"/><text x="982.1066818738092" y="421" text-anchor="start" style="font-color:black;font-weight:normal" transform="rotate(371.9487545201061,711.5,421)">5%&#160;&#160;&#160;Synechococcaceae</text><path class="line" d=" M 887.122963571573,488.63832159159614 A 188.19768298624254,188.19768298624254 0 0 0 887.1395916529398,488.595130929519"/><path class="line" d=" M 764.099524555197,478.44008392723 A 77.88499999999999,77.88499999999999 0 0 0 784.1809932020889,448.99189975971467"/><line x1="921.898098220788" y1="650.7603357089199" x2="764.099524555197" y2="478.44008392723"/><text x="711.5" y="517.0701015020077" text-anchor="middle" style="font-color:black;font-weight:normal" transform="rotate(304.2910755505865,711.5,421)">Act...ria</text><path class="line" d=" M 822.3159120481189,504.08212219134407 A 138.50200500669246,138.50200500669246 0 0 0 840.7477792176554,470.77767529905424"/><line x1="960.7641838491998" y1="607.881080503063" x2="822.3159120481189" y2="504.08212219134407"/><text x="711.5" y="594.2889795923775" text-anchor="middle" style="font-color:black;font-weight:normal" transform="rotate(298.9617041724741,711.5,421)">Acti...eria</text><path class="line" d=" M 864.0381380716826,531.22923530087 A 188.19768298624254,188.19768298624254 0 0 0 887.122963571573,488.63832159159614"/><line x1="964.0096525142973" y1="603.4720443988854" x2="864.0381380716826" y2="531.22923530087"/><text x="711.5" y="621.6403872146553" text-anchor="middle" style="font-color:black;font-weight:normal" transform="rotate(298.4582648917796,711.5,421)">unlab...taxon</text><path class="line" d=" M 897.6550403534087,555.5219497560404 A 229.67336374761845,229.67336374761845 0 0 0 925.827382541459,503.5446976375403"/><text x="982.1066818738092" y="421" text-anchor="start" style="font-color:black;font-weight:normal" transform="rotate(388.4582648917796,711.5,421)">4%&#160;&#160;&#160;unlabeled taxon</text><path class="line" d=" M 862.0775882771914,533.8926826238746 A 188.19768298624254,188.19768298624254 0 0 0 864.0381380716826,531.22923530087"/><line x1="960.7641838491999" y1="607.8810805030628" x2="862.0775882771914" y2="533.8926826238746"/><path class="line" d=" M 805.1665365693173,523.0263952023329 A 138.50200500669246,138.50200500669246 0 0 0 822.3159120481189,504.08212219134407"/><line x1="922.189172343715" y1="650.493451447139" x2="805.1665365693173" y2="523.0263952023329"/><text x="711.5" y="574.4107084005575" text-anchor="middle" style="font-color:black;font-weight:normal" transform="rotate(312.153088981758,711.5,421)">Aci...iia</text><path class="line" d=" M 839.9063962198612,558.5869372114164 A 188.19768298624254,188.19768298624254 0 0 0 862.0775882771914,533.8926826238747"/><line x1="924.0622804891805" y1="648.7596288046652" x2="839.9063962198612" y2="558.5869372114164"/><text x="711.5" y="638.2306595192057" text-anchor="middle" style="font-color:black;font-weight:normal" transform="rotate(311.9183817799121,711.5,421)">Acidimicrobiales</text><path class="line" d=" M 881.5537623037386,575.3747775431253 A 229.67336374761845,229.67336374761845 0 0 0 895.262417559384,558.7723771584001"/><line x1="942.1691043473519" y1="630.4013751138957" x2="881.5537623037386" y2="575.3747775431253"/><text x="982.1066818738092" y="421" text-anchor="start" style="font-color:black;font-weight:normal" transform="rotate(399.546596722115,711.5,421)">1%&#160;&#160;&#160;Microthrixaceae</text><path class="line" d=" M 871.2162123515618,586.0472221129962 A 229.67336374761845,229.67336374761845 0 0 0 881.5537623037386,575.3747775431253"/><line x1="928.1467542604687" y1="644.877992371747" x2="871.2162123515618" y2="586.0472221129962"/><text x="982.1066818738092" y="421" text-anchor="start" style="font-color:black;font-weight:normal" transform="rotate(404.0867954141611,711.5,421)">1%&#160;&#160;&#160;Acidimicrobiaceae</text><path class="line" d=" M 868.2050586307212,588.908840192195 A 229.67336374761845,229.67336374761845 0 0 0 871.2162123515618,586.0472221129962"/><path class="line" d=" M 838.7748734203516,559.634319261948 A 188.19768298624254,188.19768298624254 0 0 0 839.9063962198612,558.5869372114164"/><line x1="922.1891723437151" y1="650.4934514471389" x2="838.7748734203516" y2="559.634319261948"/><path class="line" d=" M 805.0371331231114,523.1450445101631 A 138.50200500669246,138.50200500669246 0 0 0 805.1665365693173,523.0263952023329"/><path class="line" d=" M 747.7167202797414,489.95231973747485 A 77.88499999999999,77.88499999999999 0 0 0 764.099524555197,478.44008392723"/><line x1="856.3668811189657" y1="696.8092789498994" x2="747.7167202797414" y2="489.95231973747485"/><text x="711.5" y="541.3169035046847" text-anchor="middle" style="font-color:black;font-weight:normal" transform="rotate(324.9041949939802,711.5,421)">Bac...tes</text><path class="line" d=" M 781.5387151238403,540.4880068235947 A 138.50200500669246,138.50200500669246 0 0 0 805.0371331231115,523.145044510163"/><line x1="869.041844312123" y1="689.7707924807582" x2="781.5387151238403" y2="540.4880068235947"/><text x="711.5" y="594.2889795923775" text-anchor="middle" style="font-color:black;font-weight:normal" transform="rotate(323.5708909633447,711.5,421)">Flav...riia</text><path class="line" d=" M 806.6691919911437,583.3613032010494 A 188.19768298624254,188.19768298624254 0 0 0 838.5990389351742,559.7955409339411"/><text x="711.5" y="621.6403872146553" text-anchor="middle" style="font-color:black;font-weight:normal" transform="rotate(323.5708909633447,711.5,421)">Flavo...iales</text><path class="line" d=" M 842.5513821670543,609.6143930013045 A 229.67336374761845,229.67336374761845 0 0 0 866.6095812559229,590.3838003404048"/><line x1="889.2643995547892" y1="676.8456367635088" x2="842.5513821670543" y2="609.6143930013045"/><text x="982.1066818738092" y="421" text-anchor="start" style="font-color:black;font-weight:normal" transform="rotate(411.36338539007033,711.5,421)">2%&#160;&#160;&#160;Flavobacteriaceae</text><line x1="1012.54" y1="421" x2="1033.54" y2="421" class="tick" transform="rotate(417.41550204904917,711.5,421)"/><text x="1037.04" y="421" text-anchor="start" style="font-color:black;font-weight:normal" transform="rotate(417.41550204904917,711.5,421)">3 more</text><path class="line" d=" M 827.6429200557518,619.1430698663698 A 229.67336374761845,229.67336374761845 0 0 0 842.5513821670543,609.6143930013045"/><path class="line" d=" M 775.9037795918433,543.6171218270888 A 138.50200500669246,138.50200500669246 0 0 0 781.5387151238403,540.4880068235947"/><path class="line" d=" M 737.0376310134991,494.5792268729318 A 77.88499999999999,77.88499999999999 0 0 0 747.7167202797414,489.95231973747485"/><line x1="813.6505240539963" y1="715.3169074917272" x2="737.0376310134991" y2="494.5792268729318"/><text x="711.5" y="517.0701015020077" text-anchor="middle" style="font-color:black;font-weight:normal" transform="rotate(336.5744611184481,711.5,421)">Ver...bia</text><path class="line" d=" M 764.19320394072,549.0868129408159 A 138.50200500669246,138.50200500669246 0 0 0 775.9037795918434,543.6171218270887"/><line x1="830.0256542307721" y1="709.1125489963383" x2="764.19320394072" y2="549.0868129408159"/><text x="711.5" y="574.4107084005575" text-anchor="middle" style="font-color:black;font-weight:normal" transform="rotate(334.9640021295492,711.5,421)">Ver...iae</text><path class="line" d=" M 783.0999662985809,595.0454328830042 A 188.19768298624254,188.19768298624254 0 0 0 799.012394453466,587.6131708431576"/><text x="961.3688414931212" y="421" text-anchor="start" style="font-color:black;font-weight:normal" transform="rotate(424.96400212954927,711.5,421)">1%&#160;&#160;&#160;Verrucomicrobiales</text><line x1="1012.54" y1="421" x2="1033.54" y2="421" class="tick" transform="rotate(429.2488475644029,711.5,421)"/><text x="1037.04" y="421" text-anchor="start" style="font-color:black;font-weight:normal" transform="rotate(429.2488475644029,711.5,421)">2 more</text><path class="line" d=" M 756.9132772483881,551.8450978846165 A 138.50200500669246,138.50200500669246 0 0 0 764.19320394072,549.0868129408159"/><path class="line" d=" M 728.8815126162107,496.92072341707836 A 77.88499999999999,77.88499999999999 0 0 0 737.0376310134991,494.5792268729318"/><line x1="781.0260504648425" y1="724.6828936683135" x2="728.8815126162107" y2="496.92072341707836"/><text x="906.2125" y="421" text-anchor="start" style="font-color:black;font-weight:normal" transform="rotate(433.9820390924333,711.5,421)">2%&#160;&#160;&#160;Chloroflexi</text><path class="line" d=" M 722.3091638391708,498.1312854949142 A 77.88499999999999,77.88499999999999 0 0 0 728.8815126162107,496.92072341707836"/><line x1="754.7366553566832" y1="729.5251419796568" x2="722.3091638391708" y2="498.1312854949142"/><text x="711.5" y="541.3169035046847" text-anchor="middle" style="font-color:black;font-weight:normal" transform="rotate(349.56365237386467,711.5,421)">Can...bia</text><path class="line" d=" M 730.7218124692944,558.1616831198463 A 138.50200500669246,138.50200500669246 0 0 0 742.409345154963,556.0089544177172"/><text x="711.5" y="594.2889795923775" text-anchor="middle" style="font-color:black;font-weight:normal" transform="rotate(349.56365237386467,711.5,421)">unlab...taxon</text><path class="line" d=" M 737.6187595756644,607.3764423944692 A 188.19768298624254,188.19768298624254 0 0 0 753.4998767563328,604.4512966262248"/><text x="711.5" y="638.2306595192057" text-anchor="middle" style="font-color:black;font-weight:normal" transform="rotate(349.56365237386467,711.5,421)">u...n</text><path class="line" d=" M 743.37490554332,648.4507516183455 A 229.67336374761845,229.67336374761845 0 0 0 762.7559603208161,644.8809517282272"/><text x="982.1066818738092" y="421" text-anchor="start" style="font-color:black;font-weight:normal" transform="rotate(439.5636523738646,711.5,421)">1%&#160;&#160;&#160;unlabeled taxon</text><path class="line" d=" M 717.5783742236346,498.6474506458355 A 77.88499999999999,77.88499999999999 0 0 0 722.3091638391708,498.1312854949142"/><line x1="735.8134968945383" y1="731.5898025833419" x2="717.5783742236346" y2="498.6474506458355"/><path class="line" d=" M 714.3484213960155,498.8328961336447 A 77.88499999999999,77.88499999999999 0 0 0 717.5783742236346,498.6474506458355"/><line x1="722.893685584062" y1="732.3315845345787" x2="714.3484213960155" y2="498.8328961336447"/><path class="line" d=" M 713.3463908722007,498.8631110715919 A 77.88499999999999,77.88499999999999 0 0 0 714.3484213960155,498.8328961336447"/><line x1="718.885563488803" y1="732.4524442863675" x2="713.3463908722007" y2="498.8631110715919"/><path class="line" d=" M 712.6821977482402,498.87602733501535 A 77.88499999999999,77.88499999999999 0 0 0 713.3463908722007,498.8631110715919"/><line x1="716.228790992961" y1="732.5041093400613" x2="712.6821977482402" y2="498.87602733501535"/><path class="line" d=" M 712.2447891435312,498.88143882936214 A 77.88499999999999,77.88499999999999 0 0 0 712.6821977482402,498.87602733501535"/><line x1="714.4791565741248" y1="732.5257553174486" x2="712.2447891435312" y2="498.88143882936214"/><path class="line" d=" M 711.9489804352788,498.8837058797842 A 77.88499999999999,77.88499999999999 0 0 0 712.2447891435312,498.88143882936214"/><line x1="713.2959217411151" y1="732.5348235191369" x2="711.9489804352788" y2="498.8837058797842"/><path class="line" d=" M 711.7087517343925,498.8847202454589 A 77.88499999999999,77.88499999999999 0 0 0 711.9489804352788,498.8837058797842"/><line x1="712.3350069375701" y1="732.5388809818354" x2="711.7087517343925" y2="498.8847202454589"/><path class="line" d=" M 711.6067021386415,498.884926909214 A 77.88499999999999,77.88499999999999 0 0 0 711.7087517343925,498.8847202454589"/><line x1="711.9268085545658" y1="732.5397076368561" x2="711.6067021386415" y2="498.884926909214"/><path class="line" d=" M 711.5516593150548,498.884982867785 A 77.88499999999999,77.88499999999999 0 0 0 711.6067021386415,498.884926909214"/><line x1="711.7066372602193" y1="732.5399314711401" x2="711.5516593150548" y2="498.884982867785"/><path class="line" d=" M 711.5195761627234,498.8849975397949 A 77.88499999999999,77.88499999999999 0 0 0 711.5516593150548,498.884982867785"/><line x1="711.5783046508934" y1="732.5399901591795" x2="711.5195761627234" y2="498.8849975397949"/><path class="line" d=" M 711.5123257321633,498.8849990246923 A 77.88499999999999,77.88499999999999 0 0 0 711.5195761627234,498.8849975397949"/><line x1="711.549302928653" y1="732.5399960987693" x2="711.5123257321633" y2="498.8849990246923"/><path class="line" d=" M 711.5051357217521,498.8849998306757 A 77.88499999999999,77.88499999999999 0 0 0 711.5123257321633,498.8849990246923"/><line x1="711.5205428870084" y1="732.5399993227029" x2="711.5051357217521" y2="498.8849998306757"/><path class="line" d=" M 711.500725043071,498.8849999966252 A 77.88499999999999,77.88499999999999 0 0 0 711.5051357217521,498.8849998306757"/><line x1="711.502900172284" y1="732.5399999865009" x2="711.500725043071" y2="498.8849999966252"/><path class="line" d=" M 711.4999999999995,498.885 A 77.88499999999999,77.88499999999999 0 0 0 711.500725043071,498.8849999966252"/><line x1="711.4999999999982" y1="732.54" x2="711.4999999999995" y2="498.885"/></svg>