<?xml version="1.0" standalone="no"?><!DOCTYPE svg PUBLIC "-//W3C//DTD SVG 1.1//EN" 	"http://www.w3.org/Graphics/SVG/1.1/DTD/svg11.dtd"><svg width="1573" height="876" version="1.1"	xmlns="http://www.w3.org/2000/svg"><title>Krona (snapshot) - all</title><defs>	<style type="text/css">	text {font-size: 14px; font-family: sans-serif; dominant-baseline:central}	path {stroke-width:0.35000000000000003;}	path.wedge {stroke:none}	path.line {fill:none;stroke:black;}	line {stroke:black;stroke-width:0.35000000000000003;}	line.tick {stroke-width:0.7000000000000001;}	line.pattern {stroke-width:0.23333333333333334;}	circle {fill:none;stroke:black;stroke-width:0.35000000000000003;}	rect {stroke:black;stroke-width:0.35000000000000003;}	.highlight {stroke:black;stroke-width:1.75;}	.searchHighlight {fill:rgb(255, 255, 100);stroke:none;}	</style><pattern id="hiddenPattern" patternUnits="userSpaceOnUse" x="0" y="0" width="8.4" height="8.4"><line class="pattern" x1="0" y1="0" x2="4.2" y2="4.2"/><line class="pattern" x1="4.2" y1="8.4" x2="8.4" y2="4.2"/></pattern></defs><path class="wedge" fill="rgb(220,220,220)" d=" M 711.5000000000002,519.03 L 711.5000000000009,762.12 A 324.12,324.12 0 0,1 711.5000000000001,762.12 L 711.5,519.03 A 81.03,81.03 0 0 0 711.5000000000002,519.03 Z "/><path class="wedge" fill="rgb(208,114,114)" d=" M 711.5,519.03 L 711.5,762.12 A 324.12,324.12 0 1,1 890.8814785391775,707.9556622060345 L 756.3453696347943,505.4889155515086 A 81.03,81.03 0 1 0 711.5,519.03 Z "/><path class="wedge" fill="rgb(212,127,127)" d=" M 711.5,573.3370434226986 L 711.5,762.12 A 324.12,324.12 0 0,1 573.1725406059961,144.88007850437697 L 653.7410546138533,315.60710988673594 A 135.33704342269863,135.33704342269863 0 0 0 711.5,573.3370434226986 Z "/><path class="wedge" fill="rgb(212,127,127)" d=" M 634.7397738548004,275.3428416871386 L 573.1725406059921,144.88007850437884 A 324.12,324.12 0 0,1 573.1725406059961,144.88007850437697 L 634.7397738548026,275.3428416871376 A 179.85962156158743,179.85962156158743 0 0 0 634.7397738548004,275.3428416871386 Z "/><path class="wedge" fill="rgb(216,140,140)" d=" M 711.5,617.8596215615875 L 711.5,762.12 A 324.12,324.12 0 0,1 388.7900343238681,407.7997938200787 L 532.4228301226028,421.24139931320946 A 179.85962156158743,179.85962156158743 0 0 0 711.5,617.8596215615875 Z "/><path class="wedge" fill="rgb(221,153,153)" d=" M 711.5,655.0178677640408 L 711.5,762.12 A 324.12,324.12 0 0,1 387.9517155541286,457.2427137414008 L 494.86493024448856,450.88415619570713 A 217.01786776404077,217.01786776404077 0 0 0 711.5,655.0178677640408 Z "/><path class="wedge" fill="rgb(225,165,165)" d=" M 711.5,686.4960399936249 L 711.5,762.12 A 324.12,324.12 0 0,1 388.2791393105558,462.12570444929906 L 463.69331135178953,456.4966741259638 A 248.4960399936249,248.4960399936249 0 0 0 711.5,686.4960399936249 Z "/><path class="wedge" fill="rgb(225,173,165)" d=" M 463.69331135178953,456.4966741259638 L 388.2791393105558,462.12570444929906 A 324.12,324.12 0 0,1 387.9517155541286,457.2427137414008 L 463.44228239068866,452.7529870525392 A 248.4960399936249,248.4960399936249 0 0 0 463.69331135178953,456.4966741259638 Z "/><path class="wedge" fill="url(#hiddenPattern)" d=" M 463.69331135178953,456.4966741259638 L 388.2791393105558,462.12570444929906 A 324.12,324.12 0 0,1 387.9517155541286,457.2427137414008 L 463.44228239068866,452.7529870525392 A 248.4960399936249,248.4960399936249 0 0 0 463.69331135178953,456.4966741259638 Z "/><path class="wedge" fill="rgb(216,151,140)" d=" M 494.86493024448856,450.88415619570713 L 387.9517155541286,457.2427137414008 A 324.12,324.12 0 0,1 388.7900343238681,407.7997938200787 L 495.42623516832987,417.77914244353656 A 217.01786776404077,217.01786776404077 0 0 0 494.86493024448856,450.88415619570713 Z "/><path class="wedge" fill="url(#hiddenPattern)" d=" M 494.86493024448856,450.88415619570713 L 387.9517155541286,457.2427137414008 A 324.12,324.12 0 0,1 388.7900343238681,407.7997938200787 L 495.42623516832987,417.77914244353656 A 217.01786776404077,217.01786776404077 0 0 0 494.86493024448856,450.88415619570713 Z "/><path class="wedge" fill="rgb(216,151,140)" d=" M 532.4228301226028,421.24139931320946 L 388.7900343238681,407.7997938200787 A 324.12,324.12 0 0,1 532.4046681391402,167.85441609078913 L 612.1169979885809,288.09168675661874 A 179.85962156158743,179.85962156158743 0 0 0 532.4228301226028,421.24139931320946 Z "/><path class="wedge" fill="rgb(221,162,153)" d=" M 495.42623516832987,417.77914244353656 L 388.7900343238681,407.7997938200787 A 324.12,324.12 0 0,1 444.95347219954385,253.59088168552873 L 533.0310405924854,314.52698490419203 A 217.01786776404077,217.01786776404077 0 0 0 495.42623516832987,417.77914244353656 Z "/><path class="wedge" fill="rgb(225,174,165)" d=" M 464.085003896713,414.8461321649345 L 388.7900343238681,407.7997938200787 A 324.12,324.12 0 0,1 431.716935522831,274.36867282893445 L 496.99616321159596,312.54727625289695 A 248.4960399936249,248.4960399936249 0 0 0 464.085003896713,414.8461321649345 Z "/><path class="wedge" fill="rgb(225,176,165)" d=" M 496.99616321159596,312.54727625289695 L 431.716935522831,274.36867282893445 A 324.12,324.12 0 0,1 444.9534721995441,253.5908816855284 L 507.14433965054934,296.61737739151533 A 248.4960399936249,248.4960399936249 0 0 0 496.99616321159596,312.54727625289695 Z "/><path class="wedge" fill="url(#hiddenPattern)" d=" M 496.99616321159596,312.54727625289695 L 431.716935522831,274.36867282893445 A 324.12,324.12 0 0,1 444.9534721995441,253.5908816855284 L 507.14433965054934,296.61737739151533 A 248.4960399936249,248.4960399936249 0 0 0 496.99616321159596,312.54727625289695 Z "/><path class="wedge" fill="rgb(221,165,153)" d=" M 533.0310405924854,314.52698490419203 L 444.95347219954385,253.59088168552873 A 324.12,324.12 0 0,1 466.064049021056,226.30453862432145 L 547.1658436563926,296.2571342617715 A 217.01786776404077,217.01786776404077 0 0 0 533.0310405924854,314.52698490419203 Z "/><path class="wedge" fill="rgb(225,176,165)" d=" M 507.14433965054917,296.6173773915156 L 444.95347219954385,253.59088168552873 A 324.12,324.12 0 0,1 455.9883780210573,238.58188288500494 L 515.6045716582892,285.11029123145386 A 248.4960399936249,248.4960399936249 0 0 0 507.14433965054917,296.6173773915156 Z "/><path class="wedge" fill="rgb(225,177,165)" d=" M 515.6045716582892,285.11029123145386 L 455.9883780210573,238.58188288500494 A 324.12,324.12 0 0,1 466.0640490210561,226.30453862432134 L 523.3293783464859,275.69750760064323 A 248.4960399936249,248.4960399936249 0 0 0 515.6045716582892,285.11029123145386 Z "/><path class="wedge" fill="url(#hiddenPattern)" d=" M 515.6045716582892,285.11029123145386 L 455.9883780210573,238.58188288500494 A 324.12,324.12 0 0,1 466.0640490210561,226.30453862432134 L 523.3293783464859,275.69750760064323 A 248.4960399936249,248.4960399936249 0 0 0 515.6045716582892,285.11029123145386 Z "/><path class="wedge" fill="rgb(221,166,153)" d=" M 547.1658436563926,296.2571342617715 L 466.064049021056,226.30453862432145 A 324.12,324.12 0 0,1 485.32972173560415,205.83458562954354 L 560.0653722678669,282.5512674465277 A 217.01786776404077,217.01786776404077 0 0 0 547.1658436563926,296.2571342617715 Z "/><path class="wedge" fill="rgb(225,177,165)" d=" M 523.3293783464858,275.69750760064335 L 466.064049021056,226.30453862432145 A 324.12,324.12 0 0,1 482.9128642571911,208.21380421596544 L 536.2470133729075,261.8277190622845 A 248.4960399936249,248.4960399936249 0 0 0 523.3293783464858,275.69750760064335 Z "/><path class="wedge" fill="rgb(225,177,165)" d=" M 536.2470133729075,261.8277190622845 L 482.9128642571911,208.21380421596544 A 324.12,324.12 0 0,1 485.32972173560427,205.83458562954345 L 538.0999675646101,260.0036218235917 A 248.4960399936249,248.4960399936249 0 0 0 536.2470133729075,261.8277190622845 Z "/><path class="wedge" fill="url(#hiddenPattern)" d=" M 536.2470133729075,261.8277190622845 L 482.9128642571911,208.21380421596544 A 324.12,324.12 0 0,1 485.32972173560427,205.83458562954345 L 538.0999675646101,260.0036218235917 A 248.4960399936249,248.4960399936249 0 0 0 536.2470133729075,261.8277190622845 Z "/><path class="wedge" fill="rgb(216,157,140)" d=" M 560.0653722678669,282.5512674465277 L 485.32972173560415,205.83458562954354 A 324.12,324.12 0 0,1 532.4046681391402,167.85441609078913 L 591.5848850828795,257.1212556897177 A 217.01786776404077,217.01786776404077 0 0 0 560.0653722678669,282.5512674465277 Z "/><path class="wedge" fill="url(#hiddenPattern)" d=" M 560.0653722678669,282.5512674465277 L 485.32972173560415,205.83458562954354 A 324.12,324.12 0 0,1 532.4046681391402,167.85441609078913 L 591.5848850828795,257.1212556897177 A 217.01786776404077,217.01786776404077 0 0 0 560.0653722678669,282.5512674465277 Z "/><path class="wedge" fill="rgb(216,157,140)" d=" M 612.1169979885809,288.09168675661874 L 532.4046681391402,167.85441609078913 A 324.12,324.12 0 0,1 555.7318389954643,153.76408668631433 L 625.0616361544484,280.2727267591889 A 179.85962156158743,179.85962156158743 0 0 0 612.1169979885809,288.09168675661874 Z "/><path class="wedge" fill="rgb(221,168,153)" d=" M 591.5848850828795,257.1212556897177 L 532.4046681391402,167.85441609078913 A 324.12,324.12 0 0,1 554.5660927431379,154.4060593857925 L 606.423294049229,248.11677063156452 A 217.01786776404077,217.01786776404077 0 0 0 591.5848850828795,257.1212556897177 Z "/><path class="wedge" fill="rgb(225,178,165)" d=" M 574.1913465729738,230.8850184400703 L 532.4046681391402,167.85441609078913 A 324.12,324.12 0 0,1 551.7193684578415,156.00013442558344 L 588.9995242320534,221.79658807238968 A 248.4960399936249,248.4960399936249 0 0 0 574.1913465729738,230.8850184400703 Z "/><path class="wedge" fill="rgb(225,179,165)" d=" M 588.9995242320534,221.79658807238968 L 551.7193684578415,156.00013442558344 A 324.12,324.12 0 0,1 554.5660927431379,154.4060593857925 L 591.1820483337744,220.57444400586888 A 248.4960399936249,248.4960399936249 0 0 0 588.9995242320534,221.79658807238968 Z "/><path class="wedge" fill="url(#hiddenPattern)" d=" M 588.9995242320534,221.79658807238968 L 551.7193684578415,156.00013442558344 A 324.12,324.12 0 0,1 554.5660927431379,154.4060593857925 L 591.1820483337744,220.57444400586888 A 248.4960399936249,248.4960399936249 0 0 0 588.9995242320534,221.79658807238968 Z "/><path class="wedge" fill="rgb(216,157,140)" d=" M 606.423294049229,248.11677063156452 L 554.5660927431379,154.4060593857925 A 324.12,324.12 0 0,1 555.7318389954643,153.76408668631433 L 607.2038313996973,247.6869312313316 A 217.01786776404077,217.01786776404077 0 0 0 606.423294049229,248.11677063156452 Z "/><path class="wedge" fill="url(#hiddenPattern)" d=" M 606.423294049229,248.11677063156452 L 554.5660927431379,154.4060593857925 A 324.12,324.12 0 0,1 555.7318389954643,153.76408668631433 L 607.2038313996973,247.6869312313316 A 217.01786776404077,217.01786776404077 0 0 0 606.423294049229,248.11677063156452 Z "/><path class="wedge" fill="rgb(212,147,127)" d=" M 625.0616361544484,280.2727267591889 L 555.7318389954643,153.76408668631433 A 324.12,324.12 0 0,1 573.1725406059921,144.88007850437884 L 634.7397738548004,275.3428416871386 A 179.85962156158743,179.85962156158743 0 0 0 625.0616361544484,280.2727267591889 Z "/><path class="wedge" fill="url(#hiddenPattern)" d=" M 625.0616361544484,280.2727267591889 L 555.7318389954643,153.76408668631433 A 324.12,324.12 0 0,1 573.1725406059921,144.88007850437884 L 634.7397738548004,275.3428416871386 A 179.85962156158743,179.85962156158743 0 0 0 625.0616361544484,280.2727267591889 Z "/><path class="wedge" fill="rgb(212,147,127)" d=" M 653.7410546138533,315.60710988673594 L 573.1725406059961,144.88007850437697 A 324.12,324.12 0 0,1 1035.6199992892402,437.97853507715604 L 846.8370431259193,437.99103727263054 A 135.33704342269863,135.33704342269863 0 0 0 653.7410546138533,315.60710988673594 Z "/><path class="wedge" fill="rgb(216,158,140)" d=" M 634.7397738548026,275.3428416871376 L 573.1725406059961,144.88007850437697 A 324.12,324.12 0 0,1 1035.1293008872117,420.1716515836557 L 891.0873243978002,428.1067505885727 A 179.85962156158743,179.85962156158743 0 0 0 634.7397738548026,275.3428416871376 Z "/><path class="wedge" fill="rgb(221,169,153)" d=" M 618.8814319051473,241.73855250480338 L 573.1725406059961,144.88007850437697 A 324.12,324.12 0 0,1 1009.7240640569999,311.05047452894325 L 911.1789784572899,352.9996441707222 A 217.01786776404077,217.01786776404077 0 0 0 618.8814319051473,241.73855250480338 Z "/><path class="wedge" fill="rgb(225,179,165)" d=" M 605.4472236153618,213.2710732601983 L 573.1725406059961,144.88007850437697 A 324.12,324.12 0 0,1 1009.7240640569999,311.05047452894325 L 940.142166324107,340.6704481098747 A 248.4960399936249,248.4960399936249 0 0 0 605.4472236153618,213.2710732601983 Z "/><path class="wedge" fill="rgb(221,178,153)" d=" M 911.1789784572899,352.9996441707222 L 1009.7240640569999,311.05047452894325 A 324.12,324.12 0 0,1 1035.055905022782,418.88585013953235 L 928.1401721908819,425.20192506836656 A 217.01786776404077,217.01786776404077 0 0 0 911.1789784572899,352.9996441707222 Z "/><path class="wedge" fill="rgb(225,188,165)" d=" M 940.142166324107,340.6704481098747 L 1009.7240640569999,311.05047452894325 A 324.12,324.12 0 0,1 1034.9881629746849,417.77173227229486 L 959.5116237320176,422.49140927352346 A 248.4960399936249,248.4960399936249 0 0 0 940.142166324107,340.6704481098747 Z "/><path class="wedge" fill="rgb(225,189,165)" d=" M 959.5116237320176,422.49140927352346 L 1034.9881629746849,417.77173227229486 A 324.12,324.12 0 0,1 1035.055905022782,418.88585013953235 L 959.5635601465962,423.34558019199403 A 248.4960399936249,248.4960399936249 0 0 0 959.5116237320176,422.49140927352346 Z "/><path class="wedge" fill="url(#hiddenPattern)" d=" M 959.5116237320176,422.49140927352346 L 1034.9881629746849,417.77173227229486 A 324.12,324.12 0 0,1 1035.055905022782,418.88585013953235 L 959.5635601465962,423.34558019199403 A 248.4960399936249,248.4960399936249 0 0 0 959.5116237320176,422.49140927352346 Z "/><path class="wedge" fill="rgb(216,171,140)" d=" M 928.1401721908819,425.20192506836656 L 1035.055905022782,418.88585013953235 A 324.12,324.12 0 0,1 1035.1293008872117,420.1716515836557 L 928.1893151441129,426.0628466028957 A 217.01786776404077,217.01786776404077 0 0 0 928.1401721908819,425.20192506836656 Z "/><path class="wedge" fill="url(#hiddenPattern)" d=" M 928.1401721908819,425.20192506836656 L 1035.055905022782,418.88585013953235 A 324.12,324.12 0 0,1 1035.1293008872117,420.1716515836557 L 928.1893151441129,426.0628466028957 A 217.01786776404077,217.01786776404077 0 0 0 928.1401721908819,425.20192506836656 Z "/><path class="wedge" fill="rgb(212,162,127)" d=" M 891.0873243978002,428.1067505885727 L 1035.1293008872117,420.1716515836557 A 324.12,324.12 0 0,1 1035.6199992892402,437.9785350771563 L 891.359621167175,437.98808875447514 A 179.85962156158743,179.85962156158743 0 0 0 891.0873243978002,428.1067505885727 Z "/><path class="wedge" fill="url(#hiddenPattern)" d=" M 891.0873243978002,428.1067505885727 L 1035.1293008872117,420.1716515836557 A 324.12,324.12 0 0,1 1035.6199992892402,437.9785350771563 L 891.359621167175,437.98808875447514 A 179.85962156158743,179.85962156158743 0 0 0 891.0873243978002,428.1067505885727 Z "/><path class="wedge" fill="rgb(212,162,127)" d=" M 846.8370431259193,437.99103727263054 L 1035.6199992892402,437.97853507715604 A 324.12,324.12 0 0,1 1009.2003014072586,566.1729493381008 L 835.8054381664341,491.51890660923704 A 135.33704342269863,135.33704342269863 0 0 0 846.8370431259193,437.99103727263054 Z "/><path class="wedge" fill="rgb(216,171,140)" d=" M 891.359621167175,437.98808875447503 L 1035.6199992892402,437.97853507715604 A 324.12,324.12 0 0,1 1026.1917806729996,515.6070716936074 L 886.1277446019616,481.0654650910626 A 179.85962156158743,179.85962156158743 0 0 0 891.359621167175,437.98808875447503 Z "/><path class="wedge" fill="rgb(221,181,153)" d=" M 928.5178672881443,437.9856279409252 L 1035.6199992892402,437.97853507715604 A 324.12,324.12 0 0,1 1030.18560260291,497.10381623567207 L 924.8792112920585,477.5735658897422 A 217.01786776404077,217.01786776404077 0 0 0 928.5178672881443,437.9856279409252 Z "/><path class="wedge" fill="rgb(225,190,165)" d=" M 959.9960394487002,437.98354329160344 L 1035.6199992892402,437.97853507715604 A 324.12,324.12 0 0,1 1034.4214027183011,465.8485559130939 L 959.0771004710738,459.3509066516873 A 248.4960399936249,248.4960399936249 0 0 0 959.9960394487002,437.98354329160344 Z "/><path class="wedge" fill="rgb(225,190,165)" d=" M 959.0771004710738,459.3509066516873 L 1034.4214027183011,465.8485559130939 A 324.12,324.12 0 0,1 1031.5448205913215,489.23560493122756 L 956.8716849852324,477.2812690734539 A 248.4960399936249,248.4960399936249 0 0 0 959.0771004710738,459.3509066516873 Z "/><path class="wedge" fill="rgb(225,191,165)" d=" M 956.8716849852324,477.2812690734539 L 1031.5448205913215,489.23560493122756 A 324.12,324.12 0 0,1 1030.18560260291,497.10381623567207 L 955.8296009188115,483.31366248017844 A 248.4960399936249,248.4960399936249 0 0 0 956.8716849852324,477.2812690734539 Z "/><path class="wedge" fill="url(#hiddenPattern)" d=" M 956.8716849852324,477.2812690734539 L 1031.5448205913215,489.23560493122756 A 324.12,324.12 0 0,1 1030.18560260291,497.10381623567207 L 955.8296009188115,483.31366248017844 A 248.4960399936249,248.4960399936249 0 0 0 956.8716849852324,477.2812690734539 Z "/><path class="wedge" fill="rgb(216,173,140)" d=" M 924.8792112920585,477.5735658897422 L 1030.18560260291,497.10381623567207 A 324.12,324.12 0 0,1 1026.1917806729996,515.6070716936077 L 922.2051068879537,489.9626102133709 A 217.01786776404077,217.01786776404077 0 0 0 924.8792112920585,477.5735658897422 Z "/><path class="wedge" fill="url(#hiddenPattern)" d=" M 924.8792112920585,477.5735658897422 L 1030.18560260291,497.10381623567207 A 324.12,324.12 0 0,1 1026.1917806729996,515.6070716936077 L 922.2051068879537,489.9626102133709 A 217.01786776404077,217.01786776404077 0 0 0 924.8792112920585,477.5735658897422 Z "/><path class="wedge" fill="rgb(216,173,140)" d=" M 886.1277446019616,481.0654650910626 L 1026.1917806729996,515.6070716936074 A 324.12,324.12 0 0,1 1011.7040539524426,560.1937002898223 L 878.0882621718521,505.80733275125715 A 179.85962156158743,179.85962156158743 0 0 0 886.1277446019616,481.0654650910626 Z "/><path class="wedge" fill="rgb(221,182,153)" d=" M 922.2051068879537,489.96261021337074 L 1026.1917806729996,515.6070716936074 A 324.12,324.12 0 0,1 1013.9953159810375,554.4060058997487 L 914.0388389572211,515.9408342443904 A 217.01786776404077,217.01786776404077 0 0 0 922.2051068879537,489.96261021337074 Z "/><path class="wedge" fill="rgb(225,191,165)" d=" M 952.7676209915548,497.4997222984166 L 1026.1917806729996,515.6070716936074 A 324.12,324.12 0 0,1 1017.386369487342,545.1788382184343 L 946.0166959941727,520.1717785647238 A 248.4960399936249,248.4960399936249 0 0 0 952.7676209915548,497.4997222984166 Z "/><path class="wedge" fill="rgb(225,192,165)" d=" M 946.0166959941727,520.1717785647238 L 1017.386369487342,545.1788382184343 A 324.12,324.12 0 0,1 1013.9953159810375,554.4060058997487 L 943.4168460382207,527.2460554657598 A 248.4960399936249,248.4960399936249 0 0 0 946.0166959941727,520.1717785647238 Z "/><path class="wedge" fill="url(#hiddenPattern)" d=" M 946.0166959941727,520.1717785647238 L 1017.386369487342,545.1788382184343 A 324.12,324.12 0 0,1 1013.9953159810375,554.4060058997487 L 943.4168460382207,527.2460554657598 A 248.4960399936249,248.4960399936249 0 0 0 946.0166959941727,520.1717785647238 Z "/><path class="wedge" fill="rgb(216,174,140)" d=" M 914.0388389572211,515.9408342443904 L 1013.9953159810375,554.4060058997487 A 324.12,324.12 0 0,1 1011.7040539524426,560.1937002898223 L 912.5047009838336,519.8160443388113 A 217.01786776404077,217.01786776404077 0 0 0 914.0388389572211,515.9408342443904 Z "/><path class="wedge" fill="url(#hiddenPattern)" d=" M 914.0388389572211,515.9408342443904 L 1013.9953159810375,554.4060058997487 A 324.12,324.12 0 0,1 1011.7040539524426,560.1937002898223 L 912.5047009838336,519.8160443388113 A 217.01786776404077,217.01786776404077 0 0 0 914.0388389572211,515.9408342443904 Z "/><path class="wedge" fill="rgb(212,165,127)" d=" M 878.0882621718521,505.80733275125715 L 1011.7040539524426,560.1937002898223 A 324.12,324.12 0 0,1 1009.2003014072584,566.1729493381013 L 876.6988879115142,509.12531828453484 A 179.85962156158743,179.85962156158743 0 0 0 878.0882621718521,505.80733275125715 Z "/><path class="wedge" fill="url(#hiddenPattern)" d=" M 878.0882621718521,505.80733275125715 L 1011.7040539524426,560.1937002898223 A 324.12,324.12 0 0,1 1009.2003014072584,566.1729493381013 L 876.6988879115142,509.12531828453484 A 179.85962156158743,179.85962156158743 0 0 0 878.0882621718521,505.80733275125715 Z "/><path class="wedge" fill="rgb(212,165,127)" d=" M 835.8054381664341,491.51890660923704 L 1009.2003014072586,566.1729493381008 A 324.12,324.12 0 0,1 940.755740706183,667.1191387755711 L 807.2262561238296,533.6692176769121 A 135.33704342269863,135.33704342269863 0 0 0 835.8054381664341,491.51890660923704 Z "/><path class="wedge" fill="rgb(216,174,140)" d=" M 876.6988879115145,509.1253182845345 L 1009.2003014072586,566.1729493381008 A 324.12,324.12 0 0,1 954.0821190193421,652.9597402586953 L 846.112884500885,557.2847634638592 A 179.85962156158743,179.85962156158743 0 0 0 876.6988879115145,509.1253182845345 Z "/><path class="wedge" fill="rgb(221,183,153)" d=" M 910.8282878073416,523.819511817793 L 1009.2003014072586,566.1729493381008 A 324.12,324.12 0 0,1 954.0821190193421,652.9597402586953 L 873.9233439073812,581.9284971185182 A 217.01786776404077,217.01786776404077 0 0 0 910.8282878073416,523.819511817793 Z "/><path class="wedge" fill="rgb(221,183,153)" d=" M 897.4826482462321,602.8051468972724 L 954.0821190193423,652.9597402586951 A 324.12,324.12 0 0,1 954.0821190193421,652.9597402586953 L 897.482648246232,602.8051468972725 A 248.4960399936249,248.4960399936249 0 0 0 897.4826482462321,602.8051468972724 Z "/><path class="wedge" fill="rgb(225,192,165)" d=" M 939.7406084308661,536.2675254375588 L 1009.2003014072586,566.1729493381008 A 324.12,324.12 0 0,1 957.579711869093,648.9467937808588 L 900.1641796934525,599.7285045782279 A 248.4960399936249,248.4960399936249 0 0 0 939.7406084308661,536.2675254375588 Z "/><path class="wedge" fill="rgb(225,194,165)" d=" M 900.1641796934525,599.7285045782279 L 957.579711869093,648.9467937808588 A 324.12,324.12 0 0,1 954.0821190193423,652.9597402586951 L 897.4826482462321,602.8051468972724 A 248.4960399936249,248.4960399936249 0 0 0 900.1641796934525,599.7285045782279 Z "/><path class="wedge" fill="url(#hiddenPattern)" d=" M 900.1641796934525,599.7285045782279 L 957.579711869093,648.9467937808588 A 324.12,324.12 0 0,1 954.0821190193423,652.9597402586951 L 897.4826482462321,602.8051468972724 A 248.4960399936249,248.4960399936249 0 0 0 900.1641796934525,599.7285045782279 Z "/><path class="wedge" fill="rgb(212,168,127)" d=" M 846.112884500885,557.2847634638592 L 954.0821190193421,652.9597402586953 A 324.12,324.12 0 0,1 940.755740706183,667.1191387755711 L 838.7178537709351,565.1420510696379 A 179.85962156158743,179.85962156158743 0 0 0 846.112884500885,557.2847634638592 Z "/><path class="wedge" fill="url(#hiddenPattern)" d=" M 846.112884500885,557.2847634638592 L 954.0821190193421,652.9597402586953 A 324.12,324.12 0 0,1 940.755740706183,667.1191387755711 L 838.7178537709351,565.1420510696379 A 179.85962156158743,179.85962156158743 0 0 0 846.112884500885,557.2847634638592 Z "/><path class="wedge" fill="rgb(212,168,127)" d=" M 807.2262561238296,533.6692176769121 L 940.755740706183,667.1191387755711 A 324.12,324.12 0 0,1 923.9259526365856,682.8039808631369 L 800.1989398250207,540.218459175996 A 135.33704342269863,135.33704342269863 0 0 0 807.2262561238296,533.6692176769121 Z "/><path class="wedge" fill="rgb(212,168,127)" d=" M 838.7178537709351,565.1420510696379 L 940.755740706183,667.1191387755711 A 324.12,324.12 0 0,1 924.3795287943602,682.4096573793498 L 829.6304192495455,573.6270161737847 A 179.85962156158743,179.85962156158743 0 0 0 838.7178537709351,565.1420510696379 Z "/><path class="wedge" fill="url(#hiddenPattern)" d=" M 838.7178537709351,565.1420510696379 L 940.755740706183,667.1191387755711 A 324.12,324.12 0 0,1 924.3795287943602,682.4096573793498 L 829.6304192495455,573.6270161737847 A 179.85962156158743,179.85962156158743 0 0 0 838.7178537709351,565.1420510696379 Z "/><path class="wedge" fill="rgb(216,177,140)" d=" M 829.6304192495455,573.6270161737847 L 924.3795287943602,682.4096573793498 A 324.12,324.12 0 0,1 923.9259526365856,682.8039808631369 L 829.3787222358262,573.845832885394 A 179.85962156158743,179.85962156158743 0 0 0 829.6304192495455,573.6270161737847 Z "/><path class="wedge" fill="url(#hiddenPattern)" d=" M 829.6304192495455,573.6270161737847 L 924.3795287943602,682.4096573793498 A 324.12,324.12 0 0,1 923.9259526365856,682.8039808631369 L 829.3787222358262,573.845832885394 A 179.85962156158743,179.85962156158743 0 0 0 829.6304192495455,573.6270161737847 Z "/><path class="wedge" fill="rgb(208,161,114)" d=" M 800.1989398250207,540.218459175996 L 923.9259526365856,682.8039808631369 A 324.12,324.12 0 0,1 890.8814785391721,707.955662206038 L 786.4011444844003,550.7206009446561 A 135.33704342269863,135.33704342269863 0 0 0 800.1989398250207,540.218459175996 Z "/><path class="wedge" fill="url(#hiddenPattern)" d=" M 800.1989398250207,540.218459175996 L 923.9259526365856,682.8039808631369 A 324.12,324.12 0 0,1 890.8814785391721,707.955662206038 L 786.4011444844003,550.7206009446561 A 135.33704342269863,135.33704342269863 0 0 0 800.1989398250207,540.218459175996 Z "/><path class="wedge" fill="rgb(189,208,114)" d=" M 756.3453696347943,505.4889155515086 L 890.8814785391775,707.9556622060345 A 324.12,324.12 0 0,1 807.4071352380572,747.6055487397296 L 735.4767838095144,515.4013871849323 A 81.03,81.03 0 0 0 756.3453696347943,505.4889155515086 Z "/><path class="wedge" fill="rgb(195,212,127)" d=" M 786.4011444844025,550.7206009446546 L 890.8814785391775,707.9556622060345 A 324.12,324.12 0 0,1 807.4071352380572,747.6055487397296 L 751.5462425220893,567.2765012763705 A 135.33704342269863,135.33704342269863 0 0 0 786.4011444844025,550.7206009446546 Z "/><path class="wedge" fill="rgb(201,216,140)" d=" M 811.0417896001927,587.8029225064331 L 890.8814785391775,707.9556622060345 A 324.12,324.12 0 0,1 807.4071352380572,747.6055487397296 L 764.7204771349283,609.8053092363796 A 179.85962156158743,179.85962156158743 0 0 0 811.0417896001927,587.8029225064331 Z "/><path class="wedge" fill="rgb(207,221,153)" d=" M 831.6067073581801,618.7515802874962 L 890.8814785391775,707.9556622060345 A 324.12,324.12 0 0,1 807.4071352380572,747.6055487397296 L 775.7156053089001,645.2995681704674 A 217.01786776404077,217.01786776404077 0 0 0 831.6067073581801,618.7515802874962 Z "/><path class="wedge" fill="rgb(213,225,165)" d=" M 849.028036113745,644.9693725535489 L 890.8814785391775,707.9556622060345 A 324.12,324.12 0 0,1 807.4071352380572,747.6055487397296 L 785.0299991169636,675.368113112045 A 248.4960399936249,248.4960399936249 0 0 0 849.028036113745,644.9693725535489 Z "/><path class="wedge" fill="rgb(114,208,152)" d=" M 735.4767838095144,515.4013871849323 L 807.4071352380572,747.6055487397296 A 324.12,324.12 0 0,1 737.2735976737196,761.0936335846827 L 717.9433994184299,518.7734083961707 A 81.03,81.03 0 0 0 735.4767838095144,515.4013871849323 Z "/><path class="wedge" fill="rgb(127,212,161)" d=" M 751.5462425220893,567.2765012763705 L 807.4071352380572,747.6055487397296 A 324.12,324.12 0 0,1 741.4651112142648,760.7318802193498 L 724.012000362739,572.7574308501028 A 135.33704342269863,135.33704342269863 0 0 0 751.5462425220893,567.2765012763705 Z "/><path class="wedge" fill="rgb(127,212,161)" d=" M 764.7204771349283,609.8053092363796 L 807.4071352380572,747.6055487397296 A 324.12,324.12 0 0,1 743.3026927962777,760.5559844909184 L 729.1478473743612,616.991723136375 A 179.85962156158743,179.85962156158743 0 0 0 764.7204771349283,609.8053092363796 Z "/><path class="wedge" fill="url(#hiddenPattern)" d=" M 764.7204771349283,609.8053092363796 L 807.4071352380572,747.6055487397296 A 324.12,324.12 0 0,1 743.3026927962777,760.5559844909184 L 729.1478473743612,616.991723136375 A 179.85962156158743,179.85962156158743 0 0 0 764.7204771349283,609.8053092363796 Z "/><path class="wedge" fill="rgb(127,212,200)" d=" M 729.1478473743612,616.991723136375 L 743.3026927962777,760.5559844909184 A 324.12,324.12 0 0,1 741.4651112142648,760.7318802193498 L 728.1281425492057,617.089330624805 A 179.85962156158743,179.85962156158743 0 0 0 729.1478473743612,616.991723136375 Z "/><path class="wedge" fill="url(#hiddenPattern)" d=" M 729.1478473743612,616.991723136375 L 743.3026927962777,760.5559844909184 A 324.12,324.12 0 0,1 741.4651112142648,760.7318802193498 L 728.1281425492057,617.089330624805 A 179.85962156158743,179.85962156158743 0 0 0 729.1478473743612,616.991723136375 Z "/><path class="wedge" fill="rgb(114,208,198)" d=" M 724.012000362739,572.7574308501028 L 741.4651112142648,760.7318802193498 A 324.12,324.12 0 0,1 737.2735976737193,761.0936335846827 L 722.2618243475482,572.908481790842 A 135.33704342269863,135.33704342269863 0 0 0 724.012000362739,572.7574308501028 Z "/><path class="wedge" fill="url(#hiddenPattern)" d=" M 724.012000362739,572.7574308501028 L 741.4651112142648,760.7318802193498 A 324.12,324.12 0 0,1 737.2735976737193,761.0936335846827 L 722.2618243475482,572.908481790842 A 135.33704342269863,135.33704342269863 0 0 0 724.012000362739,572.7574308501028 Z "/><path class="wedge" fill="rgb(101,142,204)" d=" M 717.9433994184299,518.7734083961707 L 737.2735976737196,761.0936335846827 A 324.12,324.12 0 0,1 711.5000000000009,762.12 L 711.5000000000002,519.03 A 81.03,81.03 0 0 0 717.9433994184299,518.7734083961707 Z "/><path class="wedge" fill="url(#hiddenPattern)" d=" M 717.9433994184299,518.7734083961707 L 737.2735976737196,761.0936335846827 A 324.12,324.12 0 0,1 711.5000000000009,762.12 L 711.5000000000002,519.03 A 81.03,81.03 0 0 0 717.9433994184299,518.7734083961707 Z "/><path class="wedge" fill="rgb(189,114,208)" d=" M 711.5000000000002,519.03 L 711.5000000000009,762.12 A 324.12,324.12 0 0,1 711.5000000000009,762.12 L 711.5000000000002,519.03 A 81.03,81.03 0 0 0 711.5000000000002,519.03 Z "/><circle cx="711.5" cy="438" r="81.03"/><circle cx="711.5" cy="438" r="324.12"/><text x="711.5" y="438" text-anchor="middle" style="font-color:black;font-weight:bold" transform="rotate(360,711.5,438)">all</text><path class="line" d=" M 756.3453696347943,505.4889155515086 A 81.03,81.03 0 1 0 711.5,519.03"/><line x1="890.8814785391775" y1="707.9556622060345" x2="756.3453696347943" y2="505.4889155515086"/><text x="711.5" y="340.6778869731904" text-anchor="middle" style="font-color:black;font-weight:normal" transform="rotate(343.19827986002775,711.5,438)">Bacteria</text><path class="line" d=" M 653.7410546138533,315.60710988673594 A 135.33704342269863,135.33704342269863 0 0 0 711.5,573.3370434226986"/><line x1="573.1725406059961" y1="144.88007850437697" x2="653.7410546138533" y2="315.60710988673594"/><text x="711.5" y="586.6938168643653" text-anchor="middle" style="font-color:black;font-weight:normal" transform="rotate(77.36835448374767,711.5,438)">Proteobacteria</text><path class="line" d=" M 532.4228301226028,421.24139931320946 A 179.85962156158743,179.85962156158743 0 0 0 711.5,617.8596215615875"/><line x1="388.7900343238681" y1="407.7997938200787" x2="532.4228301226028" y2="421.24139931320946"/><text x="711.5" y="629.0070954223235" text-anchor="middle" style="font-color:black;font-weight:normal" transform="rotate(47.67317340528695,711.5,438)">Alphaproteobacteria</text><path class="line" d=" M 494.86493024448856,450.88415619570713 A 217.01786776404077,217.01786776404077 0 0 0 711.5,655.0178677640408"/><line x1="387.9517155541286" y1="457.2427137414008" x2="494.86493024448856" y2="450.88415619570713"/><text x="711.5" y="670.7569538788329" text-anchor="middle" style="font-color:black;font-weight:normal" transform="rotate(43.298199755470336,711.5,438)">Pelagibacterales</text><path class="line" d=" M 463.69331135178953,456.4966741259638 A 248.4960399936249,248.4960399936249 0 0 0 711.5,686.4960399936249"/><line x1="388.2791393105558" y1="462.12570444929906" x2="463.69331135178953" y2="456.4966741259638"/><text x="425.19198000318755" y="438" text-anchor="end" style="font-color:black;font-weight:normal" transform="rotate(-47.13436485517935,711.5,438)">Pelagibacteraceae&#160;&#160;&#160;24%</text><path class="line" d=" M 463.44228239068866,452.7529870525392 A 248.4960399936249,248.4960399936249 0 0 0 463.69331135178953,456.4966741259638"/><line x1="1025.12" y1="438" x2="1046.12" y2="438" class="tick" transform="rotate(180.97137316075728,711.5,438)"/><text x="373.38" y="438" text-anchor="end" style="font-color:black;font-weight:normal" transform="rotate(0.971373160757294,711.5,438)">11 more</text><path class="line" d=" M 495.42623516832987,417.77914244353656 A 217.01786776404077,217.01786776404077 0 0 0 494.86493024448856,450.88415619570713"/><path class="line" d=" M 612.1169979885809,288.09168675661874 A 179.85962156158743,179.85962156158743 0 0 0 532.4228301226028,421.24139931320946"/><line x1="532.4046681391402" y1="167.85441609078913" x2="612.1169979885809" y2="288.09168675661874"/><text x="711.5" y="232.12960609669523" text-anchor="middle" style="font-color:black;font-weight:normal" transform="rotate(300.9018086765885,711.5,438)">Gammaproteobacteria</text><path class="line" d=" M 533.0310405924854,314.52698490419203 A 217.01786776404077,217.01786776404077 0 0 0 495.42623516832987,417.77914244353656"/><line x1="444.95347219954385" y1="253.59088168552873" x2="533.0310405924854" y2="314.52698490419203"/><text x="711.5" y="205.24304612116714" text-anchor="middle" style="font-color:black;font-weight:normal" transform="rotate(290.01180488216204,711.5,438)">Alte...ales</text><path class="line" d=" M 496.99616321159596,312.54727625289695 A 248.4960399936249,248.4960399936249 0 0 0 464.085003896713,414.8461321649345"/><line x1="431.716935522831" y1="274.36867282893445" x2="496.99616321159596" y2="312.54727625289695"/><text x="425.19198000318755" y="438" text-anchor="end" style="font-color:black;font-weight:normal" transform="rotate(17.833804123276813,711.5,438)">Alteromonadaceae&#160;&#160;&#160;7%</text><line x1="1025.12" y1="438" x2="1046.12" y2="438" class="tick" transform="rotate(212.499262194865,711.5,438)"/><text x="373.38" y="438" text-anchor="end" style="font-color:black;font-weight:normal" transform="rotate(32.499262194865,711.5,438)">7 more</text><path class="line" d=" M 507.14433965054934,296.61737739151533 A 248.4960399936249,248.4960399936249 0 0 0 496.99616321159596,312.54727625289695"/><path class="line" d=" M 547.1658436563926,296.2571342617715 A 217.01786776404077,217.01786776404077 0 0 0 533.0310405924854,314.52698490419203"/><line x1="466.064049021056" y1="226.30453862432145" x2="547.1658436563926" y2="296.2571342617715"/><text x="711.5" y="205.24304612116714" text-anchor="middle" style="font-color:black;font-weight:normal" transform="rotate(307.7279817867533,711.5,438)">...</text><path class="line" d=" M 515.6045716582892,285.11029123145386 A 248.4960399936249,248.4960399936249 0 0 0 507.14433965054917,296.6173773915156"/><line x1="455.9883780210573" y1="238.58188288500494" x2="515.6045716582892" y2="285.11029123145386"/><text x="425.19198000318755" y="438" text-anchor="end" style="font-color:black;font-weight:normal" transform="rotate(36.32404401534642,711.5,438)">Enterobacteriaceae&#160;&#160;&#160;0.9%</text><path class="line" d=" M 523.3293783464859,275.69750760064323 A 248.4960399936249,248.4960399936249 0 0 0 515.6045716582892,285.11029123145386"/><path class="line" d=" M 560.0653722678669,282.5512674465277 A 217.01786776404077,217.01786776404077 0 0 0 547.1658436563926,296.2571342617715"/><line x1="485.32972173560415" y1="205.83458562954354" x2="560.0653722678669" y2="282.5512674465277"/><text x="711.5" y="205.24304612116714" text-anchor="middle" style="font-color:black;font-weight:normal" transform="rotate(313.2640499177875,711.5,438)">...</text><path class="line" d=" M 536.2470133729075,261.8277190622845 A 248.4960399936249,248.4960399936249 0 0 0 523.3293783464858,275.69750760064335"/><line x1="482.9128642571911" y1="208.21380421596544" x2="536.2470133729075" y2="261.8277190622845"/><text x="425.19198000318755" y="438" text-anchor="end" style="font-color:black;font-weight:normal" transform="rotate(42.9642902314601,711.5,438)">Halomonadaceae&#160;&#160;&#160;1%</text><path class="line" d=" M 538.0999675646101,260.0036218235917 A 248.4960399936249,248.4960399936249 0 0 0 536.2470133729075,261.8277190622845"/><line x1="1025.12" y1="438" x2="1046.12" y2="438" class="tick" transform="rotate(231.1033348792109,711.5,438)"/><text x="373.38" y="438" text-anchor="end" style="font-color:black;font-weight:normal" transform="rotate(51.10333487921089,711.5,438)">27 more</text><path class="line" d=" M 591.5848850828795,257.1212556897177 A 217.01786776404077,217.01786776404077 0 0 0 560.0653722678669,282.5512674465277"/><path class="line" d=" M 625.0616361544484,280.2727267591889 A 179.85962156158743,179.85962156158743 0 0 0 612.1169979885809,288.09168675661874"/><line x1="555.7318389954643" y1="153.76408668631433" x2="625.0616361544484" y2="280.2727267591889"/><text x="711.5" y="246.99290457767657" text-anchor="middle" style="font-color:black;font-weight:normal" transform="rotate(328.8667313124501,711.5,438)">Epsilon...acteria</text><path class="line" d=" M 606.423294049229,248.11677063156452 A 217.01786776404077,217.01786776404077 0 0 0 591.5848850828795,257.1212556897177"/><line x1="554.5660927431379" y1="154.4060593857925" x2="606.423294049229" y2="248.11677063156452"/><text x="711.5" y="205.24304612116714" text-anchor="middle" style="font-color:black;font-weight:normal" transform="rotate(328.74910409376463,711.5,438)">Campyl...erales</text><path class="line" d=" M 588.9995242320534,221.79658807238968 A 248.4960399936249,248.4960399936249 0 0 0 574.1913465729738,230.8850184400703"/><line x1="551.7193684578415" y1="156.00013442558344" x2="588.9995242320534" y2="221.79658807238968"/><text x="425.19198000318755" y="438" text-anchor="end" style="font-color:black;font-weight:normal" transform="rotate(58.46072768666483,711.5,438)">Campylobacteraceae&#160;&#160;&#160;1%</text><path class="line" d=" M 591.1820483337744,220.57444400586888 A 248.4960399936249,248.4960399936249 0 0 0 588.9995242320534,221.79658807238968"/><path class="line" d=" M 607.2038313996973,247.6869312313316 A 217.01786776404077,217.01786776404077 0 0 0 606.423294049229,248.11677063156452"/><line x1="1025.12" y1="438" x2="1046.12" y2="438" class="tick" transform="rotate(243.0064505248958,711.5,438)"/><text x="373.38" y="438" text-anchor="end" style="font-color:black;font-weight:normal" transform="rotate(63.0064505248958,711.5,438)">3 more</text><path class="line" d=" M 634.7397738548004,275.3428416871386 A 179.85962156158743,179.85962156158743 0 0 0 625.0616361544484,280.2727267591889"/><line x1="573.1725406059921" y1="144.88007850437884" x2="634.7397738548004" y2="275.3428416871386"/><path class="line" d=" M 846.8370431259193,437.99103727263054 A 135.33704342269863,135.33704342269863 0 0 0 653.7410546138533,315.60710988673594"/><line x1="1035.6199992892402" y1="437.97853507715604" x2="846.8370431259193" y2="437.99103727263054"/><text x="711.5" y="271.49715188007923" text-anchor="middle" style="font-color:black;font-weight:normal" transform="rotate(392.36645727054355,711.5,438)">Cyanobacteria</text><path class="line" d=" M 891.0873243978002,428.1067505885727 A 179.85962156158743,179.85962156158743 0 0 0 634.7397738548026,275.3428416871376"/><line x1="1035.1293008872117" y1="420.1716515836557" x2="891.0873243978002" y2="428.1067505885727"/><text x="711.5" y="232.12960609669523" text-anchor="middle" style="font-color:black;font-weight:normal" transform="rotate(390.7917703107223,711.5,438)">Synechococcales</text><path class="line" d=" M 911.1789784572899,352.9996441707222 A 217.01786776404077,217.01786776404077 0 0 0 618.8814319051473,241.73855250480338"/><line x1="1009.7240640569999" y1="311.05047452894325" x2="911.1789784572899" y2="352.9996441707222"/><text x="711.5" y="205.24304612116714" text-anchor="middle" style="font-color:black;font-weight:normal" transform="rotate(380.83898983937024,711.5,438)">Prochloraceae</text><path class="line" d=" M 940.142166324107,340.6704481098747 A 248.4960399936249,248.4960399936249 0 0 0 605.4472236153618,213.2710732601983"/><text x="997.8080199968124" y="438" text-anchor="start" style="font-color:black;font-weight:normal" transform="rotate(290.83898983937024,711.5,438)">26%&#160;&#160;&#160;Prochlorococcus</text><path class="line" d=" M 928.1401721908819,425.20192506836656 A 217.01786776404077,217.01786776404077 0 0 0 911.1789784572899,352.9996441707222"/><line x1="1035.055905022782" y1="418.88585013953235" x2="928.1401721908819" y2="425.20192506836656"/><text x="711.5" y="205.24304612116714" text-anchor="middle" style="font-color:black;font-weight:normal" transform="rotate(436.780218390321,711.5,438)">Syne...ceae</text><path class="line" d=" M 959.5116237320176,422.49140927352346 A 248.4960399936249,248.4960399936249 0 0 0 940.142166324107,340.6704481098747"/><line x1="1034.9881629746849" y1="417.77173227229486" x2="959.5116237320176" y2="422.49140927352346"/><text x="997.8080199968124" y="438" text-anchor="start" style="font-color:black;font-weight:normal" transform="rotate(346.6815633036816,711.5,438)">5%&#160;&#160;&#160;Synechococcus</text><path class="line" d=" M 959.5635601465962,423.34558019199403 A 248.4960399936249,248.4960399936249 0 0 0 959.5116237320176,422.49140927352346"/><path class="line" d=" M 928.1893151441129,426.0628466028957 A 217.01786776404077,217.01786776404077 0 0 0 928.1401721908819,425.20192506836656"/><line x1="1025.12" y1="438" x2="1046.12" y2="438" class="tick" transform="rotate(358.42151861377056,711.5,438)"/><text x="1049.62" y="438" text-anchor="start" style="font-color:black;font-weight:normal" transform="rotate(358.42151861377056,711.5,438)">7 more</text><path class="line" d=" M 891.359621167175,437.98808875447514 A 179.85962156158743,179.85962156158743 0 0 0 891.0873243978002,428.1067505885727"/><path class="line" d=" M 835.8054381664341,491.51890660923704 A 135.33704342269863,135.33704342269863 0 0 0 846.8370431259193,437.99103727263054"/><line x1="1009.2003014072586" y1="566.1729493381008" x2="835.8054381664341" y2="491.51890660923704"/><text x="711.5" y="586.6938168643653" text-anchor="middle" style="font-color:black;font-weight:normal" transform="rotate(281.6450946498597,711.5,438)">Firmicutes</text><path class="line" d=" M 886.1277446019616,481.0654650910626 A 179.85962156158743,179.85962156158743 0 0 0 891.359621167175,437.98808875447503"/><line x1="1026.1917806729996" y1="515.6070716936074" x2="886.1277446019616" y2="481.0654650910626"/><text x="711.5" y="629.0070954223235" text-anchor="middle" style="font-color:black;font-weight:normal" transform="rotate(276.9248281968052,711.5,438)">Bacilli</text><path class="line" d=" M 924.8792112920585,477.5735658897422 A 217.01786776404077,217.01786776404077 0 0 0 928.5178672881443,437.9856279409252"/><line x1="1030.18560260291" y1="497.10381623567207" x2="924.8792112920585" y2="477.5735658897422"/><text x="711.5" y="670.7569538788329" text-anchor="middle" style="font-color:black;font-weight:normal" transform="rotate(275.25148615034465,711.5,438)">Ba...es</text><path class="line" d=" M 959.0771004710738,459.3509066516873 A 248.4960399936249,248.4960399936249 0 0 0 959.9960394487002,437.98354329160344"/><line x1="1034.4214027183011" y1="465.8485559130939" x2="959.0771004710738" y2="459.3509066516873"/><text x="997.8080199968124" y="438" text-anchor="start" style="font-color:black;font-weight:normal" transform="rotate(362.46258273957693,711.5,438)">1%&#160;&#160;&#160;Bacillaceae</text><path class="line" d=" M 956.8716849852324,477.2812690734539 A 248.4960399936249,248.4960399936249 0 0 0 959.0771004710738,459.3509066516873"/><line x1="1031.5448205913215" y1="489.23560493122756" x2="956.8716849852324" y2="477.2812690734539"/><text x="997.8080199968124" y="438" text-anchor="start" style="font-color:black;font-weight:normal" transform="rotate(367.012100004217,711.5,438)">1%&#160;&#160;&#160;Staphylococcaceae</text><path class="line" d=" M 955.8296009188115,483.31366248017844 A 248.4960399936249,248.4960399936249 0 0 0 956.8716849852324,477.2812690734539"/><line x1="1025.12" y1="438" x2="1046.12" y2="438" class="tick" transform="rotate(372.1801087735581,711.5,438)"/><text x="1049.62" y="438" text-anchor="start" style="font-color:black;font-weight:normal" transform="rotate(372.1801087735581,711.5,438)">1 more</text><path class="line" d=" M 922.2051068879537,489.9626102133709 A 217.01786776404077,217.01786776404077 0 0 0 924.8792112920585,477.5735658897422"/><path class="line" d=" M 878.0882621718521,505.80733275125715 A 179.85962156158743,179.85962156158743 0 0 0 886.1277446019616,481.0654650910626"/><line x1="1011.7040539524426" y1="560.1937002898223" x2="878.0882621718521" y2="505.80733275125715"/><text x="711.5" y="643.8703939033048" text-anchor="middle" style="font-color:black;font-weight:normal" transform="rotate(288.00075888528283,711.5,438)">Clostridia</text><path class="line" d=" M 914.0388389572211,515.9408342443904 A 217.01786776404077,217.01786776404077 0 0 0 922.2051068879537,489.96261021337074"/><line x1="1013.9953159810375" y1="554.4060058997487" x2="914.0388389572211" y2="515.9408342443904"/><text x="711.5" y="670.7569538788329" text-anchor="middle" style="font-color:black;font-weight:normal" transform="rotate(287.4505670559477,711.5,438)">Cl...es</text><path class="line" d=" M 946.0166959941727,520.1717785647238 A 248.4960399936249,248.4960399936249 0 0 0 952.7676209915548,497.4997222984166"/><line x1="1017.386369487342" y1="545.1788382184343" x2="946.0166959941727" y2="520.1717785647238"/><text x="997.8080199968124" y="438" text-anchor="start" style="font-color:black;font-weight:normal" transform="rotate(376.5816434082391,711.5,438)">2%&#160;&#160;&#160;Clostridiaceae</text><path class="line" d=" M 943.4168460382207,527.2460554657598 A 248.4960399936249,248.4960399936249 0 0 0 946.0166959941727,520.1717785647238"/><path class="line" d=" M 912.5047009838336,519.8160443388113 A 217.01786776404077,217.01786776404077 0 0 0 914.0388389572211,515.9408342443904"/><path class="line" d=" M 876.6988879115142,509.12531828453484 A 179.85962156158743,179.85962156158743 0 0 0 878.0882621718521,505.80733275125715"/><path class="line" d=" M 807.2262561238296,533.6692176769121 A 135.33704342269863,135.33704342269863 0 0 0 835.8054381664341,491.51890660923704"/><line x1="940.755740706183" y1="667.1191387755711" x2="807.2262561238296" y2="533.6692176769121"/><text x="711.5" y="604.5028481199208" text-anchor="middle" style="font-color:black;font-weight:normal" transform="rotate(304.1384544036436,711.5,438)">Bacteroidetes</text><path class="line" d=" M 846.112884500885,557.2847634638592 A 179.85962156158743,179.85962156158743 0 0 0 876.6988879115145,509.1253182845345"/><line x1="954.0821190193421" y1="652.9597402586953" x2="846.112884500885" y2="557.2847634638592"/><text x="711.5" y="629.0070954223235" text-anchor="middle" style="font-color:black;font-weight:normal" transform="rotate(302.4195792402724,711.5,438)">Flavo...eriia</text><path class="line" d=" M 873.9233439073812,581.9284971185182 A 217.01786776404077,217.01786776404077 0 0 0 910.8282878073416,523.819511817793"/><text x="711.5" y="670.7569538788329" text-anchor="middle" style="font-color:black;font-weight:normal" transform="rotate(302.4195792402724,711.5,438)">Flav...ales</text><path class="line" d=" M 900.1641796934525,599.7285045782279 A 248.4960399936249,248.4960399936249 0 0 0 939.7406084308661,536.2675254375588"/><line x1="957.579711869093" y1="648.9467937808588" x2="900.1641796934525" y2="599.7285045782279"/><text x="997.8080199968124" y="438" text-anchor="start" style="font-color:black;font-weight:normal" transform="rotate(391.94907036553064,711.5,438)">5%&#160;&#160;&#160;Flavobacteriaceae</text><path class="line" d=" M 897.4826482462321,602.8051468972724 A 248.4960399936249,248.4960399936249 0 0 0 900.1641796934525,599.7285045782279"/><line x1="954.0821190193423" y1="652.9597402586951" x2="897.4826482462321" y2="602.8051468972724"/><line x1="1025.12" y1="438" x2="1046.12" y2="438" class="tick" transform="rotate(403.2640499177884,711.5,438)"/><text x="1049.62" y="438" text-anchor="start" style="font-color:black;font-weight:normal" transform="rotate(403.2640499177884,711.5,438)">5 more</text><path class="line" d=" M 838.7178537709351,565.1420510696379 A 179.85962156158743,179.85962156158743 0 0 0 846.112884500885,557.2847634638592"/><path class="line" d=" M 800.1989398250207,540.218459175996 A 135.33704342269863,135.33704342269863 0 0 0 807.2262561238296,533.6692176769121"/><line x1="923.9259526365856" y1="682.8039808631369" x2="800.1989398250207" y2="540.218459175996"/><text x="711.5" y="586.6938168643653" text-anchor="middle" style="font-color:black;font-weight:normal" transform="rotate(317.01673763649484,711.5,438)">Tenericutes</text><path class="line" d=" M 829.6304192495455,573.6270161737847 A 179.85962156158743,179.85962156158743 0 0 0 838.7178537709351,565.1420510696379"/><line x1="924.3795287943602" y1="682.4096573793498" x2="829.6304192495455" y2="573.6270161737847"/><text x="963.4898107807937" y="438" text-anchor="start" style="font-color:black;font-weight:normal" transform="rotate(406.96361566676586,711.5,438)">1%&#160;&#160;&#160;Mollicutes</text><path class="line" d=" M 829.3787222358262,573.845832885394 A 179.85962156158743,179.85962156158743 0 0 0 829.6304192495455,573.6270161737847"/><line x1="1025.12" y1="438" x2="1046.12" y2="438" class="tick" transform="rotate(412.7235549559435,711.5,438)"/><text x="1049.62" y="438" text-anchor="start" style="font-color:black;font-weight:normal" transform="rotate(412.7235549559435,711.5,438)">23 more</text><path class="line" d=" M 786.4011444844003,550.7206009446561 A 135.33704342269863,135.33704342269863 0 0 0 800.1989398250207,540.218459175996"/><path class="line" d=" M 735.4767838095144,515.4013871849323 A 81.03,81.03 0 0 0 756.3453696347943,505.4889155515086"/><line x1="807.4071352380572" y1="747.6055487397296" x2="735.4767838095144" y2="515.4013871849323"/><text x="711.5" y="557.0449303958891" text-anchor="middle" style="font-color:black;font-weight:normal" transform="rotate(334.5925207639444,711.5,438)">Eukaryota</text><path class="line" d=" M 751.5462425220893,567.2765012763705 A 135.33704342269863,135.33704342269863 0 0 0 786.4011444844025,550.7206009446546"/><text x="711.5" y="604.5028481199208" text-anchor="middle" style="font-color:black;font-weight:normal" transform="rotate(334.5925207639444,711.5,438)">Metazoa</text><path class="line" d=" M 764.7204771349283,609.8053092363796 A 179.85962156158743,179.85962156158743 0 0 0 811.0417896001927,587.8029225064331"/><text x="711.5" y="643.8703939033048" text-anchor="middle" style="font-color:black;font-weight:normal" transform="rotate(334.5925207639444,711.5,438)">Chordata</text><path class="line" d=" M 775.7156053089001,645.2995681704674 A 217.01786776404077,217.01786776404077 0 0 0 831.6067073581801,618.7515802874962"/><text x="711.5" y="670.7569538788329" text-anchor="middle" style="font-color:black;font-weight:normal" transform="rotate(334.5925207639444,711.5,438)">Mammalia</text><path class="line" d=" M 785.0299991169636,675.368113112045 A 248.4960399936249,248.4960399936249 0 0 0 849.028036113745,644.9693725535489"/><text x="997.8080199968124" y="438" text-anchor="start" style="font-color:black;font-weight:normal" transform="rotate(424.5925207639444,711.5,438)">5%&#160;&#160;&#160;Primates</text><path class="line" d=" M 717.9433994184299,518.7734083961707 A 81.03,81.03 0 0 0 735.4767838095144,515.4013871849323"/><line x1="737.2735976737196" y1="761.0936335846827" x2="717.9433994184299" y2="518.7734083961707"/><text x="711.5" y="535.3221130268096" text-anchor="middle" style="font-color:black;font-weight:normal" transform="rotate(349.1137906319827,711.5,438)">Viruses</text><path class="line" d=" M 724.012000362739,572.7574308501028 A 135.33704342269863,135.33704342269863 0 0 0 751.5462425220893,567.2765012763705"/><line x1="741.4651112142648" y1="760.7318802193498" x2="724.012000362739" y2="572.7574308501028"/><text x="711.5" y="586.6938168643653" text-anchor="middle" style="font-color:black;font-weight:normal" transform="rotate(348.7419368438803,711.5,438)">Caudo...rales</text><path class="line" d=" M 729.1478473743612,616.991723136375 A 179.85962156158743,179.85962156158743 0 0 0 764.7204771349283,609.8053092363796"/><line x1="743.3026927962777" y1="760.5559844909184" x2="729.1478473743612" y2="616.991723136375"/><text x="963.4898107807937" y="438" text-anchor="start" style="font-color:black;font-weight:normal" transform="rotate(438.5787765082845,711.5,438)">3%&#160;&#160;&#160;Myoviridae</text><path class="line" d=" M 728.1281425492057,617.089330624805 A 179.85962156158743,179.85962156158743 0 0 0 729.1478473743612,616.991723136375"/><path class="line" d=" M 722.2618243475482,572.908481790842 A 135.33704342269863,135.33704342269863 0 0 0 724.012000362739,572.7574308501028"/><path class="line" d=" M 711.5000000000002,519.03 A 81.03,81.03 0 0 0 717.9433994184299,518.7734083961707"/><line x1="711.5000000000009" y1="762.12" x2="711.5000000000002" y2="519.03"/><text x="914.075" y="438" text-anchor="start" style="font-color:black;font-weight:normal" transform="rotate(447.719549728066,711.5,438)">1%&#160;&#160;&#160;Archaea</text><path class="line" d=" M 711.5000000000002,519.03 A 81.03,81.03 0 0 0 711.5000000000002,519.03"/><line x1="711.5000000000009" y1="762.12" x2="711.5000000000002" y2="519.03"/></svg>