<?xml version="1.0" standalone="no"?><!DOCTYPE svg PUBLIC "-//W3C//DTD SVG 1.1//EN" 	"http://www.w3.org/Graphics/SVG/1.1/DTD/svg11.dtd"><svg width="1573" height="876" version="1.1"	xmlns="http://www.w3.org/2000/svg"><title>Krona (snapshot) - all</title><defs>	<style type="text/css">	text {font-size: 14px; font-family: sans-serif; dominant-baseline:central}	path {stroke-width:0.35000000000000003;}	path.wedge {stroke:none}	path.line {fill:none;stroke:black;}	line {stroke:black;stroke-width:0.35000000000000003;}	line.tick {stroke-width:0.7000000000000001;}	line.pattern {stroke-width:0.23333333333333334;}	circle {fill:none;stroke:black;stroke-width:0.35000000000000003;}	rect {stroke:black;stroke-width:0.35000000000000003;}	.highlight {stroke:black;stroke-width:1.75;}	.searchHighlight {fill:rgb(255, 255, 100);stroke:none;}	</style><pattern id="hiddenPattern" patternUnits="userSpaceOnUse" x="0" y="0" width="8.4" height="8.4"><line class="pattern" x1="0" y1="0" x2="4.2" y2="4.2"/><line class="pattern" x1="4.2" y1="8.4" x2="8.4" y2="4.2"/></pattern></defs><path class="wedge" fill="rgb(220,220,220)" d=" M 711.5000000000197,519.03 L 711.5000000000787,762.12 A 324.12,324.12 0 0,1 711.5000000000001,762.12 L 711.5,519.03 A 81.03,81.03 0 0 0 711.5000000000197,519.03 Z "/><path class="wedge" fill="rgb(208,114,114)" d=" M 711.5,519.03 L 711.5,762.12 A 324.12,324.12 0 1,1 872.3565631598842,719.3875272438177 L 751.714140789971,508.3468818109544 A 81.03,81.03 0 1 0 711.5,519.03 Z "/><path class="wedge" fill="rgb(208,114,114)" d=" M 778.6660239207578,555.4940022004256 L 872.3565631598894,719.3875272438146 A 324.12,324.12 0 0,1 872.3565631598842,719.3875272438177 L 778.6660239207556,555.4940022004268 A 135.33704342269863,135.33704342269863 0 0 0 778.6660239207578,555.4940022004256 Z "/><path class="wedge" fill="rgb(212,127,127)" d=" M 711.5,573.3370434226986 L 711.5,762.12 A 324.12,324.12 0 0,1 497.75594623791767,194.34603659831006 L 622.250684051146,336.2617332314972 A 135.33704342269863,135.33704342269863 0 0 0 711.5,573.3370434226986 Z "/><path class="wedge" fill="rgb(216,140,140)" d=" M 711.5,617.8596215615875 L 711.5,762.12 A 324.12,324.12 0 0,1 413.26145328491333,564.9154980814915 L 546.0024307440044,508.4275375022752 A 179.85962156158743,179.85962156158743 0 0 0 711.5,617.8596215615875 Z "/><path class="wedge" fill="rgb(216,140,140)" d=" M 511.8113245305616,522.9775724418627 L 413.2614532849134,564.9154980814916 A 324.12,324.12 0 0,1 413.26145328491333,564.9154980814915 L 511.8113245305616,522.9775724418625 A 217.01786776404077,217.01786776404077 0 0 0 511.8113245305616,522.9775724418627 Z "/><path class="wedge" fill="rgb(221,153,153)" d=" M 711.5,655.0178677640408 L 711.5,762.12 A 324.12,324.12 0 0,1 447.0027921784087,625.3365993461554 L 534.4031837869181,563.4331400230441 A 217.01786776404077,217.01786776404077 0 0 0 711.5,655.0178677640408 Z "/><path class="wedge" fill="rgb(225,165,165)" d=" M 711.5,686.4960399936249 L 711.5,762.12 A 324.12,324.12 0 0,1 449.84713934472154,629.2891918298299 L 510.8962121256311,584.6574313935998 A 248.4960399936249,248.4960399936249 0 0 0 711.5,686.4960399936249 Z "/><path class="wedge" fill="rgb(225,170,165)" d=" M 510.8962121256311,584.6574313935998 L 449.84713934472154,629.2891918298299 A 324.12,324.12 0 0,1 447.0027921784087,625.3365993461554 L 508.71551051142706,581.6270612223618 A 248.4960399936249,248.4960399936249 0 0 0 510.8962121256311,584.6574313935998 Z "/><path class="wedge" fill="url(#hiddenPattern)" d=" M 510.8962121256311,584.6574313935998 L 449.84713934472154,629.2891918298299 A 324.12,324.12 0 0,1 447.0027921784087,625.3365993461554 L 508.71551051142706,581.6270612223618 A 248.4960399936249,248.4960399936249 0 0 0 510.8962121256311,584.6574313935998 Z "/><path class="wedge" fill="rgb(216,147,140)" d=" M 534.4031837869181,563.4331400230441 L 447.0027921784087,625.3365993461554 A 324.12,324.12 0 0,1 413.2614532849134,564.9154980814916 L 511.8113245305616,522.9775724418627 A 217.01786776404077,217.01786776404077 0 0 0 534.4031837869181,563.4331400230441 Z "/><path class="wedge" fill="url(#hiddenPattern)" d=" M 534.4031837869181,563.4331400230441 L 447.0027921784087,625.3365993461554 A 324.12,324.12 0 0,1 413.2614532849134,564.9154980814916 L 511.8113245305616,522.9775724418627 A 217.01786776404077,217.01786776404077 0 0 0 534.4031837869181,563.4331400230441 Z "/><path class="wedge" fill="rgb(216,147,140)" d=" M 546.0024307440044,508.4275375022752 L 413.26145328491333,564.9154980814915 A 324.12,324.12 0 0,1 457.3628801545831,236.8331570146904 L 570.4750518321964,326.3691464578642 A 179.85962156158743,179.85962156158743 0 0 0 546.0024307440044,508.4275375022752 Z "/><path class="wedge" fill="rgb(216,147,140)" d=" M 541.3398868673734,303.30667860824576 L 457.3628801545828,236.83315701469078 A 324.12,324.12 0 0,1 457.3628801545831,236.8331570146904 L 541.3398868673736,303.30667860824553 A 217.01786776404077,217.01786776404077 0 0 0 541.3398868673734,303.30667860824576 Z "/><path class="wedge" fill="rgb(221,159,153)" d=" M 511.8113245305616,522.9775724418625 L 413.26145328491333,564.9154980814915 A 324.12,324.12 0 0,1 395.928273757445,364.0523158152066 L 500.20571653777347,388.48757019661684 A 217.01786776404077,217.01786776404077 0 0 0 511.8113245305616,522.9775724418625 Z "/><path class="wedge" fill="rgb(225,171,165)" d=" M 482.8467301241739,535.3034638006576 L 413.26145328491333,564.9154980814915 A 324.12,324.12 0 0,1 390.1564171901653,395.6670791588991 L 465.13258112548624,405.5442330298126 A 248.4960399936249,248.4960399936249 0 0 0 482.8467301241739,535.3034638006576 Z "/><path class="wedge" fill="rgb(225,174,165)" d=" M 465.13258112548624,405.5442330298126 L 390.1564171901653,395.6670791588991 A 324.12,324.12 0 0,1 394.0520692383438,372.57381521789046 L 468.11929625311,387.8391094957257 A 248.4960399936249,248.4960399936249 0 0 0 465.13258112548624,405.5442330298126 Z "/><path class="wedge" fill="rgb(225,174,165)" d=" M 468.11929625311,387.8391094957257 L 394.0520692383438,372.57381521789046 A 324.12,324.12 0 0,1 395.928273757445,364.0523158152066 L 469.55774310370487,381.3058537374418 A 248.4960399936249,248.4960399936249 0 0 0 468.11929625311,387.8391094957257 Z "/><path class="wedge" fill="url(#hiddenPattern)" d=" M 468.11929625311,387.8391094957257 L 394.0520692383438,372.57381521789046 A 324.12,324.12 0 0,1 395.928273757445,364.0523158152066 L 469.55774310370487,381.3058537374418 A 248.4960399936249,248.4960399936249 0 0 0 468.11929625311,387.8391094957257 Z "/><path class="wedge" fill="rgb(221,163,153)" d=" M 500.20571653777347,388.48757019661684 L 395.928273757445,364.0523158152066 A 324.12,324.12 0 0,1 407.4020259154531,325.84744069940166 L 507.8880848846326,362.9071045177835 A 217.01786776404077,217.01786776404077 0 0 0 500.20571653777347,388.48757019661684 Z "/><path class="wedge" fill="rgb(225,174,165)" d=" M 469.55774310370487,381.3058537374418 L 395.928273757445,364.0523158152066 A 324.12,324.12 0 0,1 406.2046733653789,329.1490104084488 L 477.4364442266334,354.54621787335634 A 248.4960399936249,248.4960399936249 0 0 0 469.55774310370487,381.3058537374418 Z "/><path class="wedge" fill="rgb(225,175,165)" d=" M 477.4364442266334,354.54621787335634 L 406.2046733653789,329.1490104084488 A 324.12,324.12 0 0,1 407.4020259154531,325.84744069940166 L 478.35442943942405,352.014973277339 A 248.4960399936249,248.4960399936249 0 0 0 477.4364442266334,354.54621787335634 Z "/><path class="wedge" fill="url(#hiddenPattern)" d=" M 477.4364442266334,354.54621787335634 L 406.2046733653789,329.1490104084488 A 324.12,324.12 0 0,1 407.4020259154531,325.84744069940166 L 478.35442943942405,352.014973277339 A 248.4960399936249,248.4960399936249 0 0 0 477.4364442266334,354.54621787335634 Z "/><path class="wedge" fill="rgb(221,164,153)" d=" M 507.8880848846326,362.9071045177835 L 407.4020259154531,325.84744069940166 A 324.12,324.12 0 0,1 422.44664760742813,291.3646227180641 L 517.9613655242384,339.81878033906764 A 217.01786776404077,217.01786776404077 0 0 0 507.8880848846326,362.9071045177835 Z "/><path class="wedge" fill="rgb(225,175,165)" d=" M 478.35442943942405,352.014973277339 L 407.4020259154531,325.84744069940166 A 324.12,324.12 0 0,1 414.8928516277295,307.3172775977257 L 484.0974891882304,337.80828393017606 A 248.4960399936249,248.4960399936249 0 0 0 478.35442943942405,352.014973277339 Z "/><path class="wedge" fill="rgb(225,176,165)" d=" M 484.0974891882304,337.80828393017606 L 414.8928516277295,307.3172775977257 A 324.12,324.12 0 0,1 422.44664760742825,291.36462271806397 L 489.8888269269534,325.577716347241 A 248.4960399936249,248.4960399936249 0 0 0 484.0974891882304,337.80828393017606 Z "/><path class="wedge" fill="url(#hiddenPattern)" d=" M 484.0974891882304,337.80828393017606 L 414.8928516277295,307.3172775977257 A 324.12,324.12 0 0,1 422.44664760742825,291.36462271806397 L 489.8888269269534,325.577716347241 A 248.4960399936249,248.4960399936249 0 0 0 484.0974891882304,337.80828393017606 Z "/><path class="wedge" fill="rgb(216,153,140)" d=" M 517.9613655242384,339.81878033906764 L 422.44664760742813,291.3646227180641 A 324.12,324.12 0 0,1 433.0815577425961,272.05740326558504 L 525.0820785977801,326.89143368341723 A 217.01786776404077,217.01786776404077 0 0 0 517.9613655242384,339.81878033906764 Z "/><path class="wedge" fill="url(#hiddenPattern)" d=" M 517.9613655242384,339.81878033906764 L 422.44664760742813,291.3646227180641 A 324.12,324.12 0 0,1 433.0815577425961,272.05740326558504 L 525.0820785977801,326.89143368341723 A 217.01786776404077,217.01786776404077 0 0 0 517.9613655242384,339.81878033906764 Z "/><path class="wedge" fill="rgb(216,154,140)" d=" M 525.0820785977801,326.89143368341723 L 433.0815577425961,272.05740326558504 A 324.12,324.12 0 0,1 457.3628801545828,236.83315701469078 L 541.3398868673734,303.30667860824576 A 217.01786776404077,217.01786776404077 0 0 0 525.0820785977801,326.89143368341723 Z "/><path class="wedge" fill="url(#hiddenPattern)" d=" M 525.0820785977801,326.89143368341723 L 433.0815577425961,272.05740326558504 A 324.12,324.12 0 0,1 457.3628801545828,236.83315701469078 L 541.3398868673734,303.30667860824576 A 217.01786776404077,217.01786776404077 0 0 0 525.0820785977801,326.89143368341723 Z "/><path class="wedge" fill="rgb(216,154,140)" d=" M 570.4750518321964,326.3691464578642 L 457.3628801545831,236.8331570146904 A 324.12,324.12 0 0,1 473.97621689209177,217.46377427255317 L 579.69407089453,315.6207512650888 A 179.85962156158743,179.85962156158743 0 0 0 570.4750518321964,326.3691464578642 Z "/><path class="wedge" fill="rgb(221,166,153)" d=" M 541.3398868673736,303.30667860824553 L 457.3628801545831,236.8331570146904 A 324.12,324.12 0 0,1 473.08944413512506,218.42272145733892 L 551.8697689552175,290.9797828003234 A 217.01786776404077,217.01786776404077 0 0 0 541.3398868673736,303.30667860824553 Z "/><path class="wedge" fill="rgb(221,166,153)" d=" M 528.7156021686403,269.6546828630495 L 473.08944413512495,218.42272145733904 A 324.12,324.12 0 0,1 473.08944413512506,218.42272145733892 L 528.7156021686403,269.6546828630494 A 248.4960399936249,248.4960399936249 0 0 0 528.7156021686403,269.6546828630495 Z "/><path class="wedge" fill="rgb(225,177,165)" d=" M 516.658373759807,283.769579600553 L 457.3628801545831,236.8331570146904 A 324.12,324.12 0 0,1 470.80428067328467,220.93009168059461 L 526.9636150311435,271.5770312873274 A 248.4960399936249,248.4960399936249 0 0 0 516.658373759807,283.769579600553 Z "/><path class="wedge" fill="rgb(225,177,165)" d=" M 526.9636150311435,271.5770312873274 L 470.80428067328467,220.93009168059461 A 324.12,324.12 0 0,1 473.08944413512495,218.42272145733904 L 528.7156021686403,269.6546828630495 A 248.4960399936249,248.4960399936249 0 0 0 526.9636150311435,271.5770312873274 Z "/><path class="wedge" fill="url(#hiddenPattern)" d=" M 526.9636150311435,271.5770312873274 L 470.80428067328467,220.93009168059461 A 324.12,324.12 0 0,1 473.08944413512495,218.42272145733904 L 528.7156021686403,269.6546828630495 A 248.4960399936249,248.4960399936249 0 0 0 526.9636150311435,271.5770312873274 Z "/><path class="wedge" fill="rgb(216,155,140)" d=" M 551.8697689552175,290.9797828003234 L 473.08944413512506,218.42272145733892 A 324.12,324.12 0 0,1 473.97621689209177,217.46377427255317 L 552.4635167427906,290.33770988492006 A 217.01786776404077,217.01786776404077 0 0 0 551.8697689552175,290.9797828003234 Z "/><path class="wedge" fill="url(#hiddenPattern)" d=" M 551.8697689552175,290.9797828003234 L 473.08944413512506,218.42272145733892 A 324.12,324.12 0 0,1 473.97621689209177,217.46377427255317 L 552.4635167427906,290.33770988492006 A 217.01786776404077,217.01786776404077 0 0 0 551.8697689552175,290.9797828003234 Z "/><path class="wedge" fill="rgb(212,144,127)" d=" M 579.69407089453,315.6207512650888 L 473.97621689209177,217.46377427255317 A 324.12,324.12 0 0,1 491.18219525197264,200.27360409283514 L 589.2419567281873,306.0816376556128 A 179.85962156158743,179.85962156158743 0 0 0 579.69407089453,315.6207512650888 Z "/><path class="wedge" fill="url(#hiddenPattern)" d=" M 579.69407089453,315.6207512650888 L 473.97621689209177,217.46377427255317 A 324.12,324.12 0 0,1 491.18219525197264,200.27360409283514 L 589.2419567281873,306.0816376556128 A 179.85962156158743,179.85962156158743 0 0 0 579.69407089453,315.6207512650888 Z "/><path class="wedge" fill="rgb(212,145,127)" d=" M 589.2419567281873,306.0816376556128 L 491.18219525197264,200.27360409283514 A 324.12,324.12 0 0,1 497.7559462379178,194.34603659830998 L 592.8898413529319,302.792331082905 A 179.85962156158743,179.85962156158743 0 0 0 589.2419567281873,306.0816376556128 Z "/><path class="wedge" fill="url(#hiddenPattern)" d=" M 589.2419567281873,306.0816376556128 L 491.18219525197264,200.27360409283514 A 324.12,324.12 0 0,1 497.7559462379178,194.34603659830998 L 592.8898413529319,302.792331082905 A 179.85962156158743,179.85962156158743 0 0 0 589.2419567281873,306.0816376556128 Z "/><path class="wedge" fill="rgb(212,145,127)" d=" M 622.250684051146,336.2617332314972 L 497.75594623791767,194.34603659831006 A 324.12,324.12 0 0,1 1035.2210833743725,421.9240994366565 L 846.6704748780714,431.28747114463715 A 135.33704342269863,135.33704342269863 0 0 0 622.250684051146,336.2617332314972 Z "/><path class="wedge" fill="rgb(216,156,140)" d=" M 592.8898413529319,302.792331082905 L 497.75594623791767,194.34603659831006 A 324.12,324.12 0 0,1 1033.9012567455025,404.665272628675 L 890.4058621165811,419.50200095685176 A 179.85962156158743,179.85962156158743 0 0 0 592.8898413529319,302.792331082905 Z "/><path class="wedge" fill="rgb(221,167,153)" d=" M 568.385478234328,274.8589917015538 L 497.75594623791767,194.34603659831006 A 324.12,324.12 0 0,1 1025.3049181341926,356.8812737107345 L 921.6112989860293,383.6861254626952 A 217.01786776404077,217.01786776404077 0 0 0 568.385478234328,274.8589917015538 Z "/><path class="wedge" fill="rgb(225,178,165)" d=" M 547.6268945697213,251.1955910339641 L 497.75594623791767,194.34603659831006 A 324.12,324.12 0 0,1 1025.3049181341926,356.8812737107345 L 952.0876819908382,375.8079654072281 A 248.4960399936249,248.4960399936249 0 0 0 547.6268945697213,251.1955910339641 Z "/><path class="wedge" fill="rgb(221,179,153)" d=" M 921.6112989860293,383.6861254626952 L 1025.3049181341926,356.8812737107345 A 324.12,324.12 0 0,1 1033.7810928824424,403.5228833789933 L 927.2866086573258,414.91549322552436 A 217.01786776404077,217.01786776404077 0 0 0 921.6112989860293,383.6861254626952 Z "/><path class="wedge" fill="rgb(225,188,165)" d=" M 952.0876819908382,375.8079654072281 L 1025.3049181341926,356.8812737107345 A 324.12,324.12 0 0,1 1033.7060978077216,402.8289190453155 L 958.5286911237115,411.0350662114825 A 248.4960399936249,248.4960399936249 0 0 0 952.0876819908382,375.8079654072281 Z "/><path class="wedge" fill="rgb(225,189,165)" d=" M 958.5286911237115,411.0350662114825 L 1033.7060978077216,402.8289190453155 A 324.12,324.12 0 0,1 1033.7810928824424,403.5228833789933 L 958.5861882824404,411.567114183887 A 248.4960399936249,248.4960399936249 0 0 0 958.5286911237115,411.0350662114825 Z "/><path class="wedge" fill="url(#hiddenPattern)" d=" M 958.5286911237115,411.0350662114825 L 1033.7060978077216,402.8289190453155 A 324.12,324.12 0 0,1 1033.7810928824424,403.5228833789933 L 958.5861882824404,411.567114183887 A 248.4960399936249,248.4960399936249 0 0 0 958.5286911237115,411.0350662114825 Z "/><path class="wedge" fill="rgb(216,170,140)" d=" M 927.2866086573258,414.91549322552436 L 1033.7810928824424,403.5228833789933 A 324.12,324.12 0 0,1 1033.9012567455025,404.665272628675 L 927.3670656033445,415.68039165549624 A 217.01786776404077,217.01786776404077 0 0 0 927.2866086573258,414.91549322552436 Z "/><path class="wedge" fill="url(#hiddenPattern)" d=" M 927.2866086573258,414.91549322552436 L 1033.7810928824424,403.5228833789933 A 324.12,324.12 0 0,1 1033.9012567455025,404.665272628675 L 927.3670656033445,415.68039165549624 A 217.01786776404077,217.01786776404077 0 0 0 927.2866086573258,414.91549322552436 Z "/><path class="wedge" fill="rgb(212,161,127)" d=" M 890.4058621165811,419.50200095685176 L 1033.9012567455025,404.665272628675 A 324.12,324.12 0 0,1 1035.2210833743725,421.9240994366568 L 891.1382560385714,429.07921328031404 A 179.85962156158743,179.85962156158743 0 0 0 890.4058621165811,419.50200095685176 Z "/><path class="wedge" fill="url(#hiddenPattern)" d=" M 890.4058621165811,419.50200095685176 L 1033.9012567455025,404.665272628675 A 324.12,324.12 0 0,1 1035.2210833743725,421.9240994366568 L 891.1382560385714,429.07921328031404 A 179.85962156158743,179.85962156158743 0 0 0 890.4058621165811,419.50200095685176 Z "/><path class="wedge" fill="rgb(212,161,127)" d=" M 846.6704748780714,431.28747114463715 L 1035.2210833743725,421.9240994366565 A 324.12,324.12 0 0,1 1014.417063682649,553.3040629374437 L 837.9837091234574,486.1454738139529 A 135.33704342269863,135.33704342269863 0 0 0 846.6704748780714,431.28747114463715 Z "/><path class="wedge" fill="rgb(216,171,140)" d=" M 891.1382560385714,429.07921328031387 L 1035.2210833743725,421.9240994366565 A 324.12,324.12 0 0,1 1029.2844280607424,501.77171537685706 L 887.8439064826935,473.3879939343909 A 179.85962156158743,179.85962156158743 0 0 0 891.1382560385714,429.07921328031387 Z "/><path class="wedge" fill="rgb(221,180,153)" d=" M 928.25076904903,427.2362160229435 L 1035.2210833743725,421.9240994366565 A 324.12,324.12 0 0,1 1032.9132409674212,479.80075275420813 L 926.7055295133888,465.98812240420244 A 217.01786776404077,217.01786776404077 0 0 0 928.25076904903,427.2362160229435 Z "/><path class="wedge" fill="rgb(225,189,165)" d=" M 959.690198941681,425.6749425233798 L 1035.2210833743725,421.9240994366565 A 324.12,324.12 0 0,1 1035.4135248592465,449.5673165971311 L 959.8377398121046,446.86842023861414 A 248.4960399936249,248.4960399936249 0 0 0 959.690198941681,425.6749425233798 Z "/><path class="wedge" fill="rgb(225,190,165)" d=" M 959.8377398121046,446.86842023861414 L 1035.4135248592465,449.5673165971311 A 324.12,324.12 0 0,1 1034.1036806285554,469.31516637204845 L 958.833509575355,462.0086845464506 A 248.4960399936249,248.4960399936249 0 0 0 959.8377398121046,446.86842023861414 Z "/><path class="wedge" fill="rgb(225,190,165)" d=" M 958.833509575355,462.0086845464506 L 1034.1036806285554,469.31516637204845 A 324.12,324.12 0 0,1 1032.9132409674212,479.80075275420813 L 957.9208243302508,470.04776480369406 A 248.4960399936249,248.4960399936249 0 0 0 958.833509575355,462.0086845464506 Z "/><path class="wedge" fill="url(#hiddenPattern)" d=" M 958.833509575355,462.0086845464506 L 1034.1036806285554,469.31516637204845 A 324.12,324.12 0 0,1 1032.9132409674212,479.80075275420813 L 957.9208243302508,470.04776480369406 A 248.4960399936249,248.4960399936249 0 0 0 958.833509575355,462.0086845464506 Z "/><path class="wedge" fill="rgb(216,172,140)" d=" M 926.7055295133888,465.98812240420244 L 1032.9132409674212,479.80075275420813 A 324.12,324.12 0 0,1 1029.2844280607424,501.77171537685706 L 924.2758206416065,480.6990055989782 A 217.01786776404077,217.01786776404077 0 0 0 926.7055295133888,465.98812240420244 Z "/><path class="wedge" fill="url(#hiddenPattern)" d=" M 926.7055295133888,465.98812240420244 L 1032.9132409674212,479.80075275420813 A 324.12,324.12 0 0,1 1029.2844280607424,501.77171537685706 L 924.2758206416065,480.6990055989782 A 217.01786776404077,217.01786776404077 0 0 0 926.7055295133888,465.98812240420244 Z "/><path class="wedge" fill="rgb(216,172,140)" d=" M 887.8439064826935,473.3879939343909 L 1029.2844280607424,501.77171537685706 A 324.12,324.12 0 0,1 1016.7540966763263,546.9665584586395 L 880.8906155384681,498.4673700087606 A 179.85962156158743,179.85962156158743 0 0 0 887.8439064826935,473.3879939343909 Z "/><path class="wedge" fill="rgb(216,172,140)" d=" M 915.8860088452878,510.9596759665543 L 1016.7540966763263,546.9665584586392 A 324.12,324.12 0 0,1 1016.7540966763263,546.9665584586395 L 915.8860088452878,510.95967596655447 A 217.01786776404077,217.01786776404077 0 0 0 915.8860088452878,510.9596759665543 Z "/><path class="wedge" fill="rgb(221,181,153)" d=" M 924.2758206416065,480.6990055989782 L 1029.2844280607424,501.77171537685706 A 324.12,324.12 0 0,1 1018.7368835098316,541.2437495016824 L 917.2136040903758,507.12791057885926 A 217.01786776404077,217.01786776404077 0 0 0 924.2758206416065,480.6990055989782 Z "/><path class="wedge" fill="rgb(221,181,153)" d=" M 947.0521069115631,517.154828166302 L 1018.7368835098317,541.2437495016821 A 324.12,324.12 0 0,1 1018.7368835098316,541.2437495016824 L 947.052106911563,517.1548281663022 A 248.4960399936249,248.4960399936249 0 0 0 947.0521069115631,517.154828166302 Z "/><path class="wedge" fill="rgb(225,191,165)" d=" M 955.1386892037931,486.8924433381141 L 1029.2844280607424,501.77171537685706 A 324.12,324.12 0 0,1 1022.3096237542549,529.9301483830986 L 949.7912522980403,508.4809262903442 A 248.4960399936249,248.4960399936249 0 0 0 955.1386892037931,486.8924433381141 Z "/><path class="wedge" fill="rgb(225,191,165)" d=" M 949.7912522980403,508.4809262903442 L 1022.3096237542549,529.9301483830986 A 324.12,324.12 0 0,1 1018.7368835098317,541.2437495016821 L 947.0521069115631,517.154828166302 A 248.4960399936249,248.4960399936249 0 0 0 949.7912522980403,508.4809262903442 Z "/><path class="wedge" fill="url(#hiddenPattern)" d=" M 949.7912522980403,508.4809262903442 L 1022.3096237542549,529.9301483830986 A 324.12,324.12 0 0,1 1018.7368835098317,541.2437495016821 L 947.0521069115631,517.154828166302 A 248.4960399936249,248.4960399936249 0 0 0 949.7912522980403,508.4809262903442 Z "/><path class="wedge" fill="rgb(216,173,140)" d=" M 917.2136040903758,507.12791057885926 L 1018.7368835098316,541.2437495016824 A 324.12,324.12 0 0,1 1016.7540966763263,546.9665584586392 L 915.8860088452878,510.9596759665543 A 217.01786776404077,217.01786776404077 0 0 0 917.2136040903758,507.12791057885926 Z "/><path class="wedge" fill="url(#hiddenPattern)" d=" M 917.2136040903758,507.12791057885926 L 1018.7368835098316,541.2437495016824 A 324.12,324.12 0 0,1 1016.7540966763263,546.9665584586392 L 915.8860088452878,510.9596759665543 A 217.01786776404077,217.01786776404077 0 0 0 917.2136040903758,507.12791057885926 Z "/><path class="wedge" fill="rgb(212,164,127)" d=" M 880.8906155384681,498.4673700087606 L 1016.7540966763263,546.9665584586395 A 324.12,324.12 0 0,1 1014.417063682649,553.3040629374437 L 879.5937567521552,501.98415748624615 A 179.85962156158743,179.85962156158743 0 0 0 880.8906155384681,498.4673700087606 Z "/><path class="wedge" fill="url(#hiddenPattern)" d=" M 880.8906155384681,498.4673700087606 L 1016.7540966763263,546.9665584586395 A 324.12,324.12 0 0,1 1014.417063682649,553.3040629374437 L 879.5937567521552,501.98415748624615 A 179.85962156158743,179.85962156158743 0 0 0 880.8906155384681,498.4673700087606 Z "/><path class="wedge" fill="rgb(212,164,127)" d=" M 837.9837091234574,486.1454738139529 L 1014.417063682649,553.3040629374437 A 324.12,324.12 0 0,1 947.9866465534523,659.6480101464991 L 810.2455373117764,530.54963091988 A 135.33704342269863,135.33704342269863 0 0 0 837.9837091234574,486.1454738139529 Z "/><path class="wedge" fill="rgb(216,173,140)" d=" M 879.5937567521552,501.98415748624615 L 1014.417063682649,553.3040629374437 A 324.12,324.12 0 0,1 960.8991211206804,645.0117213691827 L 849.8957532474333,552.874274541139 A 179.85962156158743,179.85962156158743 0 0 0 879.5937567521552,501.98415748624615 Z "/><path class="wedge" fill="rgb(221,182,153)" d=" M 914.3212244531428,515.2030170406479 L 1014.417063682649,553.3040629374437 A 324.12,324.12 0 0,1 960.8991211206804,645.0117213691827 L 878.4877375288036,576.6068196152776 A 217.01786776404077,217.01786776404077 0 0 0 914.3212244531428,515.2030170406479 Z "/><path class="wedge" fill="rgb(225,191,165)" d=" M 943.7401911996635,526.4012187928251 L 1014.417063682649,553.3040629374437 A 324.12,324.12 0 0,1 963.9544849350866,641.2744633153908 L 905.0515851690709,593.846288922942 A 248.4960399936249,248.4960399936249 0 0 0 943.7401911996635,526.4012187928251 Z "/><path class="wedge" fill="rgb(225,193,165)" d=" M 905.0515851690709,593.846288922942 L 963.9544849350866,641.2744633153908 A 324.12,324.12 0 0,1 960.8991211206804,645.0117213691827 L 902.709101494445,596.7115666805676 A 248.4960399936249,248.4960399936249 0 0 0 905.0515851690709,593.846288922942 Z "/><path class="wedge" fill="url(#hiddenPattern)" d=" M 905.0515851690709,593.846288922942 L 963.9544849350866,641.2744633153908 A 324.12,324.12 0 0,1 960.8991211206804,645.0117213691827 L 902.709101494445,596.7115666805676 A 248.4960399936249,248.4960399936249 0 0 0 905.0515851690709,593.846288922942 Z "/><path class="wedge" fill="rgb(212,167,127)" d=" M 849.8957532474333,552.874274541139 L 960.8991211206804,645.0117213691827 A 324.12,324.12 0 0,1 947.986646553452,659.6480101464992 L 842.7304046448006,560.9961965470451 A 179.85962156158743,179.85962156158743 0 0 0 849.8957532474333,552.874274541139 Z "/><path class="wedge" fill="url(#hiddenPattern)" d=" M 849.8957532474333,552.874274541139 L 960.8991211206804,645.0117213691827 A 324.12,324.12 0 0,1 947.986646553452,659.6480101464992 L 842.7304046448006,560.9961965470451 A 179.85962156158743,179.85962156158743 0 0 0 849.8957532474333,552.874274541139 Z "/><path class="wedge" fill="rgb(212,167,127)" d=" M 810.2455373117764,530.54963091988 L 947.9866465534523,659.6480101464991 A 324.12,324.12 0 0,1 922.3181068215972,684.1899677813002 L 799.5275801468765,540.7971811670079 A 135.33704342269863,135.33704342269863 0 0 0 810.2455373117764,530.54963091988 Z "/><path class="wedge" fill="rgb(212,167,127)" d=" M 828.486501639093,574.6149402610268 L 922.3181068215974,684.1899677813 A 324.12,324.12 0 0,1 922.3181068215972,684.1899677813002 L 828.4865016390929,574.614940261027 A 179.85962156158743,179.85962156158743 0 0 0 828.486501639093,574.6149402610268 Z "/><path class="wedge" fill="rgb(212,167,127)" d=" M 842.7304046448007,560.996196547045 L 947.9866465534523,659.6480101464991 A 324.12,324.12 0 0,1 923.288560528506,683.3556195184112 L 829.0250226697841,574.1519464228998 A 179.85962156158743,179.85962156158743 0 0 0 842.7304046448007,560.996196547045 Z "/><path class="wedge" fill="url(#hiddenPattern)" d=" M 842.7304046448007,560.996196547045 L 947.9866465534523,659.6480101464991 A 324.12,324.12 0 0,1 923.288560528506,683.3556195184112 L 829.0250226697841,574.1519464228998 A 179.85962156158743,179.85962156158743 0 0 0 842.7304046448007,560.996196547045 Z "/><path class="wedge" fill="rgb(212,168,127)" d=" M 829.0250226697841,574.1519464228998 L 923.288560528506,683.3556195184112 A 324.12,324.12 0 0,1 922.3181068215974,684.1899677813 L 828.486501639093,574.6149402610268 A 179.85962156158743,179.85962156158743 0 0 0 829.0250226697841,574.1519464228998 Z "/><path class="wedge" fill="url(#hiddenPattern)" d=" M 829.0250226697841,574.1519464228998 L 923.288560528506,683.3556195184112 A 324.12,324.12 0 0,1 922.3181068215974,684.1899677813 L 828.486501639093,574.6149402610268 A 179.85962156158743,179.85962156158743 0 0 0 829.0250226697841,574.1519464228998 Z "/><path class="wedge" fill="rgb(208,161,114)" d=" M 799.5275801468765,540.7971811670079 L 922.3181068215972,684.1899677813002 A 324.12,324.12 0 0,1 872.3565631598894,719.3875272438146 L 778.6660239207578,555.4940022004256 A 135.33704342269863,135.33704342269863 0 0 0 799.5275801468765,540.7971811670079 Z "/><path class="wedge" fill="url(#hiddenPattern)" d=" M 799.5275801468765,540.7971811670079 L 922.3181068215972,684.1899677813002 A 324.12,324.12 0 0,1 872.3565631598894,719.3875272438146 L 778.6660239207578,555.4940022004256 A 135.33704342269863,135.33704342269863 0 0 0 799.5275801468765,540.7971811670079 Z "/><path class="wedge" fill="rgb(189,208,114)" d=" M 751.714140789971,508.3468818109544 L 872.3565631598842,719.3875272438177 A 324.12,324.12 0 0,1 785.163307390081,753.6382289019416 L 729.9158268475203,516.9095572254854 A 81.03,81.03 0 0 0 751.714140789971,508.3468818109544 Z "/><path class="wedge" fill="rgb(195,212,127)" d=" M 778.6660239207556,555.4940022004268 L 872.3565631598842,719.3875272438177 A 324.12,324.12 0 0,1 785.163307390081,753.6382289019416 L 742.2582815960477,569.7954606033745 A 135.33704342269863,135.33704342269863 0 0 0 778.6660239207556,555.4940022004268 Z "/><path class="wedge" fill="rgb(201,216,140)" d=" M 800.7620035037467,594.146656060175 L 872.3565631598842,719.3875272438177 A 324.12,324.12 0 0,1 785.163307390081,753.6382289019416 L 752.3770041656018,613.1529445905002 A 179.85962156158743,179.85962156158743 0 0 0 800.7620035037467,594.146656060175 Z "/><path class="wedge" fill="rgb(207,221,153)" d=" M 819.2031604122233,626.4059026837258 L 872.3565631598842,719.3875272438177 A 324.12,324.12 0 0,1 785.163307390081,753.6382289019416 L 760.8220224060301,649.3388109993755 A 217.01786776404077,217.01786776404077 0 0 0 819.2031604122233,626.4059026837258 Z "/><path class="wedge" fill="rgb(213,225,165)" d=" M 834.8253700858189,653.7339449083269 L 872.3565631598842,719.3875272438177 A 324.12,324.12 0 0,1 785.163307390081,753.6382289019416 L 767.9761205086642,679.9932430974139 A 248.4960399936249,248.4960399936249 0 0 0 834.8253700858189,653.7339449083269 Z "/><path class="wedge" fill="rgb(114,208,152)" d=" M 729.9158268475203,516.9095572254854 L 785.163307390081,753.6382289019416 A 324.12,324.12 0 0,1 731.6479809249404,761.4931734436575 L 716.5369952312351,518.8732933609143 A 81.03,81.03 0 0 0 729.9158268475203,516.9095572254854 Z "/><path class="wedge" fill="rgb(127,212,161)" d=" M 742.2582815960477,569.7954606033745 L 785.163307390081,753.6382289019416 A 324.12,324.12 0 0,1 737.2571143796965,761.0949480552601 L 722.2549417106269,572.9090306510221 A 135.33704342269863,135.33704342269863 0 0 0 742.2582815960477,569.7954606033745 Z "/><path class="wedge" fill="rgb(127,212,161)" d=" M 725.7930545626646,617.2908030534364 L 737.2571143796971,761.0949480552601 A 324.12,324.12 0 0,1 737.2571143796965,761.0949480552601 L 725.7930545626642,617.2908030534364 A 179.85962156158743,179.85962156158743 0 0 0 725.7930545626646,617.2908030534364 Z "/><path class="wedge" fill="rgb(127,212,161)" d=" M 752.3770041656018,613.1529445905002 L 785.163307390081,753.6382289019416 A 324.12,324.12 0 0,1 740.2863488409984,760.8391558042556 L 727.4740275474571,617.1488596452417 A 179.85962156158743,179.85962156158743 0 0 0 752.3770041656018,613.1529445905002 Z "/><path class="wedge" fill="url(#hiddenPattern)" d=" M 752.3770041656018,613.1529445905002 L 785.163307390081,753.6382289019416 A 324.12,324.12 0 0,1 740.2863488409984,760.8391558042556 L 727.4740275474571,617.1488596452417 A 179.85962156158743,179.85962156158743 0 0 0 752.3770041656018,613.1529445905002 Z "/><path class="wedge" fill="rgb(127,212,198)" d=" M 727.4740275474571,617.1488596452417 L 740.2863488409984,760.8391558042556 A 324.12,324.12 0 0,1 737.2571143796971,761.0949480552601 L 725.7930545626646,617.2908030534364 A 179.85962156158743,179.85962156158743 0 0 0 727.4740275474571,617.1488596452417 Z "/><path class="wedge" fill="url(#hiddenPattern)" d=" M 727.4740275474571,617.1488596452417 L 740.2863488409984,760.8391558042556 A 324.12,324.12 0 0,1 737.2571143796971,761.0949480552601 L 725.7930545626646,617.2908030534364 A 179.85962156158743,179.85962156158743 0 0 0 727.4740275474571,617.1488596452417 Z "/><path class="wedge" fill="rgb(114,208,198)" d=" M 722.2549417106269,572.9090306510221 L 737.2571143796965,761.0949480552601 A 324.12,324.12 0 0,1 731.6479809249155,761.4931734436591 L 719.9128352749444,573.0753105679719 A 135.33704342269863,135.33704342269863 0 0 0 722.2549417106269,572.9090306510221 Z "/><path class="wedge" fill="url(#hiddenPattern)" d=" M 722.2549417106269,572.9090306510221 L 737.2571143796965,761.0949480552601 A 324.12,324.12 0 0,1 731.6479809249155,761.4931734436591 L 719.9128352749444,573.0753105679719 A 135.33704342269863,135.33704342269863 0 0 0 722.2549417106269,572.9090306510221 Z "/><path class="wedge" fill="rgb(101,142,204)" d=" M 716.5369952312351,518.8732933609143 L 731.6479809249404,761.4931734436575 A 324.12,324.12 0 0,1 711.500059357272,762.1199999999945 L 711.5000148393179,519.0299999999986 A 81.03,81.03 0 0 0 716.5369952312351,518.8732933609143 Z "/><path class="wedge" fill="url(#hiddenPattern)" d=" M 716.5369952312351,518.8732933609143 L 731.6479809249404,761.4931734436575 A 324.12,324.12 0 0,1 711.500059357272,762.1199999999945 L 711.5000148393179,519.0299999999986 A 81.03,81.03 0 0 0 716.5369952312351,518.8732933609143 Z "/><path class="wedge" fill="rgb(189,114,208)" d=" M 711.5000148393179,519.0299999999986 L 711.500059357272,762.1199999999945 A 324.12,324.12 0 0,1 711.5000000000787,762.12 L 711.5000000000197,519.03 A 81.03,81.03 0 0 0 711.5000148393179,519.0299999999986 Z "/><circle cx="711.5" cy="438" r="81.03"/><circle cx="711.5" cy="438" r="324.12"/><text x="711.5" y="438" text-anchor="middle" style="font-color:black;font-weight:bold" transform="rotate(360,711.5,438)">all</text><path class="line" d=" M 751.714140789971,508.3468818109544 A 81.03,81.03 0 1 0 711.5,519.03"/><line x1="872.3565631598842" y1="719.3875272438177" x2="751.714140789971" y2="508.3468818109544"/><text x="711.5" y="340.6778869731904" text-anchor="middle" style="font-color:black;font-weight:normal" transform="rotate(345.12267167471197,711.5,438)">Bacteria</text><path class="line" d=" M 622.250684051146,336.2617332314972 A 135.33704342269863,135.33704342269863 0 0 0 711.5,573.3370434226986"/><line x1="497.75594623791767" y1="194.34603659831006" x2="622.250684051146" y2="336.2617332314972"/><text x="711.5" y="586.6938168643653" text-anchor="middle" style="font-color:black;font-weight:normal" transform="rotate(69.37066311951683,711.5,438)">Proteobacteria</text><path class="line" d=" M 546.0024307440044,508.4275375022752 A 179.85962156158743,179.85962156158743 0 0 0 711.5,617.8596215615875"/><line x1="413.26145328491333" y1="564.9154980814915" x2="546.0024307440044" y2="508.4275375022752"/><text x="711.5" y="629.0070954223235" text-anchor="middle" style="font-color:black;font-weight:normal" transform="rotate(33.47390400276426,711.5,438)">Alphaproteobacteria</text><path class="line" d=" M 534.4031837869181,563.4331400230441 A 217.01786776404077,217.01786776404077 0 0 0 711.5,655.0178677640408"/><line x1="447.0027921784087" y1="625.3365993461554" x2="534.4031837869181" y2="563.4331400230441"/><text x="711.5" y="670.7569538788329" text-anchor="middle" style="font-color:black;font-weight:normal" transform="rotate(27.345517685644502,711.5,438)">Pelagibacterales</text><path class="line" d=" M 510.8962121256311,584.6574313935998 A 248.4960399936249,248.4960399936249 0 0 0 711.5,686.4960399936249"/><line x1="449.84713934472154" y1="629.2891918298299" x2="510.8962121256311" y2="584.6574313935998"/><text x="425.19198000318755" y="438" text-anchor="end" style="font-color:black;font-weight:normal" transform="rotate(-63.084896792997846,711.5,438)">Pelagibacteraceae&#160;&#160;&#160;15%</text><path class="line" d=" M 508.71551051142706,581.6270612223618 A 248.4960399936249,248.4960399936249 0 0 0 510.8962121256311,584.6574313935998"/><line x1="1025.12" y1="438" x2="1046.12" y2="438" class="tick" transform="rotate(150.81942168840874,711.5,438)"/><text x="373.38" y="438" text-anchor="end" style="font-color:black;font-weight:normal" transform="rotate(-29.18057831159127,711.5,438)">15 more</text><path class="line" d=" M 511.8113245305616,522.9775724418627 A 217.01786776404077,217.01786776404077 0 0 0 534.4031837869181,563.4331400230441"/><line x1="413.2614532849134" y1="564.9154980814916" x2="511.8113245305616" y2="522.9775724418627"/><path class="line" d=" M 570.4750518321964,326.3691464578642 A 179.85962156158743,179.85962156158743 0 0 0 546.0024307440044,508.4275375022752"/><line x1="457.3628801545831" y1="236.8331570146904" x2="570.4750518321964" y2="326.3691464578642"/><text x="711.5" y="232.12960609669523" text-anchor="middle" style="font-color:black;font-weight:normal" transform="rotate(277.6559111964649,711.5,438)">Gammaproteobacteria</text><path class="line" d=" M 500.20571653777347,388.48757019661684 A 217.01786776404077,217.01786776404077 0 0 0 511.8113245305616,522.9775724418625"/><line x1="395.928273757445" y1="364.0523158152066" x2="500.20571653777347" y2="388.48757019661684"/><text x="711.5" y="670.7569538788329" text-anchor="middle" style="font-color:black;font-weight:normal" transform="rotate(85.06796680171138,711.5,438)">Alter...dales</text><path class="line" d=" M 465.13258112548624,405.5442330298126 A 248.4960399936249,248.4960399936249 0 0 0 482.8467301241739,535.3034638006576"/><line x1="390.1564171901653" y1="395.6670791588991" x2="465.13258112548624" y2="405.5442330298126"/><text x="425.19198000318755" y="438" text-anchor="end" style="font-color:black;font-weight:normal" transform="rotate(-7.7737093292394785,711.5,438)">Alteromonadaceae&#160;&#160;&#160;8%</text><path class="line" d=" M 468.11929625311,387.8391094957257 A 248.4960399936249,248.4960399936249 0 0 0 465.13258112548624,405.5442330298126"/><line x1="394.0520692383438" y1="372.57381521789046" x2="468.11929625311" y2="387.8391094957257"/><text x="425.19198000318755" y="438" text-anchor="end" style="font-color:black;font-weight:normal" transform="rotate(9.575199386527963,711.5,438)">Pseudoalteromonadaceae&#160;&#160;&#160;1%</text><path class="line" d=" M 469.55774310370487,381.3058537374418 A 248.4960399936249,248.4960399936249 0 0 0 468.11929625311,387.8391094957257"/><path class="line" d=" M 507.8880848846326,362.9071045177835 A 217.01786776404077,217.01786776404077 0 0 0 500.20571653777347,388.48757019661684"/><line x1="407.4020259154531" y1="325.84744069940166" x2="507.8880848846326" y2="362.9071045177835"/><text x="711.5" y="205.24304612116714" text-anchor="middle" style="font-color:black;font-weight:normal" transform="rotate(286.7161516585773,711.5,438)">...</text><path class="line" d=" M 477.4364442266334,354.54621787335634 A 248.4960399936249,248.4960399936249 0 0 0 469.55774310370487,381.3058537374418"/><line x1="406.2046733653789" y1="329.1490104084488" x2="477.4364442266334" y2="354.54621787335634"/><text x="425.19198000318755" y="438" text-anchor="end" style="font-color:black;font-weight:normal" transform="rotate(16.40573774514555,711.5,438)">Halomonadaceae&#160;&#160;&#160;2%</text><path class="line" d=" M 478.35442943942405,352.014973277339 A 248.4960399936249,248.4960399936249 0 0 0 477.4364442266334,354.54621787335634"/><path class="line" d=" M 517.9613655242384,339.81878033906764 A 217.01786776404077,217.01786776404077 0 0 0 507.8880848846326,362.9071045177835"/><line x1="422.44664760742813" y1="291.3646227180641" x2="517.9613655242384" y2="339.81878033906764"/><text x="711.5" y="205.24304612116714" text-anchor="middle" style="font-color:black;font-weight:normal" transform="rotate(293.5713196964428,711.5,438)">...</text><path class="line" d=" M 484.0974891882304,337.80828393017606 A 248.4960399936249,248.4960399936249 0 0 0 478.35442943942405,352.014973277339"/><line x1="414.8928516277295" y1="307.3172775977257" x2="484.0974891882304" y2="337.80828393017606"/><text x="425.19198000318755" y="438" text-anchor="end" style="font-color:black;font-weight:normal" transform="rotate(22.0110405859602,711.5,438)">Enterobacteriaceae&#160;&#160;&#160;1%</text><line x1="1025.12" y1="438" x2="1046.12" y2="438" class="tick" transform="rotate(205.3381825631426,711.5,438)"/><text x="373.38" y="438" text-anchor="end" style="font-color:black;font-weight:normal" transform="rotate(25.33818256314259,711.5,438)">8 more</text><path class="line" d=" M 489.8888269269534,325.577716347241 A 248.4960399936249,248.4960399936249 0 0 0 484.0974891882304,337.80828393017606"/><path class="line" d=" M 525.0820785977801,326.89143368341723 A 217.01786776404077,217.01786776404077 0 0 0 517.9613655242384,339.81878033906764"/><line x1="433.0815577425961" y1="272.05740326558504" x2="525.0820785977801" y2="326.89143368341723"/><text x="440.9310661179796" y="438" text-anchor="end" style="font-color:black;font-weight:normal" transform="rotate(28.84709709237161,711.5,438)">Pseudomonadales&#160;&#160;&#160;1%</text><line x1="1025.12" y1="438" x2="1046.12" y2="438" class="tick" transform="rotate(214.57987344925965,711.5,438)"/><text x="373.38" y="438" text-anchor="end" style="font-color:black;font-weight:normal" transform="rotate(34.57987344925965,711.5,438)">33 more</text><path class="line" d=" M 541.3398868673734,303.30667860824576 A 217.01786776404077,217.01786776404077 0 0 0 525.0820785977801,326.89143368341723"/><line x1="457.3628801545828" y1="236.83315701469078" x2="541.3398868673734" y2="303.30667860824576"/><path class="line" d=" M 579.69407089453,315.6207512650888 A 179.85962156158743,179.85962156158743 0 0 0 570.4750518321964,326.3691464578642"/><line x1="473.97621689209177" y1="217.46377427255317" x2="579.69407089453" y2="315.6207512650888"/><text x="711.5" y="246.99290457767657" text-anchor="middle" style="font-color:black;font-weight:normal" transform="rotate(310.6200617380549,711.5,438)">Epsilonpr...obacteria</text><path class="line" d=" M 551.8697689552175,290.9797828003234 A 217.01786776404077,217.01786776404077 0 0 0 541.3398868673736,303.30667860824553"/><line x1="473.08944413512506" y1="218.42272145733892" x2="551.8697689552175" y2="290.9797828003234"/><text x="711.5" y="205.24304612116714" text-anchor="middle" style="font-color:black;font-weight:normal" transform="rotate(310.50461818289733,711.5,438)">Campyl...erales</text><path class="line" d=" M 526.9636150311435,271.5770312873274 A 248.4960399936249,248.4960399936249 0 0 0 516.658373759807,283.769579600553"/><line x1="470.80428067328467" y1="220.93009168059461" x2="526.9636150311435" y2="271.5770312873274"/><text x="425.19198000318755" y="438" text-anchor="end" style="font-color:black;font-weight:normal" transform="rotate(40.20476734112186,711.5,438)">Campylobacteraceae&#160;&#160;&#160;1%</text><path class="line" d=" M 528.7156021686403,269.6546828630495 A 248.4960399936249,248.4960399936249 0 0 0 526.9636150311435,271.5770312873274"/><line x1="473.08944413512495" y1="218.42272145733904" x2="528.7156021686403" y2="269.6546828630495"/><path class="line" d=" M 552.4635167427906,290.33770988492006 A 217.01786776404077,217.01786776404077 0 0 0 551.8697689552175,290.9797828003234"/><path class="line" d=" M 589.2419567281873,306.0816376556128 A 179.85962156158743,179.85962156158743 0 0 0 579.69407089453,315.6207512650888"/><line x1="491.18219525197264" y1="200.27360409283514" x2="589.2419567281873" y2="306.0816376556128"/><text x="459.51018921920627" y="438" text-anchor="end" style="font-color:black;font-weight:normal" transform="rotate(45.0263326558291,711.5,438)">Betaproteobacteria&#160;&#160;&#160;1%</text><path class="line" d=" M 592.8898413529319,302.792331082905 A 179.85962156158743,179.85962156158743 0 0 0 589.2419567281873,306.0816376556128"/><path class="line" d=" M 846.6704748780714,431.28747114463715 A 135.33704342269863,135.33704342269863 0 0 0 622.250684051146,336.2617332314972"/><line x1="1035.2210833743725" y1="421.9240994366565" x2="846.6704748780714" y2="431.28747114463715"/><text x="711.5" y="271.49715188007923" text-anchor="middle" style="font-color:black;font-weight:normal" transform="rotate(382.9491844704215,711.5,438)">Cyanobacteria</text><path class="line" d=" M 890.4058621165811,419.50200095685176 A 179.85962156158743,179.85962156158743 0 0 0 592.8898413529319,302.792331082905"/><line x1="1033.9012567455025" y1="404.665272628675" x2="890.4058621165811" y2="419.50200095685176"/><text x="711.5" y="232.12960609669523" text-anchor="middle" style="font-color:black;font-weight:normal" transform="rotate(381.419098305892,711.5,438)">Synechococcales</text><path class="line" d=" M 921.6112989860293,383.6861254626952 A 217.01786776404077,217.01786776404077 0 0 0 568.385478234328,274.8589917015538"/><line x1="1025.3049181341926" y1="356.8812737107345" x2="921.6112989860293" y2="383.6861254626952"/><text x="711.5" y="205.24304612116714" text-anchor="middle" style="font-color:black;font-weight:normal" transform="rotate(377.1238073188763,711.5,438)">Prochloraceae</text><path class="line" d=" M 952.0876819908382,375.8079654072281 A 248.4960399936249,248.4960399936249 0 0 0 547.6268945697213,251.1955910339641"/><text x="997.8080199968124" y="438" text-anchor="start" style="font-color:black;font-weight:normal" transform="rotate(287.1238073188763,711.5,438)">32%&#160;&#160;&#160;Prochlorococcus</text><path class="line" d=" M 927.2866086573258,414.91549322552436 A 217.01786776404077,217.01786776404077 0 0 0 921.6112989860293,383.6861254626952"/><line x1="1033.7810928824424" y1="403.5228833789933" x2="927.2866086573258" y2="414.91549322552436"/><text x="711.5" y="205.24304612116714" text-anchor="middle" style="font-color:black;font-weight:normal" transform="rotate(439.70005029300233,711.5,438)">Sy...ae</text><path class="line" d=" M 958.5286911237115,411.0350662114825 A 248.4960399936249,248.4960399936249 0 0 0 952.0876819908382,375.8079654072281"/><line x1="1033.7060978077216" y1="402.8289190453155" x2="958.5286911237115" y2="411.0350662114825"/><text x="997.8080199968124" y="438" text-anchor="start" style="font-color:black;font-weight:normal" transform="rotate(349.63835595266494,711.5,438)">2%&#160;&#160;&#160;Synechococcus</text><path class="line" d=" M 958.5861882824404,411.567114183887 A 248.4960399936249,248.4960399936249 0 0 0 958.5286911237115,411.0350662114825"/><path class="line" d=" M 927.3670656033445,415.68039165549624 A 217.01786776404077,217.01786776404077 0 0 0 927.2866086573258,414.91549322552436"/><line x1="1025.12" y1="438" x2="1046.12" y2="438" class="tick" transform="rotate(355.62695653727997,711.5,438)"/><text x="1049.62" y="438" text-anchor="start" style="font-color:black;font-weight:normal" transform="rotate(355.62695653727997,711.5,438)">9 more</text><path class="line" d=" M 891.1382560385714,429.07921328031404 A 179.85962156158743,179.85962156158743 0 0 0 890.4058621165811,419.50200095685176"/><path class="line" d=" M 837.9837091234574,486.1454738139529 A 135.33704342269863,135.33704342269863 0 0 0 846.6704748780714,431.28747114463715"/><line x1="1014.417063682649" y1="553.3040629374437" x2="837.9837091234574" y2="486.1454738139529"/><text x="711.5" y="586.6938168643653" text-anchor="middle" style="font-color:black;font-weight:normal" transform="rotate(278.99807604566365,711.5,438)">Firmicutes</text><path class="line" d=" M 887.8439064826935,473.3879939343909 A 179.85962156158743,179.85962156158743 0 0 0 891.1382560385714,429.07921328031387"/><line x1="1029.2844280607424" y1="501.77171537685706" x2="887.8439064826935" y2="473.3879939343909"/><text x="711.5" y="629.0070954223235" text-anchor="middle" style="font-color:black;font-weight:normal" transform="rotate(274.2521069423949,711.5,438)">Bacilli</text><path class="line" d=" M 926.7055295133888,465.98812240420244 A 217.01786776404077,217.01786776404077 0 0 0 928.25076904903,427.2362160229435"/><line x1="1032.9132409674212" y1="479.80075275420813" x2="926.7055295133888" y2="465.98812240420244"/><text x="711.5" y="670.7569538788329" text-anchor="middle" style="font-color:black;font-weight:normal" transform="rotate(272.2834702052902,711.5,438)">Ba...es</text><path class="line" d=" M 959.8377398121046,446.86842023861414 A 248.4960399936249,248.4960399936249 0 0 0 959.690198941681,425.6749425233798"/><line x1="1035.4135248592465" y1="449.5673165971311" x2="959.8377398121046" y2="446.86842023861414"/><text x="997.8080199968124" y="438" text-anchor="start" style="font-color:black;font-weight:normal" transform="rotate(359.60113518247334,711.5,438)">1%&#160;&#160;&#160;Bacillaceae</text><path class="line" d=" M 958.833509575355,462.0086845464506 A 248.4960399936249,248.4960399936249 0 0 0 959.8377398121046,446.86842023861414"/><line x1="1034.1036806285554" y1="469.31516637204845" x2="958.833509575355" y2="462.0086845464506"/><text x="997.8080199968124" y="438" text-anchor="start" style="font-color:black;font-weight:normal" transform="rotate(363.79478165628564,711.5,438)">1%&#160;&#160;&#160;Staphylococcaceae</text><path class="line" d=" M 957.9208243302508,470.04776480369406 A 248.4960399936249,248.4960399936249 0 0 0 958.833509575355,462.0086845464506"/><path class="line" d=" M 924.2758206416065,480.6990055989782 A 217.01786776404077,217.01786776404077 0 0 0 926.7055295133888,465.98812240420244"/><text x="982.0689338820205" y="438" text-anchor="start" style="font-color:black;font-weight:normal" transform="rotate(369.3785344458758,711.5,438)">1%&#160;&#160;&#160;Lactobacillales</text><path class="line" d=" M 880.8906155384681,498.4673700087606 A 179.85962156158743,179.85962156158743 0 0 0 887.8439064826935,473.3879939343909"/><line x1="1016.7540966763263" y1="546.9665584586395" x2="880.8906155384681" y2="498.4673700087606"/><text x="711.5" y="643.8703939033048" text-anchor="middle" style="font-color:black;font-weight:normal" transform="rotate(285.49610586485693,711.5,438)">Clostridia</text><path class="line" d=" M 917.2136040903758,507.12791057885926 A 217.01786776404077,217.01786776404077 0 0 0 924.2758206416065,480.6990055989782"/><line x1="1018.7368835098316" y1="541.2437495016824" x2="917.2136040903758" y2="507.12791057885926"/><text x="711.5" y="670.7569538788329" text-anchor="middle" style="font-color:black;font-weight:normal" transform="rotate(284.96077837512604,711.5,438)">Clo...les</text><path class="line" d=" M 949.7912522980403,508.4809262903442 A 248.4960399936249,248.4960399936249 0 0 0 955.1386892037931,486.8924433381141"/><line x1="1022.3096237542549" y1="529.9301483830986" x2="949.7912522980403" y2="508.4809262903442"/><text x="997.8080199968124" y="438" text-anchor="start" style="font-color:black;font-weight:normal" transform="rotate(373.9120721721525,711.5,438)">1%&#160;&#160;&#160;Clostridiaceae</text><path class="line" d=" M 947.0521069115631,517.154828166302 A 248.4960399936249,248.4960399936249 0 0 0 949.7912522980403,508.4809262903442"/><line x1="1018.7368835098317" y1="541.2437495016821" x2="947.0521069115631" y2="517.154828166302"/><path class="line" d=" M 915.8860088452878,510.9596759665543 A 217.01786776404077,217.01786776404077 0 0 0 917.2136040903758,507.12791057885926"/><line x1="1016.7540966763263" y1="546.9665584586392" x2="915.8860088452878" y2="510.9596759665543"/><path class="line" d=" M 879.5937567521552,501.98415748624615 A 179.85962156158743,179.85962156158743 0 0 0 880.8906155384681,498.4673700087606"/><path class="line" d=" M 810.2455373117764,530.54963091988 A 135.33704342269863,135.33704342269863 0 0 0 837.9837091234574,486.1454738139529"/><line x1="947.9866465534523" y1="659.6480101464991" x2="810.2455373117764" y2="530.54963091988"/><text x="711.5" y="604.5028481199208" text-anchor="middle" style="font-color:black;font-weight:normal" transform="rotate(301.9919953921227,711.5,438)">Bacteroidetes</text><path class="line" d=" M 849.8957532474333,552.874274541139 A 179.85962156158743,179.85962156158743 0 0 0 879.5937567521552,501.98415748624615"/><line x1="960.8991211206804" y1="645.0117213691827" x2="849.8957532474333" y2="552.874274541139"/><text x="711.5" y="629.0070954223235" text-anchor="middle" style="font-color:black;font-weight:normal" transform="rotate(300.26660205139893,711.5,438)">Flavo...eriia</text><path class="line" d=" M 878.4877375288036,576.6068196152776 A 217.01786776404077,217.01786776404077 0 0 0 914.3212244531428,515.2030170406479"/><text x="711.5" y="670.7569538788329" text-anchor="middle" style="font-color:black;font-weight:normal" transform="rotate(300.26660205139893,711.5,438)">Flav...ales</text><path class="line" d=" M 905.0515851690709,593.846288922942 A 248.4960399936249,248.4960399936249 0 0 0 943.7401911996635,526.4012187928251"/><line x1="963.9544849350866" y1="641.2744633153908" x2="905.0515851690709" y2="593.846288922942"/><text x="997.8080199968124" y="438" text-anchor="start" style="font-color:black;font-weight:normal" transform="rotate(389.83993349168105,711.5,438)">5%&#160;&#160;&#160;Flavobacteriaceae</text><path class="line" d=" M 902.709101494445,596.7115666805676 A 248.4960399936249,248.4960399936249 0 0 0 905.0515851690709,593.846288922942"/><line x1="1025.12" y1="438" x2="1046.12" y2="438" class="tick" transform="rotate(401.4194880540035,711.5,438)"/><text x="1049.62" y="438" text-anchor="start" style="font-color:black;font-weight:normal" transform="rotate(401.4194880540035,711.5,438)">6 more</text><path class="line" d=" M 842.7304046448006,560.9961965470451 A 179.85962156158743,179.85962156158743 0 0 0 849.8957532474333,552.874274541139"/><path class="line" d=" M 799.5275801468765,540.7971811670079 A 135.33704342269863,135.33704342269863 0 0 0 810.2455373117764,530.54963091988"/><line x1="922.3181068215972" y1="684.1899677813002" x2="799.5275801468765" y2="540.7971811670079"/><text x="711.5" y="586.6938168643653" text-anchor="middle" style="font-color:black;font-weight:normal" transform="rotate(316.2853402034578,711.5,438)">Actino...cteria</text><path class="line" d=" M 829.0250226697841,574.1519464228998 A 179.85962156158743,179.85962156158743 0 0 0 842.7304046448007,560.996196547045"/><line x1="923.288560528506" y1="683.3556195184112" x2="829.0250226697841" y2="574.1519464228998"/><text x="963.4898107807937" y="438" text-anchor="start" style="font-color:black;font-weight:normal" transform="rotate(406.17222184615355,711.5,438)">2%&#160;&#160;&#160;Actinobacteria</text><path class="line" d=" M 828.486501639093,574.6149402610268 A 179.85962156158743,179.85962156158743 0 0 0 829.0250226697841,574.1519464228998"/><line x1="922.3181068215974" y1="684.1899677813" x2="828.486501639093" y2="574.6149402610268"/><line x1="1025.12" y1="438" x2="1046.12" y2="438" class="tick" transform="rotate(414.8355711808056,711.5,438)"/><text x="1049.62" y="438" text-anchor="start" style="font-color:black;font-weight:normal" transform="rotate(414.8355711808056,711.5,438)">38 more</text><path class="line" d=" M 778.6660239207578,555.4940022004256 A 135.33704342269863,135.33704342269863 0 0 0 799.5275801468765,540.7971811670079"/><line x1="872.3565631598894" y1="719.3875272438146" x2="778.6660239207578" y2="555.4940022004256"/><path class="line" d=" M 729.9158268475203,516.9095572254854 A 81.03,81.03 0 0 0 751.714140789971,508.3468818109544"/><line x1="785.163307390081" y1="753.6382289019416" x2="729.9158268475203" y2="516.9095572254854"/><text x="711.5" y="557.0449303958891" text-anchor="middle" style="font-color:black;font-weight:normal" transform="rotate(338.554422139471,711.5,438)">Eukaryota</text><path class="line" d=" M 742.2582815960477,569.7954606033745 A 135.33704342269863,135.33704342269863 0 0 0 778.6660239207556,555.4940022004268"/><text x="711.5" y="604.5028481199208" text-anchor="middle" style="font-color:black;font-weight:normal" transform="rotate(338.554422139471,711.5,438)">Metazoa</text><path class="line" d=" M 752.3770041656018,613.1529445905002 A 179.85962156158743,179.85962156158743 0 0 0 800.7620035037467,594.146656060175"/><text x="711.5" y="643.8703939033048" text-anchor="middle" style="font-color:black;font-weight:normal" transform="rotate(338.554422139471,711.5,438)">Chordata</text><path class="line" d=" M 760.8220224060301,649.3388109993755 A 217.01786776404077,217.01786776404077 0 0 0 819.2031604122233,626.4059026837258"/><text x="711.5" y="670.7569538788329" text-anchor="middle" style="font-color:black;font-weight:normal" transform="rotate(338.554422139471,711.5,438)">Mammalia</text><path class="line" d=" M 767.9761205086642,679.9932430974139 A 248.4960399936249,248.4960399936249 0 0 0 834.8253700858189,653.7339449083269"/><text x="997.8080199968124" y="438" text-anchor="start" style="font-color:black;font-weight:normal" transform="rotate(428.55442213947094,711.5,438)">5%&#160;&#160;&#160;Primates</text><path class="line" d=" M 716.5369952312351,518.8732933609143 A 81.03,81.03 0 0 0 729.9158268475203,516.9095572254854"/><line x1="731.6479809249404" y1="761.4931734436575" x2="716.5369952312351" y2="518.8732933609143"/><text x="711.5" y="535.3221130268096" text-anchor="middle" style="font-color:black;font-weight:normal" transform="rotate(351.64978850188317,711.5,438)">Viruses</text><path class="line" d=" M 722.2549417106269,572.9090306510221 A 135.33704342269863,135.33704342269863 0 0 0 742.2582815960477,569.7954606033745"/><line x1="737.2571143796965" y1="761.0949480552601" x2="722.2549417106269" y2="572.9090306510221"/><text x="711.5" y="586.6938168643653" text-anchor="middle" style="font-color:black;font-weight:normal" transform="rotate(351.15276172155933,711.5,438)">Caudovirales</text><path class="line" d=" M 727.4740275474571,617.1488596452417 A 179.85962156158743,179.85962156158743 0 0 0 752.3770041656018,613.1529445905002"/><line x1="740.2863488409984" y1="760.8391558042556" x2="727.4740275474571" y2="617.1488596452417"/><text x="963.4898107807937" y="438" text-anchor="start" style="font-color:black;font-weight:normal" transform="rotate(440.8840639142008,711.5,438)">2%&#160;&#160;&#160;Myoviridae</text><path class="line" d=" M 725.7930545626646,617.2908030534364 A 179.85962156158743,179.85962156158743 0 0 0 727.4740275474571,617.1488596452417"/><line x1="737.2571143796971" y1="761.0949480552601" x2="725.7930545626646" y2="617.2908030534364"/><path class="line" d=" M 719.9128352749444,573.0753105679719 A 135.33704342269863,135.33704342269863 0 0 0 722.2549417106269,572.9090306510221"/><path class="line" d=" M 711.5000148393179,519.0299999999986 A 81.03,81.03 0 0 0 716.5369952312351,518.8732933609143"/><line x1="711.500059357272" y1="762.1199999999945" x2="711.5000148393179" y2="519.0299999999986"/><path class="line" d=" M 711.5000000000197,519.03 A 81.03,81.03 0 0 0 711.5000148393179,519.0299999999986"/><line x1="711.5000000000787" y1="762.12" x2="711.5000000000197" y2="519.03"/></svg>